<?xml version="1.0" encoding="utf-8"?>
<svg version="1.1" xmlns:xlink="http://www.w3.org/1999/xlink" width="10px" height="35px" preserveAspectRatio="xMidYMin meet" viewBox="1298 325  8 35" xmlns="http://www.w3.org/2000/svg">
  <path d="M 1293 330.5  L 1297 330.5  A 5 5 0 0 1 1302.5 335.5 L 1302.5 350  A 5 5 0 0 0 1307.5 355.5 L 1464 355.5  A 5 5 0 0 0 1469.5 350.5 L 1469.5 325  A 5 5 0 0 1 1474.5 320.5 L 1479 320.5  " stroke-width="1" stroke="#333333" fill="none" />
  <path d="M 1295 327.5  A 3 3 0 0 0 1292 330.5 A 3 3 0 0 0 1295 333.5 A 3 3 0 0 0 1298 330.5 A 3 3 0 0 0 1295 327.5 Z " fill-rule="nonzero" fill="#333333" stroke="none" />
</svg>