<?xml version="1.0" encoding="utf-8"?>
<svg version="1.1" xmlns:xlink="http://www.w3.org/1999/xlink" width="10px" height="10px" preserveAspectRatio="xMinYMid meet" viewBox="1752 347  10 8" xmlns="http://www.w3.org/2000/svg">
  <path d="M 1757.59966711079 355.506653346025  A 5 5 0 0 1 1762.5 351.5 L 1796 351.5  A 5 5 0 0 0 1801.5 346.5 L 1801.5 344  A 5 5 0 0 1 1806.5 339.5 L 1811 339.5  " stroke-width="1" stroke="#333333" fill="none" />
  <path d="M 1758.37332192545 350.676787633025  A 3 3 0 0 0 1755.37332192545 353.676787633025 A 3 3 0 0 0 1758.37332192545 356.676787633025 A 3 3 0 0 0 1761.37332192545 353.676787633025 A 3 3 0 0 0 1758.37332192545 350.676787633025 Z " fill-rule="nonzero" fill="#333333" stroke="none" />
</svg>