<?xml version="1.0" encoding="utf-8"?>
<svg version="1.1" xmlns:xlink="http://www.w3.org/1999/xlink" width="21px" height="20px" preserveAspectRatio="xMinYMid meet" viewBox="1972 496  21 18" xmlns="http://www.w3.org/2000/svg">
  <path d="M 1980.85510940921 505.642338217669  A 3 3 0 0 1 1982 508 L 1982 559  A 5 5 0 0 0 1987 564 L 1988 564  A 5 5 0 0 1 1993 569 L 1993 574  " stroke-width="2" stroke="#7f7f7f" fill="none" />
  <path d="M 1981.75833493776 503.320343960671  A 3.5 3.5 0 0 0 1978.25833493776 506.820343960671 A 3.5 3.5 0 0 0 1981.75833493776 510.320343960671 A 3.5 3.5 0 0 0 1985.25833493776 506.820343960671 A 3.5 3.5 0 0 0 1981.75833493776 503.320343960671 Z " fill-rule="nonzero" fill="#7f7f7f" stroke="none" />
</svg>