<?xml version="1.0" encoding="utf-8"?>
<svg version="1.1" xmlns:xlink="http://www.w3.org/1999/xlink" width="8px" height="10px" preserveAspectRatio="xMidYMin meet" viewBox="2103 495  6 10" xmlns="http://www.w3.org/2000/svg">
  <path d="M 2108.14489059079 500.642338217669  A 3 3 0 0 0 2107 503 L 2107 559  A 5 5 0 0 0 2112 564 L 2144 564  A 5 5 0 0 1 2149 569 L 2149 574  " stroke-width="2" stroke="#7f7f7f" fill="none" />
  <path d="M 2107.24166506224 498.320343960671  A 3.5 3.5 0 0 0 2103.74166506224 501.820343960671 A 3.5 3.5 0 0 0 2107.24166506224 505.320343960671 A 3.5 3.5 0 0 0 2110.74166506224 501.820343960671 A 3.5 3.5 0 0 0 2107.24166506224 498.320343960671 Z " fill-rule="nonzero" fill="#7f7f7f" stroke="none" />
</svg>