<?xml version="1.0" encoding="utf-8"?>
<svg version="1.1" xmlns:xlink="http://www.w3.org/1999/xlink" width="10px" height="121px" preserveAspectRatio="xMidYMin meet" viewBox="1471 72  8 121" xmlns="http://www.w3.org/2000/svg">
  <path d="M 1074.62435031316 191.510384162982  A 4 4 0 0 1 1078.5 188.5 L 1470 188.5  A 5 5 0 0 0 1475.5 183.5 L 1475.5 82  A 5 5 0 0 1 1480.5 77.5 L 1494 77.5  " stroke-width="1" stroke="#333333" fill="none" />
  <path d="M 1075.5732445245 186.773444959907  A 3 3 0 0 0 1072.5732445245 189.773444959907 A 3 3 0 0 0 1075.5732445245 192.773444959907 A 3 3 0 0 0 1078.5732445245 189.773444959907 A 3 3 0 0 0 1075.5732445245 186.773444959907 Z " fill-rule="nonzero" fill="#333333" stroke="none" />
</svg>