<?xml version="1.0" encoding="utf-8"?>
<svg version="1.1" xmlns:xlink="http://www.w3.org/1999/xlink" width="10px" height="22px" preserveAspectRatio="xMidYMin meet" viewBox="1797 256  8 22" xmlns="http://www.w3.org/2000/svg">
  <path d="M 1757.59966711079 277.506653346025  A 5 5 0 0 1 1762.5 273.5 L 1796 273.5  A 5 5 0 0 0 1801.5 268.5 L 1801.5 266  A 5 5 0 0 1 1806.5 261.5 L 1811 261.5  " stroke-width="1" stroke="#333333" fill="none" />
  <path d="M 1758.37332192545 272.676787633025  A 3 3 0 0 0 1755.37332192545 275.676787633025 A 3 3 0 0 0 1758.37332192545 278.676787633025 A 3 3 0 0 0 1761.37332192545 275.676787633025 A 3 3 0 0 0 1758.37332192545 272.676787633025 Z " fill-rule="nonzero" fill="#333333" stroke="none" />
</svg>