<?xml version="1.0" encoding="utf-8"?>
<svg version="1.1" xmlns:xlink="http://www.w3.org/1999/xlink" width="24px" height="10px" preserveAspectRatio="xMinYMid meet" viewBox="1765 739  24 8" xmlns="http://www.w3.org/2000/svg">
  <path d="M 1652.5 756  L 1652.5 745  A 5 5 0 0 1 1657.5 740.5 L 1768.5 740.5  A 1.5 1.5 0 0 1 1770.5 742 A 1.5 1.5 0 0 0 1772 743.5 L 1789 743.5  " stroke-width="1" stroke="#333333" fill="none" />
  <path d="M 1652.5 751  A 3 3 0 0 0 1649.5 754 A 3 3 0 0 0 1652.5 757 A 3 3 0 0 0 1655.5 754 A 3 3 0 0 0 1652.5 751 Z " fill-rule="nonzero" fill="#333333" stroke="none" />
</svg>