<?xml version="1.0" encoding="utf-8"?>
<svg version="1.1" xmlns:xlink="http://www.w3.org/1999/xlink" width="10px" height="26px" preserveAspectRatio="xMidYMin meet" viewBox="1307 398  8 26" xmlns="http://www.w3.org/2000/svg">
  <path d="M 1263 288.5  L 1245 288.5  A 5 5 0 0 0 1240.5 293.5 L 1240.5 398  A 5 5 0 0 0 1245.5 403.5 L 1306 403.5  A 5 5 0 0 1 1311.5 408.5 L 1311.5 424  " stroke-width="1" stroke="#000000" fill="none" />
  <path d="M 1261 285.5  A 3 3 0 0 0 1258 288.5 A 3 3 0 0 0 1261 291.5 A 3 3 0 0 0 1264 288.5 A 3 3 0 0 0 1261 285.5 Z " fill-rule="nonzero" fill="#000000" stroke="none" />
</svg>