<?xml version="1.0" encoding="utf-8"?>
<svg version="1.1" xmlns:xlink="http://www.w3.org/1999/xlink" width="10px" height="73px" preserveAspectRatio="xMidYMin meet" viewBox="1265 325  8 73" xmlns="http://www.w3.org/2000/svg">
  <path d="M 1282 330.5  L 1274 330.5  A 5 5 0 0 0 1269.5 335.5 L 1269.5 388  A 5 5 0 0 0 1274.5 393.5 L 1384 393.5  A 5 5 0 0 1 1389.5 398.5 L 1389.5 464  " stroke-width="1" stroke="#000000" fill="none" />
  <path d="M 1280 327.5  A 3 3 0 0 0 1277 330.5 A 3 3 0 0 0 1280 333.5 A 3 3 0 0 0 1283 330.5 A 3 3 0 0 0 1280 327.5 Z " fill-rule="nonzero" fill="#000000" stroke="none" />
</svg>