<?xml version="1.0" encoding="utf-8"?>
<svg version="1.1" xmlns:xlink="http://www.w3.org/1999/xlink" width="10px" height="14px" preserveAspectRatio="xMidYMin meet" viewBox="1146 91  8 14" xmlns="http://www.w3.org/2000/svg">
  <path d="M 1150.5 91  L 1150.5 95  A 5 5 0 0 1 1145.5 100.5 L 1015 100.5  A 5 5 0 0 0 1010.5 105.5 L 1010.5 135  A 5 5 0 0 1 1005.5 140.5 L 1001 140.5  " stroke-width="1" stroke="#000000" fill="none" />
  <path d="M 1003 137.5  A 3 3 0 0 0 1000 140.5 A 3 3 0 0 0 1003 143.5 A 3 3 0 0 0 1006 140.5 A 3 3 0 0 0 1003 137.5 Z " fill-rule="nonzero" fill="#000000" stroke="none" />
</svg>