<?xml version="1.0" encoding="utf-8"?>
<svg version="1.1" xmlns:xlink="http://www.w3.org/1999/xlink" width="10px" height="55px" preserveAspectRatio="xMidYMin meet" viewBox="976 280  8 55" xmlns="http://www.w3.org/2000/svg">
  <path d="M 980.5 280  L 980.5 325  A 5 5 0 0 1 975.5 330.5 L 785 330.5  A 5 5 0 0 0 780.5 335.5 L 780.5 421  A 5 5 0 0 1 775.5 426.5 L 621 426.5  " stroke-width="1" stroke="#000000" fill="none" />
  <path d="M 623 423.5  A 3 3 0 0 0 620 426.5 A 3 3 0 0 0 623 429.5 A 3 3 0 0 0 626 426.5 A 3 3 0 0 0 623 423.5 Z " fill-rule="nonzero" fill="#000000" stroke="none" />
</svg>