<?xml version="1.0" encoding="utf-8"?>
<svg version="1.1" xmlns:xlink="http://www.w3.org/1999/xlink" width="207px" height="28px" xmlns="http://www.w3.org/2000/svg">
  <defs>
    <mask fill="white" id="clip1182">
      <path d="M 0 24  L 0 4  C 0 1.75999999999999  1.13849999999999 0  2.5875 0  L 204.4125 0  C 205.8615 0  207 1.75999999999999  207 4  L 207 24  C 207 26.24  205.8615 28  204.4125 28  L 115.001753048781 28  L 2.5875 28  C 1.13849999999999 28  0 26.24  0 24  Z " fill-rule="evenodd" />
    </mask>
  </defs>
  <g transform="matrix(1 0 0 1 -1750 -198 )">
    <path d="M 0 24  L 0 4  C 0 1.75999999999999  1.13849999999999 0  2.5875 0  L 204.4125 0  C 205.8615 0  207 1.75999999999999  207 4  L 207 24  C 207 26.24  205.8615 28  204.4125 28  L 115.001753048781 28  L 2.5875 28  C 1.13849999999999 28  0 26.24  0 24  Z " fill-rule="nonzero" fill="#ffffff" stroke="none" transform="matrix(1 0 0 1 1750 198 )" />
    <path d="M 0 24  L 0 4  C 0 1.75999999999999  1.13849999999999 0  2.5875 0  L 204.4125 0  C 205.8615 0  207 1.75999999999999  207 4  L 207 24  C 207 26.24  205.8615 28  204.4125 28  L 115.001753048781 28  L 2.5875 28  C 1.13849999999999 28  0 26.24  0 24  Z " stroke-width="2" stroke="#d9d9d9" fill="none" transform="matrix(1 0 0 1 1750 198 )" mask="url(#clip1182)" />
  </g>
</svg>