<?xml version="1.0" encoding="utf-8"?>
<svg version="1.1" xmlns:xlink="http://www.w3.org/1999/xlink" width="385px" height="28px" xmlns="http://www.w3.org/2000/svg">
  <defs>
    <mask fill="white" id="clip1475">
      <path d="M 0 24  L 0 4  C 0 1.75999999999999  2.11749999999999 0  4.8125 0  L 380.1875 0  C 382.8825 0  385 1.75999999999999  385 4  L 385 24  C 385 26.24  382.8825 28  380.1875 28  L 213.892149390244 28  L 4.8125 28  C 2.11749999999999 28  0 26.24  0 24  Z " fill-rule="evenodd" />
    </mask>
  </defs>
  <g transform="matrix(1 0 0 1 -1584 -593 )">
    <path d="M 0 24  L 0 4  C 0 1.75999999999999  2.11749999999999 0  4.8125 0  L 380.1875 0  C 382.8825 0  385 1.75999999999999  385 4  L 385 24  C 385 26.24  382.8825 28  380.1875 28  L 213.892149390244 28  L 4.8125 28  C 2.11749999999999 28  0 26.24  0 24  Z " fill-rule="nonzero" fill="#ffffff" stroke="none" transform="matrix(1 0 0 1 1584 593 )" />
    <path d="M 0 24  L 0 4  C 0 1.75999999999999  2.11749999999999 0  4.8125 0  L 380.1875 0  C 382.8825 0  385 1.75999999999999  385 4  L 385 24  C 385 26.24  382.8825 28  380.1875 28  L 213.892149390244 28  L 4.8125 28  C 2.11749999999999 28  0 26.24  0 24  Z " stroke-width="2" stroke="#d9d9d9" fill="none" transform="matrix(1 0 0 1 1584 593 )" mask="url(#clip1475)" />
  </g>
</svg>