<?xml version="1.0" encoding="utf-8"?>
<svg version="1.1" xmlns:xlink="http://www.w3.org/1999/xlink" width="10px" height="73px" preserveAspectRatio="xMidYMin meet" viewBox="1474 295  8 73" xmlns="http://www.w3.org/2000/svg">
  <path d="M 1123.5 318  L 1123.5 305  A 5 5 0 0 1 1128.5 300.5 L 1473 300.5  A 5 5 0 0 1 1478.5 305.5 L 1478.5 358  A 5 5 0 0 0 1483.5 363.5 L 1502 363.5  " stroke-width="1" stroke="#000000" fill="none" />
  <path d="M 1123.5 313  A 3 3 0 0 0 1120.5 316 A 3 3 0 0 0 1123.5 319 A 3 3 0 0 0 1126.5 316 A 3 3 0 0 0 1123.5 313 Z " fill-rule="nonzero" fill="#000000" stroke="none" />
</svg>