<?xml version="1.0" encoding="utf-8"?>
<svg version="1.1" xmlns:xlink="http://www.w3.org/1999/xlink" width="52px" height="10px" preserveAspectRatio="xMinYMid meet" viewBox="1450 460  52 8" xmlns="http://www.w3.org/2000/svg">
  <path d="M 1248.59966711079 352.493346653975  A 5 5 0 0 0 1253.5 356.5 L 1450 356.5  A 5 5 0 0 1 1455.5 361.5 L 1455.5 459  A 5 5 0 0 0 1460.5 464.5 L 1502 464.5  " stroke-width="1" stroke="#000000" fill="none" />
  <path d="M 1249.37332192545 351.323212366975  A 3 3 0 0 0 1246.37332192545 354.323212366975 A 3 3 0 0 0 1249.37332192545 357.323212366975 A 3 3 0 0 0 1252.37332192545 354.323212366975 A 3 3 0 0 0 1249.37332192545 351.323212366975 Z " fill-rule="nonzero" fill="#000000" stroke="none" />
</svg>