<?xml version="1.0" encoding="utf-8"?>
<svg version="1.1" xmlns:xlink="http://www.w3.org/1999/xlink" width="10px" height="79px" preserveAspectRatio="xMidYMin meet" viewBox="2164 1241  8 79" xmlns="http://www.w3.org/2000/svg">
  <path d="M 1928.95969769413 1246.34147098481  A 1 1 0 0 0 1929.5 1246.5 L 2163 1246.5  A 5 5 0 0 1 2168.5 1251.5 L 2168.5 1310  A 5 5 0 0 0 2173.5 1315.5 L 2178 1315.5  " stroke-width="1" stroke="#000000" fill="none" />
  <path d="M 1930.42920367321 1243.5  A 3 3 0 0 0 1927.42920367321 1246.5 A 3 3 0 0 0 1930.42920367321 1249.5 A 3 3 0 0 0 1933.42920367321 1246.5 A 3 3 0 0 0 1930.42920367321 1243.5 Z " fill-rule="nonzero" fill="#000000" stroke="none" />
</svg>