<?xml version="1.0" encoding="utf-8"?>
<svg version="1.1" xmlns:xlink="http://www.w3.org/1999/xlink" width="41px" height="10px" preserveAspectRatio="xMinYMid meet" viewBox="1787 481  41 8" xmlns="http://www.w3.org/2000/svg">
  <path d="M 1792.74483487622 486.541148922792  A 2 2 0 0 1 1794.5 485.5 L 1818 485.5  A 5 5 0 0 0 1823.5 480.5 L 1823.5 423  A 5 5 0 0 1 1828.5 418.5 L 1833 418.5  " stroke-width="1" stroke="#333333" fill="none" />
  <path d="M 1794.35852559666 482.505010026792  A 3 3 0 0 0 1791.35852559666 485.505010026792 A 3 3 0 0 0 1794.35852559666 488.505010026792 A 3 3 0 0 0 1797.35852559666 485.505010026792 A 3 3 0 0 0 1794.35852559666 482.505010026792 Z " fill-rule="nonzero" fill="#333333" stroke="none" />
</svg>