<?xml version="1.0" encoding="utf-8"?>
<svg version="1.1" xmlns:xlink="http://www.w3.org/1999/xlink" width="10px" height="15px" preserveAspectRatio="xMidYMin meet" viewBox="957 491  8 15" xmlns="http://www.w3.org/2000/svg">
  <path d="M 869 198.5  L 832 198.5  A 5 5 0 0 0 827.5 203.5 L 827.5 491  A 5 5 0 0 0 832.5 496.5 L 956 496.5  A 5 5 0 0 1 961.5 501.5 L 961.5 506  " stroke-width="1" stroke="#000000" fill="none" />
  <path d="M 867 195.5  A 3 3 0 0 0 864 198.5 A 3 3 0 0 0 867 201.5 A 3 3 0 0 0 870 198.5 A 3 3 0 0 0 867 195.5 Z " fill-rule="nonzero" fill="#000000" stroke="none" />
</svg>