<?xml version="1.0" encoding="utf-8"?>
<svg version="1.1" xmlns:xlink="http://www.w3.org/1999/xlink" width="300px" height="28px" xmlns="http://www.w3.org/2000/svg">
  <defs>
    <mask fill="white" id="clip2689">
      <path d="M 0 24  L 0 4  C 0 1.75999999999999  1.64999999999999 0  3.75 0  L 296.25 0  C 298.35 0  300 1.75999999999999  300 4  L 300 24  C 300 26.24  298.35 28  296.25 28  L 166.669207317073 28  L 3.75 28  C 1.64999999999999 28  0 26.24  0 24  Z " fill-rule="evenodd" />
    </mask>
  </defs>
  <g transform="matrix(1 0 0 1 -2150 -1201 )">
    <path d="M 0 24  L 0 4  C 0 1.75999999999999  1.64999999999999 0  3.75 0  L 296.25 0  C 298.35 0  300 1.75999999999999  300 4  L 300 24  C 300 26.24  298.35 28  296.25 28  L 166.669207317073 28  L 3.75 28  C 1.64999999999999 28  0 26.24  0 24  Z " fill-rule="nonzero" fill="#ffffff" stroke="none" transform="matrix(1 0 0 1 2150 1201 )" />
    <path d="M 0 24  L 0 4  C 0 1.75999999999999  1.64999999999999 0  3.75 0  L 296.25 0  C 298.35 0  300 1.75999999999999  300 4  L 300 24  C 300 26.24  298.35 28  296.25 28  L 166.669207317073 28  L 3.75 28  C 1.64999999999999 28  0 26.24  0 24  Z " stroke-width="2" stroke="#d9d9d9" fill="none" transform="matrix(1 0 0 1 2150 1201 )" mask="url(#clip2689)" />
  </g>
</svg>