<?xml version="1.0" encoding="utf-8"?>
<svg version="1.1" xmlns:xlink="http://www.w3.org/1999/xlink" width="10px" height="10px" xmlns="http://www.w3.org/2000/svg">
  <g transform="matrix(1 0 0 1 -2191 -1249 )">
    <path d="M 2196 1249  C 2198.8 1249  2201 1251.2  2201 1254  C 2201 1256.8  2198.8 1259  2196 1259  C 2193.2 1259  2191 1256.8  2191 1254  C 2191 1251.2  2193.2 1249  2196 1249  Z " fill-rule="nonzero" fill="#aaaaaa" stroke="none" />
    <path d="M 2196 1249.5  C 2198.52 1249.5  2200.5 1251.48  2200.5 1254  C 2200.5 1256.52  2198.52 1258.5  2196 1258.5  C 2193.48 1258.5  2191.5 1256.52  2191.5 1254  C 2191.5 1251.48  2193.48 1249.5  2196 1249.5  Z " stroke-width="1" stroke="#aaaaaa" fill="none" />
  </g>
</svg>