<?xml version="1.0" encoding="utf-8"?>
<svg version="1.1" xmlns:xlink="http://www.w3.org/1999/xlink" width="10px" height="174px" preserveAspectRatio="xMidYMin meet" viewBox="1340 127  8 174" xmlns="http://www.w3.org/2000/svg">
  <path d="M 1284.5 305  L 1284.5 301  A 5 5 0 0 1 1289.5 296.5 L 1339 296.5  A 5 5 0 0 0 1344.5 291.5 L 1344.5 137  A 5 5 0 0 1 1349.5 132.5 L 1523 132.5  " stroke-width="1" stroke="#555555" fill="none" />
  <path d="M 1284.5 300  A 3 3 0 0 0 1281.5 303 A 3 3 0 0 0 1284.5 306 A 3 3 0 0 0 1287.5 303 A 3 3 0 0 0 1284.5 300 Z " fill-rule="nonzero" fill="#555555" stroke="none" />
</svg>