<?xml version="1.0" encoding="utf-8"?>
<svg version="1.1" xmlns:xlink="http://www.w3.org/1999/xlink" width="52px" height="10px" preserveAspectRatio="xMinYMid meet" viewBox="129 160  52 8" xmlns="http://www.w3.org/2000/svg">
  <path d="M 222 95.5  L 181.5 95.5  A 5 5 0 0 0 176.5 100.5 L 176.5 159.5  A 5 5 0 0 1 171.5 164.5 L 130 164.5  " stroke-width="1" stroke="#000000" fill="none" />
  <path d="M 220 92.5  A 3 3 0 0 0 217 95.5 A 3 3 0 0 0 220 98.5 A 3 3 0 0 0 223 95.5 A 3 3 0 0 0 220 92.5 Z M 132 161.5  A 3 3 0 0 0 129 164.5 A 3 3 0 0 0 132 167.5 A 3 3 0 0 0 135 164.5 A 3 3 0 0 0 132 161.5 Z " fill-rule="nonzero" fill="#000000" stroke="none" />
</svg>