<?xml version="1.0" encoding="utf-8"?>
<svg version="1.1" xmlns:xlink="http://www.w3.org/1999/xlink" width="47px" height="10px" preserveAspectRatio="xMinYMid meet" viewBox="139 159  47 8" xmlns="http://www.w3.org/2000/svg">
  <path d="M 222 95.5  L 186 95.5  A 5 5 0 0 0 181.5 100.5 L 181.5 158  A 5 5 0 0 1 176.5 163.5 L 140 163.5  " stroke-width="1" stroke="#000000" fill="none" />
  <path d="M 220 92.5  A 3 3 0 0 0 217 95.5 A 3 3 0 0 0 220 98.5 A 3 3 0 0 0 223 95.5 A 3 3 0 0 0 220 92.5 Z M 142 160.5  A 3 3 0 0 0 139 163.5 A 3 3 0 0 0 142 166.5 A 3 3 0 0 0 145 163.5 A 3 3 0 0 0 142 160.5 Z " fill-rule="nonzero" fill="#000000" stroke="none" />
</svg>