<?xml version="1.0" encoding="utf-8"?>
<svg version="1.1" xmlns:xlink="http://www.w3.org/1999/xlink" width="10px" height="15px" preserveAspectRatio="xMidYMin meet" viewBox="183 670  8 15" xmlns="http://www.w3.org/2000/svg">
  <path d="M 187.5 685  L 187.5 680  A 5 5 0 0 0 182.5 675.5 L 95 675.5  A 5 5 0 0 1 90.5 670.5 L 90.5 487  A 1 1 0 0 0 89.5 486.5 L 89 486.5  " stroke-width="1" stroke="#000000" fill="none" />
  <path d="M 90.5 484.429203673205  A 3 3 0 0 0 87.5 487.429203673205 A 3 3 0 0 0 90.5 490.429203673205 A 3 3 0 0 0 93.5 487.429203673205 A 3 3 0 0 0 90.5 484.429203673205 Z " fill-rule="nonzero" fill="#000000" stroke="none" />
</svg>