<?xml version="1.0" encoding="utf-8"?>
<svg version="1.1" xmlns:xlink="http://www.w3.org/1999/xlink" width="18px" height="18px" preserveAspectRatio="xMinYMid meet" viewBox="319 86  18 16" xmlns="http://www.w3.org/2000/svg">
  <path d="M 649.5 695  L 649.5 671  A 5 5 0 0 0 644.5 666.5 L 385 666.5  A 5 5 0 0 1 380.5 661.5 L 380.5 99  A 5 5 0 0 0 375.5 94.5 L 326 94.5  " stroke-width="1" stroke="#000000" fill="none" />
  <path d="M 328 91.5  A 3 3 0 0 0 325 94.5 A 3 3 0 0 0 328 97.5 A 3 3 0 0 0 331 94.5 A 3 3 0 0 0 328 91.5 Z " fill-rule="nonzero" fill="#000000" stroke="none" />
</svg>