<?xml version="1.0" encoding="utf-8"?>
<svg version="1.1" xmlns:xlink="http://www.w3.org/1999/xlink" width="10px" height="5px" preserveAspectRatio="xMinYMid meet" viewBox="981 41  10 3" xmlns="http://www.w3.org/2000/svg">
  <path d="M 958 116.5  L 966 116.5  A 5 5 0 0 0 971.5 111.5 L 971.5 44  A 5 5 0 0 1 976.5 39.5 L 985.5 39.5  A 0.5 0.5 0 0 1 986.5 40 L 986.5 40  " stroke-width="1" stroke="#000000" fill="none" />
  <path d="M 960 113.5  A 3 3 0 0 0 957 116.5 A 3 3 0 0 0 960 119.5 A 3 3 0 0 0 963 116.5 A 3 3 0 0 0 960 113.5 Z " fill-rule="nonzero" fill="#000000" stroke="none" />
</svg>