<?xml version="1.0" encoding="utf-8"?>
<svg version="1.1" xmlns:xlink="http://www.w3.org/1999/xlink" width="30px" height="10px" preserveAspectRatio="xMinYMid meet" viewBox="208 171  30 8" xmlns="http://www.w3.org/2000/svg">
  <path d="M 209 175.5  L 228 175.5  A 5 5 0 0 1 233.5 180.5 L 233.5 211  A 5 5 0 0 0 238 216.5 L 469 216.5  A 3 3 0 0 1 472 213.5 A 3 3 0 0 1 475 216.5 L 561 216.5  " stroke-width="1" stroke="#000000" fill="none" />
  <path d="M 211 172.5  A 3 3 0 0 0 208 175.5 A 3 3 0 0 0 211 178.5 A 3 3 0 0 0 214 175.5 A 3 3 0 0 0 211 172.5 Z " fill-rule="nonzero" fill="#000000" stroke="none" />
</svg>