<?xml version="1.0" encoding="utf-8"?>
<svg version="1.1" xmlns:xlink="http://www.w3.org/1999/xlink" width="76px" height="10px" preserveAspectRatio="xMinYMid meet" viewBox="384 247  76 8" xmlns="http://www.w3.org/2000/svg">
  <path d="M 389 251.5  L 455 251.5  " stroke-width="1" stroke-dasharray="17,8" stroke="#d7d7d7" fill="none" />
  <path d="M 387 248.5  A 3 3 0 0 0 384 251.5 A 3 3 0 0 0 387 254.5 A 3 3 0 0 0 390 251.5 A 3 3 0 0 0 387 248.5 Z M 387 249.5  A 2 2 0 0 1 389 251.5 A 2 2 0 0 1 387 253.5 A 2 2 0 0 1 385 251.5 A 2 2 0 0 1 387 249.5 Z " fill-rule="nonzero" fill="#d7d7d7" stroke="none" />
</svg>