<?xml version="1.0" encoding="utf-8"?>
<svg version="1.1" xmlns:xlink="http://www.w3.org/1999/xlink" width="20px" height="10px" preserveAspectRatio="xMinYMid meet" viewBox="1795 1095  20 8" xmlns="http://www.w3.org/2000/svg">
  <path d="M 1678.5 1102  L 1678.5 1095  A 5 5 0 0 1 1683.5 1090.5 L 1795.5 1090.5  A 4.5 4.5 0 0 1 1800.5 1095 A 4.5 4.5 0 0 0 1805 1099.5 L 1815 1099.5  " stroke-width="1" stroke="#333333" fill="none" />
  <path d="M 1678.5 1097  A 3 3 0 0 0 1675.5 1100 A 3 3 0 0 0 1678.5 1103 A 3 3 0 0 0 1681.5 1100 A 3 3 0 0 0 1678.5 1097 Z " fill-rule="nonzero" fill="#333333" stroke="none" />
</svg>