<?xml version="1.0" encoding="utf-8"?>
<svg version="1.1" xmlns:xlink="http://www.w3.org/1999/xlink" width="10px" height="85px" preserveAspectRatio="xMidYMin meet" viewBox="1477 401  8 85" xmlns="http://www.w3.org/2000/svg">
  <path d="M 1242.5 372  L 1242.5 401  A 5 5 0 0 0 1247.5 406.5 L 1476 406.5  A 5 5 0 0 1 1481.5 411.5 L 1481.5 476  A 5 5 0 0 0 1486.5 481.5 L 1491 481.5  " stroke-width="1" stroke="#000000" fill="none" />
  <path d="M 1242.5 371  A 3 3 0 0 0 1239.5 374 A 3 3 0 0 0 1242.5 377 A 3 3 0 0 0 1245.5 374 A 3 3 0 0 0 1242.5 371 Z " fill-rule="nonzero" fill="#000000" stroke="none" />
</svg>