<?xml version="1.0" encoding="utf-8"?>
<svg version="1.1" xmlns:xlink="http://www.w3.org/1999/xlink" width="12px" height="12px" viewBox="1475 911  12 12" xmlns="http://www.w3.org/2000/svg">
  <path d="M 1481 911  C 1484.36 911  1487 913.64  1487 917  C 1487 920.36  1484.36 923  1481 923  C 1477.64 923  1475 920.36  1475 917  C 1475 913.64  1477.64 911  1481 911  Z " fill-rule="nonzero" fill="#f0f0f0" stroke="none" />
  <path d="M 1481 911.5  C 1484.08 911.5  1486.5 913.92  1486.5 917  C 1486.5 920.08  1484.08 922.5  1481 922.5  C 1477.92 922.5  1475.5 920.08  1475.5 917  C 1475.5 913.92  1477.92 911.5  1481 911.5  Z " stroke-width="1" stroke="#797979" fill="none" />
  <path d="M 1481 920  C 1479.32 920  1478 918.68  1478 917  C 1478 915.32  1479.32 914  1481 914  C 1482.68 914  1484 915.32  1484 917  C 1484 918.68  1482.68 920  1481 920  " fill-rule="nonzero" fill="#797979" stroke="none" />
</svg>