<?xml version="1.0" encoding="utf-8"?>
<svg version="1.1" xmlns:xlink="http://www.w3.org/1999/xlink" width="12px" height="12px" viewBox="1375 911  12 12" xmlns="http://www.w3.org/2000/svg">
  <path d="M 1381 911  C 1384.36 911  1387 913.64  1387 917  C 1387 920.36  1384.36 923  1381 923  C 1377.64 923  1375 920.36  1375 917  C 1375 913.64  1377.64 911  1381 911  Z " fill-rule="nonzero" fill="#f0f0f0" stroke="none" />
  <path d="M 1381 911.5  C 1384.08 911.5  1386.5 913.92  1386.5 917  C 1386.5 920.08  1384.08 922.5  1381 922.5  C 1377.92 922.5  1375.5 920.08  1375.5 917  C 1375.5 913.92  1377.92 911.5  1381 911.5  Z " stroke-width="1" stroke="#797979" fill="none" />
  <path d="M 1381 920  C 1379.32 920  1378 918.68  1378 917  C 1378 915.32  1379.32 914  1381 914  C 1382.68 914  1384 915.32  1384 917  C 1384 918.68  1382.68 920  1381 920  " fill-rule="nonzero" fill="#797979" stroke="none" />
</svg>