<?xml version="1.0" encoding="utf-8"?>
<svg version="1.1" xmlns:xlink="http://www.w3.org/1999/xlink" width="12px" height="12px" viewBox="1302 266  12 12" xmlns="http://www.w3.org/2000/svg">
  <path d="M 1308 266  C 1311.36 266  1314 268.64  1314 272  C 1314 275.36  1311.36 278  1308 278  C 1304.64 278  1302 275.36  1302 272  C 1302 268.64  1304.64 266  1308 266  Z " fill-rule="nonzero" fill="#ffffff" stroke="none" />
  <path d="M 1308 266.5  C 1311.08 266.5  1313.5 268.92  1313.5 272  C 1313.5 275.08  1311.08 277.5  1308 277.5  C 1304.92 277.5  1302.5 275.08  1302.5 272  C 1302.5 268.92  1304.92 266.5  1308 266.5  Z " stroke-width="1" stroke="#797979" fill="none" />
  <path d="M 1308 275  C 1306.32 275  1305 273.68  1305 272  C 1305 270.32  1306.32 269  1308 269  C 1309.68 269  1311 270.32  1311 272  C 1311 273.68  1309.68 275  1308 275  " fill-rule="nonzero" fill="#797979" stroke="none" />
</svg>