<?xml version="1.0" encoding="utf-8"?>
<svg version="1.1" xmlns:xlink="http://www.w3.org/1999/xlink" width="12px" height="12px" viewBox="1375 266  12 12" xmlns="http://www.w3.org/2000/svg">
  <path d="M 1381 266  C 1384.36 266  1387 268.64  1387 272  C 1387 275.36  1384.36 278  1381 278  C 1377.64 278  1375 275.36  1375 272  C 1375 268.64  1377.64 266  1381 266  Z " fill-rule="nonzero" fill="#ffffff" stroke="none" />
  <path d="M 1381 266.5  C 1384.08 266.5  1386.5 268.92  1386.5 272  C 1386.5 275.08  1384.08 277.5  1381 277.5  C 1377.92 277.5  1375.5 275.08  1375.5 272  C 1375.5 268.92  1377.92 266.5  1381 266.5  Z " stroke-width="1" stroke="#797979" fill="none" />
  <path d="M 1381 275  C 1379.32 275  1378 273.68  1378 272  C 1378 270.32  1379.32 269  1381 269  C 1382.68 269  1384 270.32  1384 272  C 1384 273.68  1382.68 275  1381 275  " fill-rule="nonzero" fill="#797979" stroke="none" />
</svg>