<?xml version="1.0" encoding="utf-8"?>
<svg version="1.1" xmlns:xlink="http://www.w3.org/1999/xlink" width="12px" height="12px" viewBox="1302 356  12 12" xmlns="http://www.w3.org/2000/svg">
  <path d="M 1308 356  C 1311.36 356  1314 358.64  1314 362  C 1314 365.36  1311.36 368  1308 368  C 1304.64 368  1302 365.36  1302 362  C 1302 358.64  1304.64 356  1308 356  Z " fill-rule="nonzero" fill="#f0f0f0" stroke="none" />
  <path d="M 1308 356.5  C 1311.08 356.5  1313.5 358.92  1313.5 362  C 1313.5 365.08  1311.08 367.5  1308 367.5  C 1304.92 367.5  1302.5 365.08  1302.5 362  C 1302.5 358.92  1304.92 356.5  1308 356.5  Z " stroke-width="1" stroke="#797979" fill="none" />
  <path d="M 1308 365  C 1306.32 365  1305 363.68  1305 362  C 1305 360.32  1306.32 359  1308 359  C 1309.68 359  1311 360.32  1311 362  C 1311 363.68  1309.68 365  1308 365  " fill-rule="nonzero" fill="#797979" stroke="none" />
</svg>