<?xml version="1.0" encoding="utf-8"?>
<svg version="1.1" xmlns:xlink="http://www.w3.org/1999/xlink" width="12px" height="12px" viewBox="1475 266  12 12" xmlns="http://www.w3.org/2000/svg">
  <path d="M 1481 266  C 1484.36 266  1487 268.64  1487 272  C 1487 275.36  1484.36 278  1481 278  C 1477.64 278  1475 275.36  1475 272  C 1475 268.64  1477.64 266  1481 266  Z " fill-rule="nonzero" fill="#f0f0f0" stroke="none" />
  <path d="M 1481 266.5  C 1484.08 266.5  1486.5 268.92  1486.5 272  C 1486.5 275.08  1484.08 277.5  1481 277.5  C 1477.92 277.5  1475.5 275.08  1475.5 272  C 1475.5 268.92  1477.92 266.5  1481 266.5  Z " stroke-width="1" stroke="#797979" fill="none" />
  <path d="M 1481 275  C 1479.32 275  1478 273.68  1478 272  C 1478 270.32  1479.32 269  1481 269  C 1482.68 269  1484 270.32  1484 272  C 1484 273.68  1482.68 275  1481 275  " fill-rule="nonzero" fill="#797979" stroke="none" />
</svg>