<?xml version="1.0" encoding="utf-8"?>
<svg version="1.1" xmlns:xlink="http://www.w3.org/1999/xlink" width="12px" height="12px" viewBox="1302 911  12 12" xmlns="http://www.w3.org/2000/svg">
  <path d="M 1308 911  C 1311.36 911  1314 913.64  1314 917  C 1314 920.36  1311.36 923  1308 923  C 1304.64 923  1302 920.36  1302 917  C 1302 913.64  1304.64 911  1308 911  Z " fill-rule="nonzero" fill="#ffffff" stroke="none" />
  <path d="M 1308 911.5  C 1311.08 911.5  1313.5 913.92  1313.5 917  C 1313.5 920.08  1311.08 922.5  1308 922.5  C 1304.92 922.5  1302.5 920.08  1302.5 917  C 1302.5 913.92  1304.92 911.5  1308 911.5  Z " stroke-width="1" stroke="#797979" fill="none" />
  <path d="M 1308 920  C 1306.32 920  1305 918.68  1305 917  C 1305 915.32  1306.32 914  1308 914  C 1309.68 914  1311 915.32  1311 917  C 1311 918.68  1309.68 920  1308 920  " fill-rule="nonzero" fill="#797979" stroke="none" />
</svg>