<?xml version="1.0" encoding="utf-8"?>
<svg version="1.1" xmlns:xlink="http://www.w3.org/1999/xlink" width="301px" height="28px" xmlns="http://www.w3.org/2000/svg">
  <defs>
    <mask fill="white" id="clip1157">
      <path d="M 0 24  L 0 4  C 0 1.75999999999999  1.65549999999999 0  3.7625 0  L 297.2375 0  C 299.3445 0  301 1.75999999999999  301 4  L 301 24  C 301 26.24  299.3445 28  297.2375 28  L 167.224771341464 28  L 3.7625 28  C 1.65549999999999 28  0 26.24  0 24  Z " fill-rule="evenodd" />
    </mask>
  </defs>
  <g transform="matrix(1 0 0 1 -2123 -442 )">
    <path d="M 0 24  L 0 4  C 0 1.75999999999999  1.65549999999999 0  3.7625 0  L 297.2375 0  C 299.3445 0  301 1.75999999999999  301 4  L 301 24  C 301 26.24  299.3445 28  297.2375 28  L 167.224771341464 28  L 3.7625 28  C 1.65549999999999 28  0 26.24  0 24  Z " fill-rule="nonzero" fill="#ffffff" stroke="none" transform="matrix(1 0 0 1 2123 442 )" />
    <path d="M 0 24  L 0 4  C 0 1.75999999999999  1.65549999999999 0  3.7625 0  L 297.2375 0  C 299.3445 0  301 1.75999999999999  301 4  L 301 24  C 301 26.24  299.3445 28  297.2375 28  L 167.224771341464 28  L 3.7625 28  C 1.65549999999999 28  0 26.24  0 24  Z " stroke-width="2" stroke="#d9d9d9" fill="none" transform="matrix(1 0 0 1 2123 442 )" mask="url(#clip1157)" />
  </g>
</svg>