<?xml version="1.0" encoding="utf-8"?>
<svg version="1.1" xmlns:xlink="http://www.w3.org/1999/xlink" width="18px" height="18px" preserveAspectRatio="xMinYMid meet" viewBox="1910 108  18 16" xmlns="http://www.w3.org/2000/svg">
  <path d="M 1919.66512916106 118.518415909612  A 3 3 0 0 1 1922.5 116.5 L 1943 116.5  A 5 5 0 0 1 1948.5 121.5 L 1948.5 177.5  A 4.5 4.5 0 0 0 1953 182.5 L 1957 182.5  " stroke-width="1" stroke="#555555" fill="none" />
  <path d="M 1920.8790930824 113.975587045576  A 3 3 0 0 0 1917.8790930824 116.975587045576 A 3 3 0 0 0 1920.8790930824 119.975587045576 A 3 3 0 0 0 1923.8790930824 116.975587045576 A 3 3 0 0 0 1920.8790930824 113.975587045576 Z " fill-rule="nonzero" fill="#555555" stroke="none" />
</svg>