<?xml version="1.0" encoding="utf-8"?>
<svg version="1.1" xmlns:xlink="http://www.w3.org/1999/xlink" width="55px" height="10px" preserveAspectRatio="xMinYMid meet" viewBox="1842 178  55 8" xmlns="http://www.w3.org/2000/svg">
  <path d="M 1731.66512916106 118.518415909612  A 3 3 0 0 1 1734.5 116.5 L 1842 116.5  A 5 5 0 0 1 1847.5 121.5 L 1847.5 177  A 5 5 0 0 0 1852.5 182.5 L 1897 182.5  " stroke-width="1" stroke="#555555" fill="none" />
  <path d="M 1732.8790930824 113.975587045576  A 3 3 0 0 0 1729.8790930824 116.975587045576 A 3 3 0 0 0 1732.8790930824 119.975587045576 A 3 3 0 0 0 1735.8790930824 116.975587045576 A 3 3 0 0 0 1732.8790930824 113.975587045576 Z " fill-rule="nonzero" fill="#555555" stroke="none" />
</svg>