<?xml version="1.0" encoding="utf-8"?>
<svg version="1.1" xmlns:xlink="http://www.w3.org/1999/xlink" width="12px" height="12px" viewBox="2826 279  12 12" xmlns="http://www.w3.org/2000/svg">
  <path d="M 2832 279  C 2835.36 279  2838 281.64  2838 285  C 2838 288.36  2835.36 291  2832 291  C 2828.64 291  2826 288.36  2826 285  C 2826 281.64  2828.64 279  2832 279  Z " fill-rule="nonzero" fill="#f0f0f0" stroke="none" />
  <path d="M 2832 279.5  C 2835.08 279.5  2837.5 281.92  2837.5 285  C 2837.5 288.08  2835.08 290.5  2832 290.5  C 2828.92 290.5  2826.5 288.08  2826.5 285  C 2826.5 281.92  2828.92 279.5  2832 279.5  Z " stroke-width="1" stroke="#797979" fill="none" />
  <path d="M 2832 288  C 2830.32 288  2829 286.68  2829 285  C 2829 283.32  2830.32 282  2832 282  C 2833.68 282  2835 283.32  2835 285  C 2835 286.68  2833.68 288  2832 288  " fill-rule="nonzero" fill="#797979" stroke="none" />
</svg>