<?xml version="1.0" encoding="utf-8"?>
<svg version="1.1" xmlns:xlink="http://www.w3.org/1999/xlink" width="12px" height="12px" viewBox="2999 279  12 12" xmlns="http://www.w3.org/2000/svg">
  <path d="M 3005 279  C 3008.36 279  3011 281.64  3011 285  C 3011 288.36  3008.36 291  3005 291  C 3001.64 291  2999 288.36  2999 285  C 2999 281.64  3001.64 279  3005 279  Z " fill-rule="nonzero" fill="#f0f0f0" stroke="none" />
  <path d="M 3005 279.5  C 3008.08 279.5  3010.5 281.92  3010.5 285  C 3010.5 288.08  3008.08 290.5  3005 290.5  C 3001.92 290.5  2999.5 288.08  2999.5 285  C 2999.5 281.92  3001.92 279.5  3005 279.5  Z " stroke-width="1" stroke="#797979" fill="none" />
  <path d="M 3005 288  C 3003.32 288  3002 286.68  3002 285  C 3002 283.32  3003.32 282  3005 282  C 3006.68 282  3008 283.32  3008 285  C 3008 286.68  3006.68 288  3005 288  " fill-rule="nonzero" fill="#797979" stroke="none" />
</svg>