<?xml version="1.0" encoding="utf-8"?>
<svg version="1.1" xmlns:xlink="http://www.w3.org/1999/xlink" width="12px" height="12px" viewBox="2899 279  12 12" xmlns="http://www.w3.org/2000/svg">
  <path d="M 2905 279  C 2908.36 279  2911 281.64  2911 285  C 2911 288.36  2908.36 291  2905 291  C 2901.64 291  2899 288.36  2899 285  C 2899 281.64  2901.64 279  2905 279  Z " fill-rule="nonzero" fill="#f0f0f0" stroke="none" />
  <path d="M 2905 279.5  C 2908.08 279.5  2910.5 281.92  2910.5 285  C 2910.5 288.08  2908.08 290.5  2905 290.5  C 2901.92 290.5  2899.5 288.08  2899.5 285  C 2899.5 281.92  2901.92 279.5  2905 279.5  Z " stroke-width="1" stroke="#797979" fill="none" />
  <path d="M 2905 288  C 2903.32 288  2902 286.68  2902 285  C 2902 283.32  2903.32 282  2905 282  C 2906.68 282  2908 283.32  2908 285  C 2908 286.68  2906.68 288  2905 288  " fill-rule="nonzero" fill="#797979" stroke="none" />
</svg>