<?xml version="1.0" encoding="utf-8"?>
<svg version="1.1" xmlns:xlink="http://www.w3.org/1999/xlink" width="255px" height="28px" xmlns="http://www.w3.org/2000/svg">
  <defs>
    <mask fill="white" id="clip1470">
      <path d="M 0 24  L 0 4  C 0 1.75999999999999  1.40249999999999 0  3.1875 0  L 251.8125 0  C 253.5975 0  255 1.75999999999999  255 4  L 255 24  C 255 26.24  253.5975 28  251.8125 28  L 141.668826219512 28  L 3.1875 28  C 1.40249999999999 28  0 26.24  0 24  Z " fill-rule="evenodd" />
    </mask>
  </defs>
  <g transform="matrix(1 0 0 1 -1087 -209 )">
    <path d="M 0 24  L 0 4  C 0 1.75999999999999  1.40249999999999 0  3.1875 0  L 251.8125 0  C 253.5975 0  255 1.75999999999999  255 4  L 255 24  C 255 26.24  253.5975 28  251.8125 28  L 141.668826219512 28  L 3.1875 28  C 1.40249999999999 28  0 26.24  0 24  Z " fill-rule="nonzero" fill="#ffffff" stroke="none" transform="matrix(1 0 0 1 1087 209 )" />
    <path d="M 0 24  L 0 4  C 0 1.75999999999999  1.40249999999999 0  3.1875 0  L 251.8125 0  C 253.5975 0  255 1.75999999999999  255 4  L 255 24  C 255 26.24  253.5975 28  251.8125 28  L 141.668826219512 28  L 3.1875 28  C 1.40249999999999 28  0 26.24  0 24  Z " stroke-width="2" stroke="#d9d9d9" fill="none" transform="matrix(1 0 0 1 1087 209 )" mask="url(#clip1470)" />
  </g>
</svg>