<?xml version="1.0" encoding="utf-8"?>
<svg version="1.1" xmlns:xlink="http://www.w3.org/1999/xlink" width="12px" height="12px" viewBox="620 414  12 12" xmlns="http://www.w3.org/2000/svg">
  <path d="M 626 414  C 629.36 414  632 416.64  632 420  C 632 423.36  629.36 426  626 426  C 622.64 426  620 423.36  620 420  C 620 416.64  622.64 414  626 414  Z " fill-rule="nonzero" fill="#ffffff" stroke="none" />
  <path d="M 626 414.5  C 629.08 414.5  631.5 416.92  631.5 420  C 631.5 423.08  629.08 425.5  626 425.5  C 622.92 425.5  620.5 423.08  620.5 420  C 620.5 416.92  622.92 414.5  626 414.5  Z " stroke-width="1" stroke="#797979" fill="none" />
  <path d="M 626 423  C 624.32 423  623 421.68  623 420  C 623 418.32  624.32 417  626 417  C 627.68 417  629 418.32  629 420  C 629 421.68  627.68 423  626 423  " fill-rule="nonzero" fill="#797979" stroke="none" />
</svg>