<?xml version="1.0" encoding="utf-8"?>
<svg version="1.1" xmlns:xlink="http://www.w3.org/1999/xlink" width="12px" height="12px" viewBox="695 414  12 12" xmlns="http://www.w3.org/2000/svg">
  <path d="M 701 414  C 704.36 414  707 416.64  707 420  C 707 423.36  704.36 426  701 426  C 697.64 426  695 423.36  695 420  C 695 416.64  697.64 414  701 414  Z " fill-rule="nonzero" fill="#f0f0f0" stroke="none" />
  <path d="M 701 414.5  C 704.08 414.5  706.5 416.92  706.5 420  C 706.5 423.08  704.08 425.5  701 425.5  C 697.92 425.5  695.5 423.08  695.5 420  C 695.5 416.92  697.92 414.5  701 414.5  Z " stroke-width="1" stroke="#797979" fill="none" />
  <path d="M 701 423  C 699.32 423  698 421.68  698 420  C 698 418.32  699.32 417  701 417  C 702.68 417  704 418.32  704 420  C 704 421.68  702.68 423  701 423  " fill-rule="nonzero" fill="#797979" stroke="none" />
</svg>