<?xml version="1.0" encoding="utf-8"?>
<svg version="1.1" xmlns:xlink="http://www.w3.org/1999/xlink" width="12px" height="12px" viewBox="1164 369  12 12" xmlns="http://www.w3.org/2000/svg">
  <path d="M 1170 369  C 1173.36 369  1176 371.64  1176 375  C 1176 378.36  1173.36 381  1170 381  C 1166.64 381  1164 378.36  1164 375  C 1164 371.64  1166.64 369  1170 369  Z " fill-rule="nonzero" fill="#f0f0f0" stroke="none" />
  <path d="M 1170 369.5  C 1173.08 369.5  1175.5 371.92  1175.5 375  C 1175.5 378.08  1173.08 380.5  1170 380.5  C 1166.92 380.5  1164.5 378.08  1164.5 375  C 1164.5 371.92  1166.92 369.5  1170 369.5  Z " stroke-width="1" stroke="#797979" fill="none" />
  <path d="M 1170 378  C 1168.32 378  1167 376.68  1167 375  C 1167 373.32  1168.32 372  1170 372  C 1171.68 372  1173 373.32  1173 375  C 1173 376.68  1171.68 378  1170 378  " fill-rule="nonzero" fill="#797979" stroke="none" />
</svg>