<?xml version="1.0" encoding="utf-8"?>
<svg version="1.1" xmlns:xlink="http://www.w3.org/1999/xlink" width="12px" height="12px" viewBox="773 414  12 12" xmlns="http://www.w3.org/2000/svg">
  <path d="M 779 414  C 782.36 414  785 416.64  785 420  C 785 423.36  782.36 426  779 426  C 775.64 426  773 423.36  773 420  C 773 416.64  775.64 414  779 414  Z " fill-rule="nonzero" fill="#ffffff" stroke="none" />
  <path d="M 779 414.5  C 782.08 414.5  784.5 416.92  784.5 420  C 784.5 423.08  782.08 425.5  779 425.5  C 775.92 425.5  773.5 423.08  773.5 420  C 773.5 416.92  775.92 414.5  779 414.5  Z " stroke-width="1" stroke="#797979" fill="none" />
  <path d="M 779 423  C 777.32 423  776 421.68  776 420  C 776 418.32  777.32 417  779 417  C 780.68 417  782 418.32  782 420  C 782 421.68  780.68 423  779 423  " fill-rule="nonzero" fill="#797979" stroke="none" />
</svg>