<?xml version="1.0" encoding="utf-8"?>
<svg version="1.1" xmlns:xlink="http://www.w3.org/1999/xlink" width="18px" height="18px" preserveAspectRatio="xMinYMid meet" viewBox="350 149  18 16" xmlns="http://www.w3.org/2000/svg">
  <path d="M 359.5 159  L 359.5 155  A 5 5 0 0 1 364.5 150.5 L 1465 150.5  A 5 5 0 0 1 1470.5 155.5 L 1470.5 171  A 5 5 0 0 0 1475.5 176.5 L 1483 176.5  " stroke-width="1" stroke="#555555" fill="none" />
  <path d="M 359.5 154  A 3 3 0 0 0 356.5 157 A 3 3 0 0 0 359.5 160 A 3 3 0 0 0 362.5 157 A 3 3 0 0 0 359.5 154 Z " fill-rule="nonzero" fill="#555555" stroke="none" />
</svg>