<?xml version="1.0" encoding="utf-8"?>
<svg version="1.1" xmlns:xlink="http://www.w3.org/1999/xlink" width="14px" height="14px" xmlns="http://www.w3.org/2000/svg">
  <g transform="matrix(1 0 0 1 -582 -215 )">
    <path d="M 589 215  C 592.92 215  596 218.08  596 222  C 596 225.92  592.92 229  589 229  C 585.08 229  582 225.92  582 222  C 582 218.08  585.08 215  589 215  Z " fill-rule="nonzero" fill="#ffffff" stroke="none" />
    <path d="M 589 215.5  C 592.64 215.5  595.5 218.36  595.5 222  C 595.5 225.64  592.64 228.5  589 228.5  C 585.36 228.5  582.5 225.64  582.5 222  C 582.5 218.36  585.36 215.5  589 215.5  Z " stroke-width="1" stroke="#797979" fill="none" />
  </g>
</svg>