<?xml version="1.0" encoding="utf-8"?>
<svg version="1.1" xmlns:xlink="http://www.w3.org/1999/xlink" width="14px" height="14px" xmlns="http://www.w3.org/2000/svg">
  <g transform="matrix(1 0 0 1 -562 -215 )">
    <path d="M 569 215  C 572.92 215  576 218.08  576 222  C 576 225.92  572.92 229  569 229  C 565.08 229  562 225.92  562 222  C 562 218.08  565.08 215  569 215  Z " fill-rule="nonzero" fill="#ffffff" stroke="none" />
    <path d="M 569 215.5  C 572.64 215.5  575.5 218.36  575.5 222  C 575.5 225.64  572.64 228.5  569 228.5  C 565.36 228.5  562.5 225.64  562.5 222  C 562.5 218.36  565.36 215.5  569 215.5  Z " stroke-width="1" stroke="#797979" fill="none" />
  </g>
</svg>