<?xml version="1.0" encoding="utf-8"?>
<svg version="1.1" xmlns:xlink="http://www.w3.org/1999/xlink" width="82px" height="10px" preserveAspectRatio="xMinYMid meet" viewBox="203 736  82 8" xmlns="http://www.w3.org/2000/svg">
  <path d="M 264.5 299  L 264.5 285  A 5 5 0 0 1 269.5 280.5 L 275 280.5  A 5 5 0 0 1 280.5 285 L 280.5 709  A 3 3 0 0 1 283.5 712 A 3 3 0 0 1 280.5 715 L 280.5 735  A 5 5 0 0 1 275.5 740.5 L 203 740.5  " stroke-width="1" stroke="#000000" fill="none" />
  <path d="M 264.5 294  A 3 3 0 0 0 261.5 297 A 3 3 0 0 0 264.5 300 A 3 3 0 0 0 267.5 297 A 3 3 0 0 0 264.5 294 Z " fill-rule="nonzero" fill="#000000" stroke="none" />
</svg>