<?xml version="1.0" encoding="utf-8"?>
<svg version="1.1" xmlns:xlink="http://www.w3.org/1999/xlink" width="75px" height="10px" preserveAspectRatio="xMinYMid meet" viewBox="3210 526  75 8" xmlns="http://www.w3.org/2000/svg">
  <path d="M 3215.5 546  L 3215.5 535  A 5 5 0 0 1 3220.5 530.5 L 3275 530.5  A 5 5 0 0 1 3280.5 535.5 L 3280.5 618  A 5 5 0 0 0 3285.5 623.5 L 3293 623.5  " stroke-width="1" stroke="#333333" fill="none" />
  <path d="M 3215.5 541  A 3 3 0 0 0 3212.5 544 A 3 3 0 0 0 3215.5 547 A 3 3 0 0 0 3218.5 544 A 3 3 0 0 0 3215.5 541 Z " fill-rule="nonzero" fill="#333333" stroke="none" />
</svg>