<?xml version="1.0" encoding="utf-8"?>
<svg version="1.1" xmlns:xlink="http://www.w3.org/1999/xlink" width="16px" height="10px" preserveAspectRatio="xMinYMid meet" viewBox="3315 2364  16 8" xmlns="http://www.w3.org/2000/svg">
  <path d="M 3185.5 2375  L 3185.5 2365  A 5 5 0 0 1 3190.5 2360.5 L 3316 2360.5  A 4 4 0 0 1 3320.5 2364.5 A 4 4 0 0 0 3324.5 2368.5 L 3331 2368.5  " stroke-width="1" stroke="#333333" fill="none" />
  <path d="M 3185.5 2370  A 3 3 0 0 0 3182.5 2373 A 3 3 0 0 0 3185.5 2376 A 3 3 0 0 0 3188.5 2373 A 3 3 0 0 0 3185.5 2370 Z " fill-rule="nonzero" fill="#333333" stroke="none" />
</svg>