<?xml version="1.0" encoding="utf-8"?>
<svg version="1.1" xmlns:xlink="http://www.w3.org/1999/xlink" width="10px" height="15px" preserveAspectRatio="xMidYMin meet" viewBox="2893 1265  8 15" xmlns="http://www.w3.org/2000/svg">
  <path d="M 2897.5 1279  L 2897.5 1275  A 5 5 0 0 1 2902.5 1270.5 L 3005 1270.5  A 5 5 0 0 1 3010.5 1275.5 L 3010.5 1317  A 5 5 0 0 0 3015.5 1322.5 L 3023 1322.5  " stroke-width="1" stroke="#333333" fill="none" />
  <path d="M 2897.5 1274  A 3 3 0 0 0 2894.5 1277 A 3 3 0 0 0 2897.5 1280 A 3 3 0 0 0 2900.5 1277 A 3 3 0 0 0 2897.5 1274 Z " fill-rule="nonzero" fill="#333333" stroke="none" />
</svg>