<?xml version="1.0" encoding="utf-8"?>
<svg version="1.1" xmlns:xlink="http://www.w3.org/1999/xlink" width="22px" height="10px" preserveAspectRatio="xMinYMid meet" viewBox="3015 2131  22 8" xmlns="http://www.w3.org/2000/svg">
  <path d="M 2862.5 2111  L 2862.5 2105  A 5 5 0 0 1 2867.5 2100.5 L 3015 2100.5  A 5 5 0 0 1 3020.5 2105.5 L 3020.5 2130  A 5 5 0 0 0 3025.5 2135.5 L 3037 2135.5  " stroke-width="1" stroke="#333333" fill="none" />
  <path d="M 2862.5 2106  A 3 3 0 0 0 2859.5 2109 A 3 3 0 0 0 2862.5 2112 A 3 3 0 0 0 2865.5 2109 A 3 3 0 0 0 2862.5 2106 Z " fill-rule="nonzero" fill="#333333" stroke="none" />
</svg>