<?xml version="1.0" encoding="utf-8"?>
<svg version="1.1" xmlns:xlink="http://www.w3.org/1999/xlink" width="336px" height="31px" xmlns="http://www.w3.org/2000/svg">
  <defs>
    <mask fill="white" id="clip126">
      <path d="M 0 29  L 0 2  C 0 0.879999999999995  0.879999999999995 0  2 0  L 334 0  C 335.12 0  336 0.879999999999995  336 2  L 336 29  C 336 30.12  335.12 31  334 31  L 55.8253968253968 31  L 2 31  C 0.879999999999995 31  0 30.12  0 29  Z " fill-rule="evenodd" />
    </mask>
  </defs>
  <g transform="matrix(1 0 0 1 -341 -523 )">
    <path d="M 0 29  L 0 2  C 0 0.879999999999995  0.879999999999995 0  2 0  L 334 0  C 335.12 0  336 0.879999999999995  336 2  L 336 29  C 336 30.12  335.12 31  334 31  L 55.8253968253968 31  L 2 31  C 0.879999999999995 31  0 30.12  0 29  Z " fill-rule="nonzero" fill="#aaaaaa" stroke="none" transform="matrix(1 0 0 1 341 523 )" />
    <path d="M 0 29  L 0 2  C 0 0.879999999999995  0.879999999999995 0  2 0  L 334 0  C 335.12 0  336 0.879999999999995  336 2  L 336 29  C 336 30.12  335.12 31  334 31  L 55.8253968253968 31  L 2 31  C 0.879999999999995 31  0 30.12  0 29  Z " stroke-width="2" stroke="#797979" fill="none" transform="matrix(1 0 0 1 341 523 )" mask="url(#clip126)" />
  </g>
</svg>