<?xml version="1.0" encoding="utf-8"?>
<svg version="1.1" xmlns:xlink="http://www.w3.org/1999/xlink" width="8px" height="8px" xmlns="http://www.w3.org/2000/svg">
  <g transform="matrix(1 0 0 1 -2336 -7632 )">
    <path d="M 2340 7633  C 2341.68 7633  2343 7634.32  2343 7636  C 2343 7637.68  2341.68 7639  2340 7639  C 2338.32 7639  2337 7637.68  2337 7636  C 2337 7634.32  2338.32 7633  2340 7633  Z " fill-rule="nonzero" fill="#ffffff" stroke="none" />
    <path d="M 2340 7633  C 2341.68 7633  2343 7634.32  2343 7636  C 2343 7637.68  2341.68 7639  2340 7639  C 2338.32 7639  2337 7637.68  2337 7636  C 2337 7634.32  2338.32 7633  2340 7633  Z " stroke-width="2" stroke="#2db7f5" fill="none" />
  </g>
</svg>