<?xml version="1.0" encoding="utf-8"?>
<svg version="1.1" xmlns:xlink="http://www.w3.org/1999/xlink" width="8px" height="8px" xmlns="http://www.w3.org/2000/svg">
  <g transform="matrix(1 0 0 1 -2336 -7694 )">
    <path d="M 2340 7695  C 2341.68 7695  2343 7696.32  2343 7698  C 2343 7699.68  2341.68 7701  2340 7701  C 2338.32 7701  2337 7699.68  2337 7698  C 2337 7696.32  2338.32 7695  2340 7695  Z " fill-rule="nonzero" fill="#ffffff" stroke="none" />
    <path d="M 2340 7695  C 2341.68 7695  2343 7696.32  2343 7698  C 2343 7699.68  2341.68 7701  2340 7701  C 2338.32 7701  2337 7699.68  2337 7698  C 2337 7696.32  2338.32 7695  2340 7695  Z " stroke-width="2" stroke="#808bc6" fill="none" />
  </g>
</svg>