<?xml version="1.0" encoding="utf-8"?>
<svg version="1.1" xmlns:xlink="http://www.w3.org/1999/xlink" width="10px" height="13px" preserveAspectRatio="xMidYMin meet" viewBox="1450 425  8 13" xmlns="http://www.w3.org/2000/svg">
  <path d="M 1414.5 441  L 1414.5 435  A 5 5 0 0 1 1419.5 430.5 L 1452.5 430.5  A 1.5 1.5 0 0 1 1454.5 432 A 1.5 1.5 0 0 0 1456 433.5 L 1494 433.5  " stroke-width="1" stroke="#000000" fill="none" />
  <path d="M 1414.5 436  A 3 3 0 0 0 1411.5 439 A 3 3 0 0 0 1414.5 442 A 3 3 0 0 0 1417.5 439 A 3 3 0 0 0 1414.5 436 Z " fill-rule="nonzero" fill="#000000" stroke="none" />
</svg>