<?xml version="1.0" encoding="utf-8"?>
<svg version="1.1" xmlns:xlink="http://www.w3.org/1999/xlink" width="110px" height="10px" preserveAspectRatio="xMinYMid meet" viewBox="1285 716  110 8" xmlns="http://www.w3.org/2000/svg">
  <path d="M 1290.5 738  L 1290.5 725  A 5 5 0 0 1 1295.5 720.5 L 1385 720.5  A 5 5 0 0 1 1390.5 725.5 L 1390.5 923  A 5 5 0 0 0 1395.5 928.5 L 1494 928.5  " stroke-width="1" stroke="#000000" fill="none" />
  <path d="M 1290.5 733  A 3 3 0 0 0 1287.5 736 A 3 3 0 0 0 1290.5 739 A 3 3 0 0 0 1293.5 736 A 3 3 0 0 0 1290.5 733 Z " fill-rule="nonzero" fill="#000000" stroke="none" />
</svg>