<?xml version="1.0" encoding="utf-8"?>
<svg version="1.1" xmlns:xlink="http://www.w3.org/1999/xlink" width="10px" height="15px" preserveAspectRatio="xMidYMin meet" viewBox="1278 400  8 15" xmlns="http://www.w3.org/2000/svg">
  <path d="M 1282.5 414  L 1282.5 410  A 5 5 0 0 1 1287.5 405.5 L 1428 405.5  A 5 5 0 0 0 1433.5 400.5 L 1433.5 257  A 5 5 0 0 1 1438.5 252.5 L 1494 252.5  " stroke-width="1" stroke="#000000" fill="none" />
  <path d="M 1282.5 409  A 3 3 0 0 0 1279.5 412 A 3 3 0 0 0 1282.5 415 A 3 3 0 0 0 1285.5 412 A 3 3 0 0 0 1282.5 409 Z " fill-rule="nonzero" fill="#000000" stroke="none" />
</svg>