<?xml version="1.0" encoding="utf-8"?>
<svg version="1.1" xmlns:xlink="http://www.w3.org/1999/xlink" width="58px" height="10px" preserveAspectRatio="xMinYMid meet" viewBox="187 606  58 8" xmlns="http://www.w3.org/2000/svg">
  <path d="M 229.5 196  L 229.5 185  A 5 5 0 0 1 234.5 180.5 L 235 180.5  A 5 5 0 0 1 240.5 185.5 L 240.5 605  A 5 5 0 0 1 235.5 610.5 L 187 610.5  " stroke-width="1" stroke="#000000" fill="none" />
  <path d="M 229.5 191  A 3 3 0 0 0 226.5 194 A 3 3 0 0 0 229.5 197 A 3 3 0 0 0 232.5 194 A 3 3 0 0 0 229.5 191 Z " fill-rule="nonzero" fill="#000000" stroke="none" />
</svg>