<?xml version="1.0" encoding="utf-8"?>
<svg version="1.1" xmlns:xlink="http://www.w3.org/1999/xlink" width="15px" height="10px" preserveAspectRatio="xMinYMid meet" viewBox="1520 180  15 8" xmlns="http://www.w3.org/2000/svg">
  <path d="M 1505.5 506  L 1505.5 502  A 5 5 0 0 1 1510.5 497.5 L 1520 497.5  A 5 5 0 0 0 1525.5 492.5 L 1525.5 189  A 5 5 0 0 1 1530.5 184.5 L 1535 184.5  " stroke-width="1" stroke="#000000" fill="none" />
  <path d="M 1505.5 501  A 3 3 0 0 0 1502.5 504 A 3 3 0 0 0 1505.5 507 A 3 3 0 0 0 1508.5 504 A 3 3 0 0 0 1505.5 501 Z " fill-rule="nonzero" fill="#000000" stroke="none" />
</svg>