<?xml version="1.0" encoding="utf-8"?>
<svg version="1.1" xmlns:xlink="http://www.w3.org/1999/xlink" width="10px" height="29px" preserveAspectRatio="xMidYMin meet" viewBox="305 235  8 29" xmlns="http://www.w3.org/2000/svg">
  <path d="M 309.5 263  L 309.5 245  A 5 5 0 0 1 314.5 240.5 L 315 240.5  A 5 5 0 0 1 320.5 245.5 L 320.5 707  A 5 5 0 0 1 315.5 712.5 L 203 712.5  " stroke-width="1" stroke="#000000" fill="none" />
  <path d="M 309.5 258  A 3 3 0 0 0 306.5 261 A 3 3 0 0 0 309.5 264 A 3 3 0 0 0 312.5 261 A 3 3 0 0 0 309.5 258 Z " fill-rule="nonzero" fill="#000000" stroke="none" />
</svg>