<?xml version="1.0" encoding="utf-8"?>
<svg version="1.1" xmlns:xlink="http://www.w3.org/1999/xlink" width="24px" height="10px" preserveAspectRatio="xMinYMid meet" viewBox="221 230  24 8" xmlns="http://www.w3.org/2000/svg">
  <path d="M 226.599667110794 230.493346653975  A 5 5 0 0 0 231.5 234.5 L 235 234.5  A 5 5 0 0 1 240.5 239 L 240.5 607  A 3 3 0 0 1 243.5 610 A 3 3 0 0 1 240.5 613 L 240.5 648  A 5 5 0 0 1 235.5 653.5 L 206 653.5  " stroke-width="1" stroke="#000000" fill="none" />
  <path d="M 227.373321925452 229.323212366975  A 3 3 0 0 0 224.373321925452 232.323212366975 A 3 3 0 0 0 227.373321925452 235.323212366975 A 3 3 0 0 0 230.373321925452 232.323212366975 A 3 3 0 0 0 227.373321925452 229.323212366975 Z " fill-rule="nonzero" fill="#000000" stroke="none" />
</svg>