<?xml version="1.0" encoding="utf-8"?>
<svg version="1.1" xmlns:xlink="http://www.w3.org/1999/xlink" width="10px" height="7px" preserveAspectRatio="xMinYMid meet" viewBox="91 594  10 5" xmlns="http://www.w3.org/2000/svg">
  <path d="M 55.5 181  L 55.5 531  A 3 3 0 0 1 58.5 534 A 3 3 0 0 1 55.5 537 L 55.5 590  A 5 5 0 0 0 60.5 595.5 L 95 595.5  A 1 1 0 0 0 96.5 594.5 L 96.5 593  " stroke-width="1" stroke="#000000" fill="none" />
  <path d="M 55.5 180  A 3 3 0 0 0 52.5 183 A 3 3 0 0 0 55.5 186 A 3 3 0 0 0 58.5 183 A 3 3 0 0 0 55.5 180 Z " fill-rule="nonzero" fill="#000000" stroke="none" />
</svg>