<?xml version="1.0" encoding="utf-8"?>
<svg version="1.1" xmlns:xlink="http://www.w3.org/1999/xlink" width="111px" height="10px" preserveAspectRatio="xMinYMid meet" viewBox="203 736  111 8" xmlns="http://www.w3.org/2000/svg">
  <path d="M 281.665129161056 299.518415909612  A 3 3 0 0 1 284.5 297.5 L 304 297.5  A 5 5 0 0 1 309.5 302 L 309.5 709  A 3 3 0 0 1 312.5 712 A 3 3 0 0 1 309.5 715 L 309.5 735  A 5 5 0 0 1 304.5 740.5 L 203 740.5  " stroke-width="1" stroke="#000000" fill="none" />
  <path d="M 282.879093082396 294.975587045576  A 3 3 0 0 0 279.879093082396 297.975587045576 A 3 3 0 0 0 282.879093082396 300.975587045576 A 3 3 0 0 0 285.879093082396 297.975587045576 A 3 3 0 0 0 282.879093082396 294.975587045576 Z " fill-rule="nonzero" fill="#000000" stroke="none" />
</svg>