<?xml version="1.0" encoding="utf-8"?>
<svg version="1.1" xmlns:xlink="http://www.w3.org/1999/xlink" width="27px" height="10px" preserveAspectRatio="xMinYMid meet" viewBox="208 206  27 8" xmlns="http://www.w3.org/2000/svg">
  <path d="M 213.5 229  L 213.5 215.5  A 5 5 0 0 1 218.5 210.5 L 225.5 210.5  A 5 5 0 0 1 230.5 215.5 L 230.5 648.5  A 5 5 0 0 1 225.5 653.5 L 206 653.5  " stroke-width="1" stroke="#000000" fill="none" />
  <path d="M 213.5 224  A 3 3 0 0 0 210.5 227 A 3 3 0 0 0 213.5 230 A 3 3 0 0 0 216.5 227 A 3 3 0 0 0 213.5 224 Z " fill-rule="nonzero" fill="#000000" stroke="none" />
</svg>