<?xml version="1.0" encoding="utf-8"?>
<svg version="1.1" xmlns:xlink="http://www.w3.org/1999/xlink" width="18px" height="18px" preserveAspectRatio="xMinYMid meet" viewBox="1233 735  18 16" xmlns="http://www.w3.org/2000/svg">
  <path d="M 1242.66512916106 741.481584090388  A 3 3 0 0 0 1245.5 743.5 L 1470 743.5  A 5 5 0 0 1 1475.5 748.5 L 1475.5 855  A 5 5 0 0 0 1480.5 860.5 L 1485 860.5  " stroke-width="1" stroke="#555555" fill="none" />
  <path d="M 1243.8790930824 740.024412954424  A 3 3 0 0 0 1240.8790930824 743.024412954424 A 3 3 0 0 0 1243.8790930824 746.024412954424 A 3 3 0 0 0 1246.8790930824 743.024412954424 A 3 3 0 0 0 1243.8790930824 740.024412954424 Z " fill-rule="nonzero" fill="#555555" stroke="none" />
</svg>