<?xml version="1.0" encoding="utf-8"?>
<svg version="1.1" xmlns:xlink="http://www.w3.org/1999/xlink" width="14px" height="14px" xmlns="http://www.w3.org/2000/svg">
  <g transform="matrix(1 0 0 1 -565 -215 )">
    <path d="M 572 215  C 575.92 215  579 218.08  579 222  C 579 225.92  575.92 229  572 229  C 568.08 229  565 225.92  565 222  C 565 218.08  568.08 215  572 215  Z " fill-rule="nonzero" fill="#ffffff" stroke="none" />
    <path d="M 572 215.5  C 575.64 215.5  578.5 218.36  578.5 222  C 578.5 225.64  575.64 228.5  572 228.5  C 568.36 228.5  565.5 225.64  565.5 222  C 565.5 218.36  568.36 215.5  572 215.5  Z " stroke-width="1" stroke="#797979" fill="none" />
  </g>
</svg>