<?xml version="1.0" encoding="utf-8"?>
<svg version="1.1" xmlns:xlink="http://www.w3.org/1999/xlink" width="15px" height="10px" preserveAspectRatio="xMinYMid meet" viewBox="1479 225  15 8" xmlns="http://www.w3.org/2000/svg">
  <path d="M 1282.5 414  L 1282.5 343  A 5 5 0 0 1 1287.5 338.5 L 1479 338.5  A 5 5 0 0 0 1484.5 333.5 L 1484.5 234  A 5 5 0 0 1 1489.5 229.5 L 1494 229.5  " stroke-width="1" stroke="#000000" fill="none" />
  <path d="M 1282.5 409  A 3 3 0 0 0 1279.5 412 A 3 3 0 0 0 1282.5 415 A 3 3 0 0 0 1285.5 412 A 3 3 0 0 0 1282.5 409 Z " fill-rule="nonzero" fill="#000000" stroke="none" />
</svg>