<?xml version="1.0" encoding="utf-8"?>
<svg version="1.1" xmlns:xlink="http://www.w3.org/1999/xlink" width="15px" height="10px" preserveAspectRatio="xMinYMid meet" viewBox="1996 344  15 8" xmlns="http://www.w3.org/2000/svg">
  <path d="M 1802.62435031316 308.510384162982  A 4 4 0 0 1 1806.5 305.5 L 1996 305.5  A 5 5 0 0 1 2001.5 310.5 L 2001.5 343  A 5 5 0 0 0 2006.5 348.5 L 2011 348.5  " stroke-width="1" stroke="#000000" fill="none" />
  <path d="M 1803.5732445245 303.773444959907  A 3 3 0 0 0 1800.5732445245 306.773444959907 A 3 3 0 0 0 1803.5732445245 309.773444959907 A 3 3 0 0 0 1806.5732445245 306.773444959907 A 3 3 0 0 0 1803.5732445245 303.773444959907 Z " fill-rule="nonzero" fill="#000000" stroke="none" />
</svg>