<?xml version="1.0" encoding="utf-8"?>
<svg version="1.1" xmlns:xlink="http://www.w3.org/1999/xlink" width="10px" height="6px" preserveAspectRatio="xMinYMid meet" viewBox="1421 394  10 4" xmlns="http://www.w3.org/2000/svg">
  <path d="M 1426.95969769413 394.341470984808  A 1 1 0 0 0 1427.5 394.5 L 1468 394.5  A 5 5 0 0 1 1473.5 399.5 L 1473.5 403  A 5 5 0 0 0 1478.5 408.5 L 1483 408.5  " stroke-width="1" stroke="#555555" fill="none" />
  <path d="M 1428.42920367321 391.5  A 3 3 0 0 0 1425.42920367321 394.5 A 3 3 0 0 0 1428.42920367321 397.5 A 3 3 0 0 0 1431.42920367321 394.5 A 3 3 0 0 0 1428.42920367321 391.5 Z " fill-rule="nonzero" fill="#555555" stroke="none" />
</svg>