<?xml version="1.0" encoding="utf-8"?>
<svg version="1.1" xmlns:xlink="http://www.w3.org/1999/xlink" width="10px" height="7px" preserveAspectRatio="xMinYMid meet" viewBox="724 224  10 5" xmlns="http://www.w3.org/2000/svg">
  <path d="M 729.255165123781 229.541148922792  A 2 2 0 0 0 727.5 228.5 L 589 228.5  A 5 5 0 0 1 584.5 223.5 L 584.5 201  A 5 5 0 0 0 579.5 196.5 L 574 196.5  " stroke-width="1" stroke="#000000" fill="none" />
  <path d="M 727.641474403335 225.505010026792  A 3 3 0 0 0 724.641474403335 228.505010026792 A 3 3 0 0 0 727.641474403335 231.505010026792 A 3 3 0 0 0 730.641474403335 228.505010026792 A 3 3 0 0 0 727.641474403335 225.505010026792 Z " fill-rule="nonzero" fill="#000000" stroke="none" />
</svg>