<?xml version="1.0" encoding="utf-8"?>
<svg version="1.1" xmlns:xlink="http://www.w3.org/1999/xlink" width="185px" height="10px" preserveAspectRatio="xMinYMid meet" viewBox="1658 562  185 8" xmlns="http://www.w3.org/2000/svg">
  <path d="M 1838.5 530  L 1838.5 561  A 5 5 0 0 1 1833 566.5 L 1774 566.5  A 3 3 0 0 0 1771 563.5 A 3 3 0 0 0 1768 566.5 L 1658 566.5  " stroke-width="1" stroke="#000000" fill="none" />
  <path d="M 1838.5 529  A 3 3 0 0 0 1835.5 532 A 3 3 0 0 0 1838.5 535 A 3 3 0 0 0 1841.5 532 A 3 3 0 0 0 1838.5 529 Z " fill-rule="nonzero" fill="#000000" stroke="none" />
</svg>