<?xml version="1.0" encoding="utf-8"?>
<svg version="1.1" xmlns:xlink="http://www.w3.org/1999/xlink" width="320px" height="28px" xmlns="http://www.w3.org/2000/svg">
  <defs>
    <mask fill="white" id="clip1065">
      <path d="M 0 24  L 0 4  C 0 1.75999999999999  1.75999999999999 0  4 0  L 316 0  C 318.24 0  320 1.75999999999999  320 4  L 320 24  C 320 26.24  318.24 28  316 28  L 177.780487804878 28  L 4 28  C 1.75999999999999 28  0 26.24  0 24  Z " fill-rule="evenodd" />
    </mask>
  </defs>
  <g transform="matrix(1 0 0 1 -1653 -312 )">
    <path d="M 0 24  L 0 4  C 0 1.75999999999999  1.75999999999999 0  4 0  L 316 0  C 318.24 0  320 1.75999999999999  320 4  L 320 24  C 320 26.24  318.24 28  316 28  L 177.780487804878 28  L 4 28  C 1.75999999999999 28  0 26.24  0 24  Z " fill-rule="nonzero" fill="#d7d7d7" stroke="none" transform="matrix(1 0 0 1 1653 312 )" />
    <path d="M 0 24  L 0 4  C 0 1.75999999999999  1.75999999999999 0  4 0  L 316 0  C 318.24 0  320 1.75999999999999  320 4  L 320 24  C 320 26.24  318.24 28  316 28  L 177.780487804878 28  L 4 28  C 1.75999999999999 28  0 26.24  0 24  Z " stroke-width="2" stroke="#d9d9d9" fill="none" transform="matrix(1 0 0 1 1653 312 )" mask="url(#clip1065)" />
  </g>
</svg>