<?xml version="1.0" encoding="utf-8"?>
<svg version="1.1" xmlns:xlink="http://www.w3.org/1999/xlink" width="10px" height="72px" preserveAspectRatio="xMidYMin meet" viewBox="2046 585  8 72" xmlns="http://www.w3.org/2000/svg">
  <path d="M 1974.5 601  L 1974.5 595  A 5 5 0 0 1 1979.5 590.5 L 2045 590.5  A 5 5 0 0 1 2050.5 595.5 L 2050.5 647  A 5 5 0 0 0 2055.5 652.5 L 2061 652.5  " stroke-width="1" stroke="#333333" fill="none" />
  <path d="M 1974.5 596  A 3 3 0 0 0 1971.5 599 A 3 3 0 0 0 1974.5 602 A 3 3 0 0 0 1977.5 599 A 3 3 0 0 0 1974.5 596 Z " fill-rule="nonzero" fill="#333333" stroke="none" />
</svg>