<?xml version="1.0" encoding="utf-8"?>
<svg version="1.1" xmlns:xlink="http://www.w3.org/1999/xlink" width="10px" height="19px" preserveAspectRatio="xMidYMin meet" viewBox="1672 1305  8 19" xmlns="http://www.w3.org/2000/svg">
  <path d="M 1676.5 1323  L 1676.5 1315  A 5 5 0 0 1 1681.5 1310.5 L 1797 1310.5  A 3 3 0 0 1 1800.5 1313.5 A 3 3 0 0 0 1803.5 1316.5 L 1815 1316.5  " stroke-width="1" stroke="#333333" fill="none" />
  <path d="M 1676.5 1318  A 3 3 0 0 0 1673.5 1321 A 3 3 0 0 0 1676.5 1324 A 3 3 0 0 0 1679.5 1321 A 3 3 0 0 0 1676.5 1318 Z " fill-rule="nonzero" fill="#333333" stroke="none" />
</svg>