<?xml version="1.0" encoding="utf-8"?>
<svg version="1.1" xmlns:xlink="http://www.w3.org/1999/xlink" width="8px" height="8px" xmlns="http://www.w3.org/2000/svg">
  <g transform="matrix(1 0 0 1 -902 -2623 )">
    <path d="M 906 2624  C 907.68 2624  909 2625.32  909 2627  C 909 2628.68  907.68 2630  906 2630  C 904.32 2630  903 2628.68  903 2627  C 903 2625.32  904.32 2624  906 2624  Z " fill-rule="nonzero" fill="#ffffff" stroke="none" />
    <path d="M 906 2624  C 907.68 2624  909 2625.32  909 2627  C 909 2628.68  907.68 2630  906 2630  C 904.32 2630  903 2628.68  903 2627  C 903 2625.32  904.32 2624  906 2624  Z " stroke-width="2" stroke="#2db7f5" fill="none" />
  </g>
</svg>