<?xml version="1.0" encoding="utf-8"?>
<svg version="1.1" xmlns:xlink="http://www.w3.org/1999/xlink" width="8px" height="8px" xmlns="http://www.w3.org/2000/svg">
  <g transform="matrix(1 0 0 1 -902 -2685 )">
    <path d="M 906 2686  C 907.68 2686  909 2687.32  909 2689  C 909 2690.68  907.68 2692  906 2692  C 904.32 2692  903 2690.68  903 2689  C 903 2687.32  904.32 2686  906 2686  Z " fill-rule="nonzero" fill="#ffffff" stroke="none" />
    <path d="M 906 2686  C 907.68 2686  909 2687.32  909 2689  C 909 2690.68  907.68 2692  906 2692  C 904.32 2692  903 2690.68  903 2689  C 903 2687.32  904.32 2686  906 2686  Z " stroke-width="2" stroke="#808bc6" fill="none" />
  </g>
</svg>