<?xml version="1.0" encoding="utf-8"?>
<svg version="1.1" xmlns:xlink="http://www.w3.org/1999/xlink" width="12px" height="12px" viewBox="1344 191  12 12" xmlns="http://www.w3.org/2000/svg">
  <path d="M 1350 191  C 1353.36 191  1356 193.64  1356 197  C 1356 200.36  1353.36 203  1350 203  C 1346.64 203  1344 200.36  1344 197  C 1344 193.64  1346.64 191  1350 191  Z " fill-rule="nonzero" fill="#ffffff" stroke="none" />
  <path d="M 1350 191.5  C 1353.08 191.5  1355.5 193.92  1355.5 197  C 1355.5 200.08  1353.08 202.5  1350 202.5  C 1346.92 202.5  1344.5 200.08  1344.5 197  C 1344.5 193.92  1346.92 191.5  1350 191.5  Z " stroke-width="1" stroke="#797979" fill="none" />
  <path d="M 1350 200  C 1348.32 200  1347 198.68  1347 197  C 1347 195.32  1348.32 194  1350 194  C 1351.68 194  1353 195.32  1353 197  C 1353 198.68  1351.68 200  1350 200  " fill-rule="nonzero" fill="#797979" stroke="none" />
</svg>