<?xml version="1.0" encoding="utf-8"?>
<svg version="1.1" xmlns:xlink="http://www.w3.org/1999/xlink" width="58px" height="25px" xmlns="http://www.w3.org/2000/svg">
  <defs>
    <mask fill="white" id="clip989">
      <path d="M 0 24  L 0 0  L 31.9718875502008 0  L 57 0  L 57 24  L 0 24  Z " fill-rule="evenodd" />
    </mask>
  </defs>
  <g transform="matrix(1 0 0 1 -197 -158 )">
    <path d="M 0 24  L 0 0  L 31.9718875502008 0  L 57 0  L 57 24  L 0 24  Z " fill-rule="nonzero" fill="#f2f2f2" stroke="none" transform="matrix(1 0 0 1 197 158 )" />
    <path d="M 0 24  L 0 0  L 31.9718875502008 0  L 57 0  L 57 24  L 0 24  Z " stroke-width="2" stroke="#d7d7d7" fill="none" transform="matrix(1 0 0 1 197 158 )" mask="url(#clip989)" />
    <path d="M 56.1124514340631 0.373704659341826  L 0.887548565936858 23.6262953406582  M 0.887548565936858 0.373704659341826  L 56.1124514340631 23.6262953406582  " stroke-width="1" stroke="#d7d7d7" fill="none" transform="matrix(1 0 0 1 197 158 )" />
  </g>
</svg>