<?xml version="1.0" encoding="utf-8"?>
<svg version="1.1" xmlns:xlink="http://www.w3.org/1999/xlink" width="12px" height="12px" viewBox="1238 191  12 12" xmlns="http://www.w3.org/2000/svg">
  <path d="M 1244 191  C 1247.36 191  1250 193.64  1250 197  C 1250 200.36  1247.36 203  1244 203  C 1240.64 203  1238 200.36  1238 197  C 1238 193.64  1240.64 191  1244 191  Z " fill-rule="nonzero" fill="#f0f0f0" stroke="none" />
  <path d="M 1244 191.5  C 1247.08 191.5  1249.5 193.92  1249.5 197  C 1249.5 200.08  1247.08 202.5  1244 202.5  C 1240.92 202.5  1238.5 200.08  1238.5 197  C 1238.5 193.92  1240.92 191.5  1244 191.5  Z " stroke-width="1" stroke="#797979" fill="none" />
  <path d="M 1244 200  C 1242.32 200  1241 198.68  1241 197  C 1241 195.32  1242.32 194  1244 194  C 1245.68 194  1247 195.32  1247 197  C 1247 198.68  1245.68 200  1244 200  " fill-rule="nonzero" fill="#797979" stroke="none" />
</svg>