<?xml version="1.0" encoding="utf-8"?>
<svg version="1.1" xmlns:xlink="http://www.w3.org/1999/xlink" width="12px" height="12px" viewBox="1417 191  12 12" xmlns="http://www.w3.org/2000/svg">
  <path d="M 1423 191  C 1426.36 191  1429 193.64  1429 197  C 1429 200.36  1426.36 203  1423 203  C 1419.64 203  1417 200.36  1417 197  C 1417 193.64  1419.64 191  1423 191  Z " fill-rule="nonzero" fill="#ffffff" stroke="none" />
  <path d="M 1423 191.5  C 1426.08 191.5  1428.5 193.92  1428.5 197  C 1428.5 200.08  1426.08 202.5  1423 202.5  C 1419.92 202.5  1417.5 200.08  1417.5 197  C 1417.5 193.92  1419.92 191.5  1423 191.5  Z " stroke-width="1" stroke="#797979" fill="none" />
  <path d="M 1423 200  C 1421.32 200  1420 198.68  1420 197  C 1420 195.32  1421.32 194  1423 194  C 1424.68 194  1426 195.32  1426 197  C 1426 198.68  1424.68 200  1423 200  " fill-rule="nonzero" fill="#797979" stroke="none" />
</svg>