<?xml version="1.0" encoding="utf-8"?>
<svg version="1.1" xmlns:xlink="http://www.w3.org/1999/xlink" width="18px" height="18px" preserveAspectRatio="xMinYMid meet" viewBox="1245 178  18 16" xmlns="http://www.w3.org/2000/svg">
  <path d="M 1254.5 188  L 1254.5 175  A 5 5 0 0 1 1259.5 170.5 L 1468.5 170.5  A 1.5 1.5 0 0 1 1470.5 172 A 1.5 1.5 0 0 0 1472 173.5 L 1483 173.5  " stroke-width="1" stroke="#555555" fill="none" />
  <path d="M 1254.5 183  A 3 3 0 0 0 1251.5 186 A 3 3 0 0 0 1254.5 189 A 3 3 0 0 0 1257.5 186 A 3 3 0 0 0 1254.5 183 Z " fill-rule="nonzero" fill="#555555" stroke="none" />
</svg>