<?xml version="1.0" encoding="utf-8"?>
<svg version="1.1" xmlns:xlink="http://www.w3.org/1999/xlink" width="12px" height="12px" viewBox="1350 152  12 12" xmlns="http://www.w3.org/2000/svg">
  <path d="M 1356 152  C 1359.36 152  1362 154.64  1362 158  C 1362 161.36  1359.36 164  1356 164  C 1352.64 164  1350 161.36  1350 158  C 1350 154.64  1352.64 152  1356 152  Z " fill-rule="nonzero" fill="#f0f0f0" stroke="none" />
  <path d="M 1356 152.5  C 1359.08 152.5  1361.5 154.92  1361.5 158  C 1361.5 161.08  1359.08 163.5  1356 163.5  C 1352.92 163.5  1350.5 161.08  1350.5 158  C 1350.5 154.92  1352.92 152.5  1356 152.5  Z " stroke-width="1" stroke="#797979" fill="none" />
  <path d="M 1356 161  C 1354.32 161  1353 159.68  1353 158  C 1353 156.32  1354.32 155  1356 155  C 1357.68 155  1359 156.32  1359 158  C 1359 159.68  1357.68 161  1356 161  " fill-rule="nonzero" fill="#797979" stroke="none" />
</svg>