<?xml version="1.0" encoding="utf-8"?>
<svg version="1.1" xmlns:xlink="http://www.w3.org/1999/xlink" width="54px" height="25px" xmlns="http://www.w3.org/2000/svg">
  <defs>
    <mask fill="white" id="clip909">
      <path d="M 0 24  L 0 0  L 29.7282463186078 0  L 53 0  L 53 24  L 0 24  Z " fill-rule="evenodd" />
    </mask>
  </defs>
  <g transform="matrix(1 0 0 1 -201 -158 )">
    <path d="M 0 24  L 0 0  L 29.7282463186078 0  L 53 0  L 53 24  L 0 24  Z " fill-rule="nonzero" fill="#f2f2f2" stroke="none" transform="matrix(1 0 0 1 201 158 )" />
    <path d="M 0 24  L 0 0  L 29.7282463186078 0  L 53 0  L 53 24  L 0 24  Z " stroke-width="2" stroke="#d7d7d7" fill="none" transform="matrix(1 0 0 1 201 158 )" mask="url(#clip909)" />
    <path d="M 52.1747355439534 0.373704659341826  L 0.825264456046553 23.6262953406582  M 0.825264456046553 0.373704659341826  L 52.1747355439534 23.6262953406582  " stroke-width="1" stroke="#d7d7d7" fill="none" transform="matrix(1 0 0 1 201 158 )" />
  </g>
</svg>