<?xml version="1.0" encoding="utf-8"?>
<svg version="1.1" xmlns:xlink="http://www.w3.org/1999/xlink" width="12px" height="12px" viewBox="1417 156  12 12" xmlns="http://www.w3.org/2000/svg">
  <path d="M 1423 156  C 1426.36 156  1429 158.64  1429 162  C 1429 165.36  1426.36 168  1423 168  C 1419.64 168  1417 165.36  1417 162  C 1417 158.64  1419.64 156  1423 156  Z " fill-rule="nonzero" fill="#ffffff" stroke="none" />
  <path d="M 1423 156.5  C 1426.08 156.5  1428.5 158.92  1428.5 162  C 1428.5 165.08  1426.08 167.5  1423 167.5  C 1419.92 167.5  1417.5 165.08  1417.5 162  C 1417.5 158.92  1419.92 156.5  1423 156.5  Z " stroke-width="1" stroke="#797979" fill="none" />
  <path d="M 1423 165  C 1421.32 165  1420 163.68  1420 162  C 1420 160.32  1421.32 159  1423 159  C 1424.68 159  1426 160.32  1426 162  C 1426 163.68  1424.68 165  1423 165  " fill-rule="nonzero" fill="#797979" stroke="none" />
</svg>