<?xml version="1.0" encoding="utf-8"?>
<svg version="1.1" xmlns:xlink="http://www.w3.org/1999/xlink" width="12px" height="12px" viewBox="1238 156  12 12" xmlns="http://www.w3.org/2000/svg">
  <path d="M 1244 156  C 1247.36 156  1250 158.64  1250 162  C 1250 165.36  1247.36 168  1244 168  C 1240.64 168  1238 165.36  1238 162  C 1238 158.64  1240.64 156  1244 156  Z " fill-rule="nonzero" fill="#f0f0f0" stroke="none" />
  <path d="M 1244 156.5  C 1247.08 156.5  1249.5 158.92  1249.5 162  C 1249.5 165.08  1247.08 167.5  1244 167.5  C 1240.92 167.5  1238.5 165.08  1238.5 162  C 1238.5 158.92  1240.92 156.5  1244 156.5  Z " stroke-width="1" stroke="#797979" fill="none" />
  <path d="M 1244 165  C 1242.32 165  1241 163.68  1241 162  C 1241 160.32  1242.32 159  1244 159  C 1245.68 159  1247 160.32  1247 162  C 1247 163.68  1245.68 165  1244 165  " fill-rule="nonzero" fill="#797979" stroke="none" />
</svg>