<?xml version="1.0" encoding="utf-8"?>
<svg version="1.1" xmlns:xlink="http://www.w3.org/1999/xlink" width="18px" height="18px" preserveAspectRatio="xMinYMid meet" viewBox="378 409  18 16" xmlns="http://www.w3.org/2000/svg">
  <path d="M 389 417.5  L 457 417.5  " stroke-width="1" stroke-dasharray="17,8" stroke="#d7d7d7" fill="none" />
  <path d="M 387 414.5  A 3 3 0 0 0 384 417.5 A 3 3 0 0 0 387 420.5 A 3 3 0 0 0 390 417.5 A 3 3 0 0 0 387 414.5 Z M 387 415.5  A 2 2 0 0 1 389 417.5 A 2 2 0 0 1 387 419.5 A 2 2 0 0 1 385 417.5 A 2 2 0 0 1 387 415.5 Z " fill-rule="nonzero" fill="#d7d7d7" stroke="none" />
</svg>