<?xml version="1.0" encoding="utf-8"?>
<svg version="1.1" xmlns:xlink="http://www.w3.org/1999/xlink" width="18px" height="18px" preserveAspectRatio="xMinYMid meet" viewBox="1835 734  18 16" xmlns="http://www.w3.org/2000/svg">
  <path d="M 1844.5 740  L 1844.5 771  A 5 5 0 0 1 1839 776.5 L 1780 776.5  A 3 3 0 0 0 1777 773.5 A 3 3 0 0 0 1774 776.5 L 1664 776.5  " stroke-width="1" stroke="#000000" fill="none" />
  <path d="M 1844.5 739  A 3 3 0 0 0 1841.5 742 A 3 3 0 0 0 1844.5 745 A 3 3 0 0 0 1847.5 742 A 3 3 0 0 0 1844.5 739 Z " fill-rule="nonzero" fill="#000000" stroke="none" />
</svg>