<?xml version="1.0" encoding="utf-8"?>
<svg version="1.1" xmlns:xlink="http://www.w3.org/1999/xlink" width="75px" height="10px" preserveAspectRatio="xMinYMid meet" viewBox="3220 536  75 8" xmlns="http://www.w3.org/2000/svg">
  <path d="M 3225.5 556  L 3225.5 545  A 5 5 0 0 1 3230.5 540.5 L 3285 540.5  A 5 5 0 0 1 3290.5 545.5 L 3290.5 628  A 5 5 0 0 0 3295.5 633.5 L 3303 633.5  " stroke-width="1" stroke="#333333" fill="none" />
  <path d="M 3225.5 551  A 3 3 0 0 0 3222.5 554 A 3 3 0 0 0 3225.5 557 A 3 3 0 0 0 3228.5 554 A 3 3 0 0 0 3225.5 551 Z " fill-rule="nonzero" fill="#333333" stroke="none" />
</svg>