<?xml version="1.0" encoding="utf-8"?>
<svg version="1.1" xmlns:xlink="http://www.w3.org/1999/xlink" width="10px" height="62px" preserveAspectRatio="xMidYMin meet" viewBox="3016 1275  8 62" xmlns="http://www.w3.org/2000/svg">
  <path d="M 2907.5 1289  L 2907.5 1285  A 5 5 0 0 1 2912.5 1280.5 L 3015 1280.5  A 5 5 0 0 1 3020.5 1285.5 L 3020.5 1327  A 5 5 0 0 0 3025.5 1332.5 L 3033 1332.5  " stroke-width="1" stroke="#333333" fill="none" />
  <path d="M 2907.5 1284  A 3 3 0 0 0 2904.5 1287 A 3 3 0 0 0 2907.5 1290 A 3 3 0 0 0 2910.5 1287 A 3 3 0 0 0 2907.5 1284 Z " fill-rule="nonzero" fill="#333333" stroke="none" />
</svg>