<?xml version="1.0" encoding="utf-8"?>
<svg version="1.1" xmlns:xlink="http://www.w3.org/1999/xlink" width="16px" height="10px" preserveAspectRatio="xMinYMid meet" viewBox="3325 2374  16 8" xmlns="http://www.w3.org/2000/svg">
  <path d="M 3195.5 2385  L 3195.5 2375  A 5 5 0 0 1 3200.5 2370.5 L 3326 2370.5  A 4 4 0 0 1 3330.5 2374.5 A 4 4 0 0 0 3334.5 2378.5 L 3341 2378.5  " stroke-width="1" stroke="#333333" fill="none" />
  <path d="M 3195.5 2380  A 3 3 0 0 0 3192.5 2383 A 3 3 0 0 0 3195.5 2386 A 3 3 0 0 0 3198.5 2383 A 3 3 0 0 0 3195.5 2380 Z " fill-rule="nonzero" fill="#333333" stroke="none" />
</svg>