<?xml version="1.0" encoding="utf-8"?>
<svg version="1.1" xmlns:xlink="http://www.w3.org/1999/xlink" width="10px" height="17px" preserveAspectRatio="xMidYMin meet" viewBox="2868 2105  8 17" xmlns="http://www.w3.org/2000/svg">
  <path d="M 2872.5 2121  L 2872.5 2115  A 5 5 0 0 1 2877.5 2110.5 L 3025 2110.5  A 5 5 0 0 1 3030.5 2115.5 L 3030.5 2140  A 5 5 0 0 0 3035.5 2145.5 L 3047 2145.5  " stroke-width="1" stroke="#333333" fill="none" />
  <path d="M 2872.5 2116  A 3 3 0 0 0 2869.5 2119 A 3 3 0 0 0 2872.5 2122 A 3 3 0 0 0 2875.5 2119 A 3 3 0 0 0 2872.5 2116 Z " fill-rule="nonzero" fill="#333333" stroke="none" />
</svg>