<?xml version="1.0" encoding="utf-8"?>
<svg version="1.1" xmlns:xlink="http://www.w3.org/1999/xlink" width="12px" height="12px" viewBox="700 418  12 12" xmlns="http://www.w3.org/2000/svg">
  <path d="M 706 418  C 709.36 418  712 420.64  712 424  C 712 427.36  709.36 430  706 430  C 702.64 430  700 427.36  700 424  C 700 420.64  702.64 418  706 418  Z " fill-rule="nonzero" fill="#ffffff" stroke="none" />
  <path d="M 706 418.5  C 709.08 418.5  711.5 420.92  711.5 424  C 711.5 427.08  709.08 429.5  706 429.5  C 702.92 429.5  700.5 427.08  700.5 424  C 700.5 420.92  702.92 418.5  706 418.5  Z " stroke-width="1" stroke="#797979" fill="none" />
  <path d="M 706 427  C 704.32 427  703 425.68  703 424  C 703 422.32  704.32 421  706 421  C 707.68 421  709 422.32  709 424  C 709 425.68  707.68 427  706 427  " fill-rule="nonzero" fill="#797979" stroke="none" />
</svg>