<?xml version="1.0" encoding="utf-8"?>
<svg version="1.1" xmlns:xlink="http://www.w3.org/1999/xlink" width="12px" height="12px" viewBox="598 418  12 12" xmlns="http://www.w3.org/2000/svg">
  <path d="M 604 418  C 607.36 418  610 420.64  610 424  C 610 427.36  607.36 430  604 430  C 600.64 430  598 427.36  598 424  C 598 420.64  600.64 418  604 418  Z " fill-rule="nonzero" fill="#ffffff" stroke="none" />
  <path d="M 604 418.5  C 607.08 418.5  609.5 420.92  609.5 424  C 609.5 427.08  607.08 429.5  604 429.5  C 600.92 429.5  598.5 427.08  598.5 424  C 598.5 420.92  600.92 418.5  604 418.5  Z " stroke-width="1" stroke="#797979" fill="none" />
  <path d="M 604 427  C 602.32 427  601 425.68  601 424  C 601 422.32  602.32 421  604 421  C 605.68 421  607 422.32  607 424  C 607 425.68  605.68 427  604 427  " fill-rule="nonzero" fill="#797979" stroke="none" />
</svg>