<?xml version="1.0" encoding="utf-8"?>
<svg version="1.1" xmlns:xlink="http://www.w3.org/1999/xlink" width="19px" height="29px" xmlns="http://www.w3.org/2000/svg">
  <g transform="matrix(1 0 0 1 -1542 -649 )">
    <path d="M 1.7946273830156 0.307477678571429  L 18.6542461005199 16.87890625  C 18.9945118428654 17.2025669642857  19.0713460427499 17.5747767857143  18.8847487001733 17.9955357142857  C 18.6981513575968 18.4270833333333  18.3743500866551 18.6428571428571  17.9133448873484 18.6428571428571  L 11.6239168110919 18.6428571428571  L 14.9332755632582 26.3459821428571  C 15.0430387059503 26.6156994047619  15.0430387059503 26.8800223214286  14.9332755632582 27.1389508928571  C 14.8235124205661 27.3978794642857  14.6369150779896 27.5866815476191  14.3734835355286 27.7053571428571  L 11.4592720970537 28.9190848214286  C 11.1848642403235 29.0269717261905  10.9159445407279 29.0269717261905  10.6525129982669 28.9190848214286  C 10.3890814558059 28.8111979166667  10.1969959560947 28.6277901785714  10.0762564991334 28.3688616071429  L 6.9315424610052 21.0541294642857  L 1.7946273830156 26.1032366071429  C 1.58607741190064 26.3082217261905  1.33911034084344 26.4107142857143  1.05372616984402 26.4107142857143  C 0.922010398613518 26.4107142857143  0.790294627383016 26.3837425595238  0.658578856152513 26.3297991071429  C 0.219526285384171 26.1463913690476  0 25.828125  0 25.375  L 0 1.03571428571429  C 0 0.582589285714285  0.219526285384171 0.264322916666665  0.658578856152513 0.0809151785714295  C 0.790294627383016 0.0269717261904765  0.922010398613518 0  1.05372616984402 0  C 1.35008665511265 0  1.59705372616984 0.102492559523812  1.7946273830156 0.307477678571429  Z " fill-rule="nonzero" fill="#aaaaaa" stroke="none" transform="matrix(1 0 0 1 1542 649 )" />
  </g>
</svg>