<?xml version="1.0" encoding="utf-8"?>
<svg version="1.1" xmlns:xlink="http://www.w3.org/1999/xlink" width="10px" height="8px" preserveAspectRatio="xMinYMid meet" viewBox="1312 428  10 6" xmlns="http://www.w3.org/2000/svg">
  <path d="M 1317.66512916106 434.518415909612  A 3 3 0 0 1 1320.5 432.5 L 1489 432.5  A 5 5 0 0 0 1494.5 427.5 L 1494.5 173  A 5 5 0 0 1 1499.5 168.5 L 1504 168.5  " stroke-width="1" stroke="#333333" fill="none" />
  <path d="M 1318.8790930824 429.975587045576  A 3 3 0 0 0 1315.8790930824 432.975587045576 A 3 3 0 0 0 1318.8790930824 435.975587045576 A 3 3 0 0 0 1321.8790930824 432.975587045576 A 3 3 0 0 0 1318.8790930824 429.975587045576 Z " fill-rule="nonzero" fill="#333333" stroke="none" />
</svg>