<?xml version="1.0" encoding="utf-8"?>
<svg version="1.1" xmlns:xlink="http://www.w3.org/1999/xlink" width="55px" height="55px" xmlns="http://www.w3.org/2000/svg">
  <g transform="matrix(1 0 0 1 -93 -251 )">
    <path d="M 120.5 252  C 135.34 252  147 263.66  147 278.5  C 147 293.34  135.34 305  120.5 305  C 105.66 305  94 293.34  94 278.5  C 94 263.66  105.66 252  120.5 252  Z " fill-rule="nonzero" fill="#ffffff" stroke="none" />
    <path d="M 120.5 252  C 135.34 252  147 263.66  147 278.5  C 147 293.34  135.34 305  120.5 305  C 105.66 305  94 293.34  94 278.5  C 94 263.66  105.66 252  120.5 252  Z " stroke-width="2" stroke="#797979" fill="none" />
  </g>
</svg>