<?xml version="1.0" encoding="utf-8"?>
<svg version="1.1" xmlns:xlink="http://www.w3.org/1999/xlink" width="15px" height="10px" preserveAspectRatio="xMinYMid meet" viewBox="1469 151  15 8" xmlns="http://www.w3.org/2000/svg">
  <path d="M 1116.5 417.722222222222  A 5 5 0 0 0 1121.5 422.722222222222 L 1469 422.722222222222  A 5 5 0 0 0 1474.5 417.722222222222 L 1474.5 160  A 5 5 0 0 1 1479.5 155.5 L 1484 155.5  " stroke-width="1" stroke="#333333" fill="none" />
  <path d="M 1117.25196218575 417.359299151082  A 3 3 0 0 0 1114.25196218575 420.359299151082 A 3 3 0 0 0 1117.25196218575 423.359299151082 A 3 3 0 0 0 1120.25196218575 420.359299151082 A 3 3 0 0 0 1117.25196218575 417.359299151082 Z " fill-rule="nonzero" fill="#333333" stroke="none" />
</svg>