<?xml version="1.0" encoding="utf-8"?>
<svg version="1.1" xmlns:xlink="http://www.w3.org/1999/xlink" width="10px" height="7px" preserveAspectRatio="xMinYMid meet" viewBox="1815 532  10 5" xmlns="http://www.w3.org/2000/svg">
  <path d="M 1820.74483487622 532.458851077208  A 2 2 0 0 0 1822.5 533.5 L 1877 533.5  A 5 5 0 0 1 1882.5 538.5 L 1882.5 728  A 5 5 0 0 0 1887.5 733.5 L 1892 733.5  " stroke-width="1" stroke="#555555" fill="none" />
  <path d="M 1822.35852559666 530.494989973208  A 3 3 0 0 0 1819.35852559666 533.494989973208 A 3 3 0 0 0 1822.35852559666 536.494989973208 A 3 3 0 0 0 1825.35852559666 533.494989973208 A 3 3 0 0 0 1822.35852559666 530.494989973208 Z " fill-rule="nonzero" fill="#555555" stroke="none" />
</svg>