<?xml version="1.0" encoding="utf-8"?>
<svg version="1.1" xmlns:xlink="http://www.w3.org/1999/xlink" width="301px" height="99px" xmlns="http://www.w3.org/2000/svg">
  <defs>
    <mask fill="white" id="clip2682">
      <path d="M 0 84.8571428571428  L 0 14.1428571428571  C 0 6.22285714285711  1.65549999999999 0  3.7625 0  L 297.2375 0  C 299.3445 0  301 6.22285714285711  301 14.1428571428571  L 301 84.8571428571428  C 301 92.7771428571429  299.3445 99  297.2375 99  L 167.224771341464 99  L 3.7625 99  C 1.65549999999999 99  0 92.7771428571429  0 84.8571428571428  Z " fill-rule="evenodd" />
    </mask>
  </defs>
  <g transform="matrix(1 0 0 1 -2077 -205 )">
    <path d="M 0 84.8571428571428  L 0 14.1428571428571  C 0 6.22285714285711  1.65549999999999 0  3.7625 0  L 297.2375 0  C 299.3445 0  301 6.22285714285711  301 14.1428571428571  L 301 84.8571428571428  C 301 92.7771428571429  299.3445 99  297.2375 99  L 167.224771341464 99  L 3.7625 99  C 1.65549999999999 99  0 92.7771428571429  0 84.8571428571428  Z " fill-rule="nonzero" fill="#ffffff" stroke="none" transform="matrix(1 0 0 1 2077 205 )" />
    <path d="M 0 84.8571428571428  L 0 14.1428571428571  C 0 6.22285714285711  1.65549999999999 0  3.7625 0  L 297.2375 0  C 299.3445 0  301 6.22285714285711  301 14.1428571428571  L 301 84.8571428571428  C 301 92.7771428571429  299.3445 99  297.2375 99  L 167.224771341464 99  L 3.7625 99  C 1.65549999999999 99  0 92.7771428571429  0 84.8571428571428  Z " stroke-width="2" stroke="#d9d9d9" fill="none" transform="matrix(1 0 0 1 2077 205 )" mask="url(#clip2682)" />
  </g>
</svg>