<?xml version="1.0" encoding="utf-8"?>
<svg version="1.1" xmlns:xlink="http://www.w3.org/1999/xlink" width="1315px" height="10px" preserveAspectRatio="xMinYMid meet" viewBox="840 830  1315 8" xmlns="http://www.w3.org/2000/svg">
  <path d="M 840 834.5  L 2145 834.5  A 5 5 0 0 0 2150.5 829.5 L 2150.5 209  A 5 5 0 0 0 2145.5 204.5 L 1935 204.5  A 5 5 0 0 1 1930.5 199.5 L 1930.5 195  " stroke-width="1" stroke="#000000" fill="none" />
  <path d="M 1930.5 194  A 3 3 0 0 0 1927.5 197 A 3 3 0 0 0 1930.5 200 A 3 3 0 0 0 1933.5 197 A 3 3 0 0 0 1930.5 194 Z " fill-rule="nonzero" fill="#000000" stroke="none" />
</svg>