<?xml version="1.0" encoding="utf-8"?>
<svg version="1.1" xmlns:xlink="http://www.w3.org/1999/xlink" width="228px" height="26px" xmlns="http://www.w3.org/2000/svg">
  <defs>
    <mask fill="white" id="clip1242">
      <path d="M 0 22.2857142857143  L 0 3.71428571428571  C 0 1.63428571428571  1.25399999999999 0  2.85 0  L 225.15 0  C 226.746 0  228 1.63428571428571  228 3.71428571428571  L 228 22.2857142857143  C 228 24.3657142857143  226.746 26  225.15 26  L 126.668597560976 26  L 2.85 26  C 1.25399999999999 26  0 24.3657142857143  0 22.2857142857143  Z " fill-rule="evenodd" />
    </mask>
  </defs>
  <g transform="matrix(1 0 0 1 -580 -236 )">
    <path d="M 0 22.2857142857143  L 0 3.71428571428571  C 0 1.63428571428571  1.25399999999999 0  2.85 0  L 225.15 0  C 226.746 0  228 1.63428571428571  228 3.71428571428571  L 228 22.2857142857143  C 228 24.3657142857143  226.746 26  225.15 26  L 126.668597560976 26  L 2.85 26  C 1.25399999999999 26  0 24.3657142857143  0 22.2857142857143  Z " fill-rule="nonzero" fill="#ffffff" stroke="none" transform="matrix(1 0 0 1 580 236 )" />
    <path d="M 0 22.2857142857143  L 0 3.71428571428571  C 0 1.63428571428571  1.25399999999999 0  2.85 0  L 225.15 0  C 226.746 0  228 1.63428571428571  228 3.71428571428571  L 228 22.2857142857143  C 228 24.3657142857143  226.746 26  225.15 26  L 126.668597560976 26  L 2.85 26  C 1.25399999999999 26  0 24.3657142857143  0 22.2857142857143  Z " stroke-width="2" stroke="#d9d9d9" fill="none" transform="matrix(1 0 0 1 580 236 )" mask="url(#clip1242)" />
  </g>
</svg>