<?xml version="1.0" encoding="utf-8"?>
<svg version="1.1" xmlns:xlink="http://www.w3.org/1999/xlink" width="228px" height="28px" xmlns="http://www.w3.org/2000/svg">
  <defs>
    <mask fill="white" id="clip698">
      <path d="M 0 24  L 0 4  C 0 1.75999999999999  1.25399999999999 0  2.85 0  L 225.15 0  C 226.746 0  228 1.75999999999999  228 4  L 228 24  C 228 26.24  226.746 28  225.15 28  L 126.668597560976 28  L 2.85 28  C 1.25399999999999 28  0 26.24  0 24  Z " fill-rule="evenodd" />
    </mask>
  </defs>
  <g transform="matrix(1 0 0 1 -974 -236 )">
    <path d="M 0 24  L 0 4  C 0 1.75999999999999  1.25399999999999 0  2.85 0  L 225.15 0  C 226.746 0  228 1.75999999999999  228 4  L 228 24  C 228 26.24  226.746 28  225.15 28  L 126.668597560976 28  L 2.85 28  C 1.25399999999999 28  0 26.24  0 24  Z " fill-rule="nonzero" fill="#ffffff" stroke="none" transform="matrix(1 0 0 1 974 236 )" />
    <path d="M 0 24  L 0 4  C 0 1.75999999999999  1.25399999999999 0  2.85 0  L 225.15 0  C 226.746 0  228 1.75999999999999  228 4  L 228 24  C 228 26.24  226.746 28  225.15 28  L 126.668597560976 28  L 2.85 28  C 1.25399999999999 28  0 26.24  0 24  Z " stroke-width="2" stroke="#d9d9d9" fill="none" transform="matrix(1 0 0 1 974 236 )" mask="url(#clip698)" />
  </g>
</svg>