<?xml version="1.0" encoding="utf-8"?>
<svg version="1.1" xmlns:xlink="http://www.w3.org/1999/xlink" width="100px" height="26px" xmlns="http://www.w3.org/2000/svg">
  <defs>
    <mask fill="white" id="clip3095">
      <path d="M 0 25  L 0 0  L 99 0  L 99 25  L 39.4915254237288 25  L 0 25  Z " fill-rule="evenodd" />
    </mask>
  </defs>
  <g transform="matrix(1 0 0 1 -430 -253 )">
    <path d="M 0 25  L 0 0  L 99 0  L 99 25  L 39.4915254237288 25  L 0 25  Z " fill-rule="nonzero" fill="#f2f2f2" stroke="none" transform="matrix(1 0 0 1 430 253 )" />
    <path d="M 0 25  L 0 0  L 99 0  L 99 25  L 39.4915254237288 25  L 0 25  Z " stroke-width="2" stroke="#d7d7d7" fill="none" transform="matrix(1 0 0 1 430 253 )" mask="url(#clip3095)" />
    <path d="M 97.080263931674 0.484781835435825  L 1.9197360683259 24.5152181645641  M 1.9197360683259 0.484781835435825  L 97.080263931674 24.5152181645641  " stroke-width="1" stroke="#d7d7d7" fill="none" transform="matrix(1 0 0 1 430 253 )" />
  </g>
</svg>