<?xml version="1.0" encoding="utf-8"?>
<svg version="1.1" xmlns:xlink="http://www.w3.org/1999/xlink" width="59px" height="10px" preserveAspectRatio="xMinYMid meet" viewBox="1388 287  59 8" xmlns="http://www.w3.org/2000/svg">
  <path d="M 1342.64233821767 185.855109409209  A 3 3 0 0 0 1345 187 L 1388 187  A 5 5 0 0 1 1393 192 L 1393 286  A 5 5 0 0 0 1398 291 L 1447 291  " stroke-width="2" stroke="#7f7f7f" fill="none" />
  <path d="M 1343.82034396067 183.258334937761  A 3.5 3.5 0 0 0 1340.32034396067 186.758334937761 A 3.5 3.5 0 0 0 1343.82034396067 190.258334937761 A 3.5 3.5 0 0 0 1347.32034396067 186.758334937761 A 3.5 3.5 0 0 0 1343.82034396067 183.258334937761 Z " fill-rule="nonzero" fill="#7f7f7f" stroke="none" />
</svg>