<?xml version="1.0" encoding="utf-8"?>
<svg version="1.1" xmlns:xlink="http://www.w3.org/1999/xlink" width="10px" height="15px" preserveAspectRatio="xMidYMin meet" viewBox="1128 273  8 15" xmlns="http://www.w3.org/2000/svg">
  <path d="M 1132.5 287  L 1132.5 283  A 5 5 0 0 1 1137.5 278.5 L 1292.22222222222 278.5  A 5 5 0 0 0 1297.72222222222 273.5 L 1297.72222222222 91  A 5 5 0 0 1 1302.72222222222 86.5 L 1492 86.5  " stroke-width="1" stroke="#000000" fill="none" />
  <path d="M 1132.5 282  A 3 3 0 0 0 1129.5 285 A 3 3 0 0 0 1132.5 288 A 3 3 0 0 0 1135.5 285 A 3 3 0 0 0 1132.5 282 Z " fill-rule="nonzero" fill="#000000" stroke="none" />
</svg>