<?xml version="1.0" encoding="utf-8"?>
<svg version="1.1" xmlns:xlink="http://www.w3.org/1999/xlink" width="112px" height="10px" preserveAspectRatio="xMinYMid meet" viewBox="1285 733  112 8" xmlns="http://www.w3.org/2000/svg">
  <path d="M 1290.74483487622 738.541148922792  A 2 2 0 0 1 1292.5 737.5 L 1387 737.5  A 5 5 0 0 1 1392.5 742.5 L 1392.5 773  A 5 5 0 0 0 1397.5 778.5 L 1494 778.5  " stroke-width="1" stroke="#000000" fill="none" />
  <path d="M 1292.35852559666 734.505010026792  A 3 3 0 0 0 1289.35852559666 737.505010026792 A 3 3 0 0 0 1292.35852559666 740.505010026792 A 3 3 0 0 0 1295.35852559666 737.505010026792 A 3 3 0 0 0 1292.35852559666 734.505010026792 Z " fill-rule="nonzero" fill="#000000" stroke="none" />
</svg>