<?xml version="1.0" encoding="utf-8"?>
<svg version="1.1" xmlns:xlink="http://www.w3.org/1999/xlink" width="92px" height="32px" xmlns="http://www.w3.org/2000/svg">
  <defs>
    <mask fill="white" id="clip618">
      <path d="M 0 28  L 0 4  C 0 1.75999999999999  1.75999999999999 0  4 0  L 67.3177570093458 0  L 88 0  C 90.24 0  92 1.75999999999999  92 4  L 92 28  C 92 30.24  90.24 32  88 32  L 4 32  C 1.75999999999999 32  0 30.24  0 28  Z " fill-rule="evenodd" />
    </mask>
  </defs>
  <g transform="matrix(1 0 0 1 -1271 -421 )">
    <path d="M 0 28  L 0 4  C 0 1.75999999999999  1.75999999999999 0  4 0  L 67.3177570093458 0  L 88 0  C 90.24 0  92 1.75999999999999  92 4  L 92 28  C 92 30.24  90.24 32  88 32  L 4 32  C 1.75999999999999 32  0 30.24  0 28  Z " fill-rule="nonzero" fill="#ffffff" stroke="none" transform="matrix(1 0 0 1 1271 421 )" />
    <path d="M 0 28  L 0 4  C 0 1.75999999999999  1.75999999999999 0  4 0  L 67.3177570093458 0  L 88 0  C 90.24 0  92 1.75999999999999  92 4  L 92 28  C 92 30.24  90.24 32  88 32  L 4 32  C 1.75999999999999 32  0 30.24  0 28  Z " stroke-width="2" stroke="#108ee9" fill="none" transform="matrix(1 0 0 1 1271 421 )" mask="url(#clip618)" />
  </g>
</svg>