<?xml version="1.0" encoding="utf-8"?>
<svg version="1.1" xmlns:xlink="http://www.w3.org/1999/xlink" width="18px" height="18px" preserveAspectRatio="xMinYMid meet" viewBox="1317 413  18 16" xmlns="http://www.w3.org/2000/svg">
  <path d="M 1326.95969769413 423.658529015192  A 1 1 0 0 1 1327.5 423.5 L 1489 423.5  A 5 5 0 0 0 1494.5 418.5 L 1494.5 173  A 5 5 0 0 1 1499.5 168.5 L 1504 168.5  " stroke-width="1" stroke="#333333" fill="none" />
  <path d="M 1328.42920367321 420.5  A 3 3 0 0 0 1325.42920367321 423.5 A 3 3 0 0 0 1328.42920367321 426.5 A 3 3 0 0 0 1331.42920367321 423.5 A 3 3 0 0 0 1328.42920367321 420.5 Z " fill-rule="nonzero" fill="#333333" stroke="none" />
</svg>