<?xml version="1.0" encoding="utf-8"?>
<svg version="1.1" xmlns:xlink="http://www.w3.org/1999/xlink" width="15px" height="10px" preserveAspectRatio="xMinYMid meet" viewBox="1489 113  15 8" xmlns="http://www.w3.org/2000/svg">
  <path d="M 574.5 289  L 574.5 191  A 5 5 0 0 1 579.5 186.5 L 1489 186.5  A 5 5 0 0 0 1494.5 181.5 L 1494.5 122  A 5 5 0 0 1 1499.5 117.5 L 1504 117.5  " stroke-width="1" stroke="#000000" fill="none" />
  <path d="M 574.5 284  A 3 3 0 0 0 571.5 287 A 3 3 0 0 0 574.5 290 A 3 3 0 0 0 577.5 287 A 3 3 0 0 0 574.5 284 Z " fill-rule="nonzero" fill="#000000" stroke="none" />
</svg>