<?xml version="1.0" encoding="utf-8"?>
<svg version="1.1" xmlns:xlink="http://www.w3.org/1999/xlink" width="225px" height="10px" preserveAspectRatio="xMinYMid meet" viewBox="1260 303  225 8" xmlns="http://www.w3.org/2000/svg">
  <path d="M 1042 330.5  L 1260 330.5  A 5 5 0 0 0 1265.5 325.5 L 1265.5 312  A 5 5 0 0 1 1270.5 307.5 L 1475 307.5  A 5 5 0 0 0 1480.5 302.5 L 1480.5 187  A 5 5 0 0 1 1485.5 182.5 L 1490 182.5  " stroke-width="1" stroke="#333333" fill="none" />
  <path d="M 1044 327.5  A 3 3 0 0 0 1041 330.5 A 3 3 0 0 0 1044 333.5 A 3 3 0 0 0 1047 330.5 A 3 3 0 0 0 1044 327.5 Z " fill-rule="nonzero" fill="#333333" stroke="none" />
</svg>