<?xml version="1.0" encoding="utf-8"?>
<svg version="1.1" xmlns:xlink="http://www.w3.org/1999/xlink" width="319px" height="28px" xmlns="http://www.w3.org/2000/svg">
  <defs>
    <mask fill="white" id="clip445">
      <path d="M 0 24  L 0 4  C 0 1.75999999999999  1.75999999999999 0  4 0  L 315 0  C 317.24 0  319 1.75999999999999  319 4  L 319 24  C 319 26.24  317.24 28  315 28  L 70.3870967741935 28  L 4 28  C 1.75999999999999 28  0 26.24  0 24  Z " fill-rule="evenodd" />
    </mask>
  </defs>
  <g transform="matrix(1 0 0 1 -478 -354 )">
    <path d="M 0 24  L 0 4  C 0 1.75999999999999  1.75999999999999 0  4 0  L 315 0  C 317.24 0  319 1.75999999999999  319 4  L 319 24  C 319 26.24  317.24 28  315 28  L 70.3870967741935 28  L 4 28  C 1.75999999999999 28  0 26.24  0 24  Z " fill-rule="nonzero" fill="#f2f2f2" stroke="none" transform="matrix(1 0 0 1 478 354 )" />
    <path d="M 0 24  L 0 4  C 0 1.75999999999999  1.75999999999999 0  4 0  L 315 0  C 317.24 0  319 1.75999999999999  319 4  L 319 24  C 319 26.24  317.24 28  315 28  L 70.3870967741935 28  L 4 28  C 1.75999999999999 28  0 26.24  0 24  Z " stroke-width="2" stroke="#cccccc" fill="none" transform="matrix(1 0 0 1 478 354 )" mask="url(#clip445)" />
  </g>
</svg>