<?xml version="1.0" encoding="utf-8"?>
<svg version="1.1" xmlns:xlink="http://www.w3.org/1999/xlink" width="446px" height="122px" xmlns="http://www.w3.org/2000/svg">
  <g transform="matrix(1 0 0 1 -1583 -323 )">
    <path d="M 443.42668228639 120.589712643678  L 0.809295845997935 120.589712643678  C 0.809295845997935 120.589712643678  2.06018518518514 20.583908045977  1.23611111111111 20.583908045977  C 48.9829081992133 10.9770923768379  45.3240740740739 8.3448275862069  80.7592592592592 8.3448275862069  C 116.194444444444 8.3448275862069  121.098812338174 72.3589272030652  151.62962962963 73.4344827586207  C 182.160446921085 74.5100383141762  192.40288357728 -1.74527234671249  235.685185185185 0.556321839080428  C 259.747396712822 1.83586206896546  291.287642125408 46.395916803503  323.507936507936 47.6847290640394  C 355.728230890465 48.9735413245758  363.166188224699 19.6196168582375  387.785714285714 18.3586206896552  C 412.40524034673 17.0976245210728  415.520879066757 50.0928078817733  443.42668228639 51.2610837438424  C 444.363471659349 51.2054515599343  443.42668228639 120.589712643678  443.42668228639 120.589712643678  Z " fill-rule="nonzero" fill="#2db6f4" stroke="none" transform="matrix(1 0 0 1 1583 323 )" />
  </g>
</svg>