<?xml version="1.0" encoding="utf-8"?>
<svg version="1.1" xmlns:xlink="http://www.w3.org/1999/xlink" width="12px" height="12px" viewBox="2280 213  12 12" xmlns="http://www.w3.org/2000/svg">
  <path d="M 2286 213  C 2289.36 213  2292 215.64  2292 219  C 2292 222.36  2289.36 225  2286 225  C 2282.64 225  2280 222.36  2280 219  C 2280 215.64  2282.64 213  2286 213  Z " fill-rule="nonzero" fill="#f0f0f0" stroke="none" />
  <path d="M 2286 213.5  C 2289.08 213.5  2291.5 215.92  2291.5 219  C 2291.5 222.08  2289.08 224.5  2286 224.5  C 2282.92 224.5  2280.5 222.08  2280.5 219  C 2280.5 215.92  2282.92 213.5  2286 213.5  Z " stroke-width="1" stroke="#797979" fill="none" />
  <path d="M 2286 222  C 2284.32 222  2283 220.68  2283 219  C 2283 217.32  2284.32 216  2286 216  C 2287.68 216  2289 217.32  2289 219  C 2289 220.68  2287.68 222  2286 222  " fill-rule="nonzero" fill="#797979" stroke="none" />
</svg>