<?xml version="1.0" encoding="utf-8"?>
<svg version="1.1" xmlns:xlink="http://www.w3.org/1999/xlink" width="10px" height="108px" preserveAspectRatio="xMidYMin meet" viewBox="2546 167  8 108" xmlns="http://www.w3.org/2000/svg">
  <path d="M 2506 270.5  L 2550.5 270.5  L 2550.5 221  A 3 3 0 0 0 2553.5 218 A 3 3 0 0 0 2550.5 215 L 2550.5 172.5  L 2573 172.5  A 3 3 0 0 1 2576 169.5 A 3 3 0 0 1 2579 172.5 L 2595.5 172.5  " stroke-width="1" stroke="#555555" fill="none" />
  <path d="M 2508 267.5  A 3 3 0 0 0 2505 270.5 A 3 3 0 0 0 2508 273.5 A 3 3 0 0 0 2511 270.5 A 3 3 0 0 0 2508 267.5 Z " fill-rule="nonzero" fill="#555555" stroke="none" />
</svg>