<?xml version="1.0" encoding="utf-8"?>
<svg version="1.1" xmlns:xlink="http://www.w3.org/1999/xlink" width="10px" height="405px" preserveAspectRatio="xMidYMin meet" viewBox="1201 137  8 405" xmlns="http://www.w3.org/2000/svg">
  <path d="M 352.744834876219 538.541148922792  A 2 2 0 0 1 354.5 537.5 L 1200 537.5  A 5 5 0 0 0 1205.5 532.5 L 1205.5 147  A 5 5 0 0 1 1210.5 142.5 L 1258 142.5  " stroke-width="1" stroke="#000000" fill="none" />
  <path d="M 354.358525596665 534.505010026792  A 3 3 0 0 0 351.358525596665 537.505010026792 A 3 3 0 0 0 354.358525596665 540.505010026792 A 3 3 0 0 0 357.358525596665 537.505010026792 A 3 3 0 0 0 354.358525596665 534.505010026792 Z " fill-rule="nonzero" fill="#000000" stroke="none" />
</svg>