<?xml version="1.0" encoding="utf-8"?>
<svg version="1.1" xmlns:xlink="http://www.w3.org/1999/xlink" width="807px" height="10px" preserveAspectRatio="xMinYMid meet" viewBox="254 499  807 8" xmlns="http://www.w3.org/2000/svg">
  <path d="M 259.5 632  L 259.5 508  A 5 5 0 0 1 264.5 503.5 L 1051 503.5  A 5 5 0 0 0 1056.5 498.5 L 1056.5 203.5  A 0.5 0.5 0 0 1 1057 203.5 L 1057 203.5  " stroke-width="1" stroke="#000000" fill="none" />
  <path d="M 259.5 627  A 3 3 0 0 0 256.5 630 A 3 3 0 0 0 259.5 633 A 3 3 0 0 0 262.5 630 A 3 3 0 0 0 259.5 627 Z " fill-rule="nonzero" fill="#000000" stroke="none" />
</svg>