<?xml version="1.0" encoding="utf-8"?>
<svg version="1.1" xmlns:xlink="http://www.w3.org/1999/xlink" width="6px" height="10px" preserveAspectRatio="xMidYMin meet" viewBox="887 206  4 10" xmlns="http://www.w3.org/2000/svg">
  <path d="M 229.624350313157 393.489615837018  A 4 4 0 0 0 233.5 396.5 L 886 396.5  A 5 5 0 0 0 891.5 391.5 L 891.5 211.5  A 0.5 0.5 0 0 1 892 211.5 L 892 211.5  " stroke-width="1" stroke="#000000" fill="none" />
  <path d="M 230.573244524505 392.226555040093  A 3 3 0 0 0 227.573244524505 395.226555040093 A 3 3 0 0 0 230.573244524505 398.226555040093 A 3 3 0 0 0 233.573244524505 395.226555040093 A 3 3 0 0 0 230.573244524505 392.226555040093 Z " fill-rule="nonzero" fill="#000000" stroke="none" />
</svg>