<?xml version="1.0" encoding="utf-8"?>
<svg version="1.1" xmlns:xlink="http://www.w3.org/1999/xlink" width="134px" height="10px" preserveAspectRatio="xMinYMid meet" viewBox="647 539  134 8" xmlns="http://www.w3.org/2000/svg">
  <path d="M 650.481584090388 287.665129161056  A 3 3 0 0 1 652.5 290.5 L 652.5 538  A 5 5 0 0 0 657.5 543.5 L 771 543.5  A 5 5 0 0 1 776.5 548.5 L 776.5 553  " stroke-width="1" stroke="#000000" fill="none" />
  <path d="M 652.024412954424 285.879093082396  A 3 3 0 0 0 649.024412954424 288.879093082396 A 3 3 0 0 0 652.024412954424 291.879093082396 A 3 3 0 0 0 655.024412954424 288.879093082396 A 3 3 0 0 0 652.024412954424 285.879093082396 Z " fill-rule="nonzero" fill="#000000" stroke="none" />
</svg>