<?xml version="1.0" encoding="utf-8"?>
<svg version="1.1" xmlns:xlink="http://www.w3.org/1999/xlink" width="10px" height="94px" preserveAspectRatio="xMidYMin meet" viewBox="800 290  8 94" xmlns="http://www.w3.org/2000/svg">
  <path d="M 804.5 291  L 804.5 374  A 5 5 0 0 1 799.5 379.5 L 694 379.5  A 5 5 0 0 0 689.5 384 L 689.5 540  A 3 3 0 0 1 692.5 543 A 3 3 0 0 1 689.5 546 L 689.5 548  A 5 5 0 0 1 684.5 553.5 L 662 553.5  " stroke-width="1" stroke="#000000" fill="none" />
  <path d="M 804.5 290  A 3 3 0 0 0 801.5 293 A 3 3 0 0 0 804.5 296 A 3 3 0 0 0 807.5 293 A 3 3 0 0 0 804.5 290 Z " fill-rule="nonzero" fill="#000000" stroke="none" />
</svg>