<?xml version="1.0" encoding="utf-8"?>
<svg version="1.1" xmlns:xlink="http://www.w3.org/1999/xlink" width="10px" height="154px" preserveAspectRatio="xMidYMin meet" viewBox="1219 279  8 154" xmlns="http://www.w3.org/2000/svg">
  <path d="M 1184 284.5  L 1218 284.5  A 5 5 0 0 1 1223.5 289.5 L 1223.5 423  A 5 5 0 0 1 1218.5 428.5 L 1185 428.5  A 1 1 0 0 0 1184.5 429.5 L 1184.5 430  " stroke-width="1" stroke="#000000" fill="none" />
  <path d="M 1186 281.5  A 3 3 0 0 0 1183 284.5 A 3 3 0 0 0 1186 287.5 A 3 3 0 0 0 1189 284.5 A 3 3 0 0 0 1186 281.5 Z " fill-rule="nonzero" fill="#000000" stroke="none" />
</svg>