<?xml version="1.0" encoding="utf-8"?>
<svg version="1.1" xmlns:xlink="http://www.w3.org/1999/xlink" width="18px" height="18px" preserveAspectRatio="xMinYMid meet" viewBox="304 77  18 16" xmlns="http://www.w3.org/2000/svg">
  <path d="M 313.5 87  L 313.5 85  A 5 5 0 0 1 318.5 80.5 L 1470 80.5  A 5 5 0 0 0 1475.5 75.5 L 1475.5 56  A 5 5 0 0 1 1480.5 51.5 L 1485 51.5  " stroke-width="1" stroke="#555555" fill="none" />
  <path d="M 313.5 82  A 3 3 0 0 0 310.5 85 A 3 3 0 0 0 313.5 88 A 3 3 0 0 0 316.5 85 A 3 3 0 0 0 313.5 82 Z " fill-rule="nonzero" fill="#555555" stroke="none" />
</svg>