<?xml version="1.0" encoding="utf-8"?>
<svg version="1.1" xmlns:xlink="http://www.w3.org/1999/xlink" width="170px" height="10px" preserveAspectRatio="xMinYMid meet" viewBox="993 493  170 8" xmlns="http://www.w3.org/2000/svg">
  <path d="M 1158.34147098481 246.959697694132  A 1 1 0 0 1 1158.5 247.5 L 1158.5 492  A 5 5 0 0 1 1153.5 497.5 L 999.5 497.5  A 1.5 1.5 0 0 0 998.5 499 L 998.5 500  " stroke-width="1" stroke="#000000" fill="none" />
  <path d="M 1158.5 245.429203673205  A 3 3 0 0 0 1155.5 248.429203673205 A 3 3 0 0 0 1158.5 251.429203673205 A 3 3 0 0 0 1161.5 248.429203673205 A 3 3 0 0 0 1158.5 245.429203673205 Z " fill-rule="nonzero" fill="#000000" stroke="none" />
</svg>