<?xml version="1.0" encoding="utf-8"?>
<svg version="1.1" xmlns:xlink="http://www.w3.org/1999/xlink" width="155px" height="10px" preserveAspectRatio="xMinYMid meet" viewBox="1409 696  155 8" xmlns="http://www.w3.org/2000/svg">
  <path d="M 1414.66512916106 702.518415909612  A 3 3 0 0 1 1417.5 700.5 L 1554 700.5  A 5 5 0 0 0 1559.5 695.5 L 1559.5 672  A 5 5 0 0 1 1564.5 667.5 L 1569 667.5  " stroke-width="1" stroke="#000000" fill="none" />
  <path d="M 1415.8790930824 697.975587045576  A 3 3 0 0 0 1412.8790930824 700.975587045576 A 3 3 0 0 0 1415.8790930824 703.975587045576 A 3 3 0 0 0 1418.8790930824 700.975587045576 A 3 3 0 0 0 1415.8790930824 697.975587045576 Z " fill-rule="nonzero" fill="#000000" stroke="none" />
</svg>