<?xml version="1.0" encoding="utf-8"?>
<svg version="1.1" xmlns:xlink="http://www.w3.org/1999/xlink" width="98px" height="28px" xmlns="http://www.w3.org/2000/svg">
  <defs>
    <mask fill="white" id="clip858">
      <path d="M 0 23  L 0 5  C 0 2.19999999999999  2.20000000000005 0  5 0  L 29.038961038961 0  L 93 0  C 95.8 0  98 2.19999999999999  98 5  L 98 23  C 98 25.8  95.8 28  93 28  L 5 28  C 2.20000000000005 28  0 25.8  0 23  Z " fill-rule="evenodd" />
    </mask>
  </defs>
  <g transform="matrix(1 0 0 1 -932 -354 )">
    <path d="M 0 23  L 0 5  C 0 2.19999999999999  2.20000000000005 0  5 0  L 29.038961038961 0  L 93 0  C 95.8 0  98 2.19999999999999  98 5  L 98 23  C 98 25.8  95.8 28  93 28  L 5 28  C 2.20000000000005 28  0 25.8  0 23  Z " fill-rule="nonzero" fill="#ffffff" stroke="none" transform="matrix(1 0 0 1 932 354 )" />
    <path d="M 0 23  L 0 5  C 0 2.19999999999999  2.20000000000005 0  5 0  L 29.038961038961 0  L 93 0  C 95.8 0  98 2.19999999999999  98 5  L 98 23  C 98 25.8  95.8 28  93 28  L 5 28  C 2.20000000000005 28  0 25.8  0 23  Z " stroke-width="2" stroke="#7f7f7f" fill="none" transform="matrix(1 0 0 1 932 354 )" mask="url(#clip858)" />
  </g>
</svg>