<?xml version="1.0" encoding="utf-8"?>
<svg version="1.1" xmlns:xlink="http://www.w3.org/1999/xlink" width="10px" height="10px" preserveAspectRatio="xMinYMid meet" viewBox="414 127  10 8" xmlns="http://www.w3.org/2000/svg">
  <path d="M 133 258.5  L 162 258.5  A 5 5 0 0 0 167.5 253.5 L 167.5 136  A 5 5 0 0 1 172.5 131.5 L 416.5 131.5  A 2.5 2.5 0 0 0 419.5 129 L 419.5 126  " stroke-width="1" stroke="#000000" fill="none" />
  <path d="M 135 255.5  A 3 3 0 0 0 132 258.5 A 3 3 0 0 0 135 261.5 A 3 3 0 0 0 138 258.5 A 3 3 0 0 0 135 255.5 Z " fill-rule="nonzero" fill="#000000" stroke="none" />
</svg>