<?xml version="1.0" encoding="utf-8"?>
<svg version="1.1" xmlns:xlink="http://www.w3.org/1999/xlink" width="18px" height="18px" preserveAspectRatio="xMinYMid meet" viewBox="123 118  18 16" xmlns="http://www.w3.org/2000/svg">
  <path d="M 130 126.5  L 195 126.5  A 5 5 0 0 0 200.5 121.5 L 200.5 67  A 5 5 0 0 1 205.5 62.5 L 1154 62.5  A 5 5 0 0 1 1159.5 67.5 L 1159.5 104  " stroke-width="1" stroke="#000000" fill="none" />
  <path d="M 132 123.5  A 3 3 0 0 0 129 126.5 A 3 3 0 0 0 132 129.5 A 3 3 0 0 0 135 126.5 A 3 3 0 0 0 132 123.5 Z " fill-rule="nonzero" fill="#000000" stroke="none" />
</svg>