<?xml version="1.0" encoding="utf-8"?>
<svg version="1.1" xmlns:xlink="http://www.w3.org/1999/xlink" width="10px" height="87px" preserveAspectRatio="xMidYMin meet" viewBox="380 587  8 87" xmlns="http://www.w3.org/2000/svg">
  <path d="M 274.5 181  L 274.5 186  A 5 5 0 0 0 279.5 191.5 L 379.126984126984 191.5  A 5 5 0 0 1 384.626984126984 196.5 L 384.626984126984 591.936507936508  A 0.0634920634920491 0.0634920634920491 0 0 1 384.563492063492 592.5 A 0.0634920634920491 0.0634920634920491 0 0 0 384.5 592.563492063492 L 384.5 674  " stroke-width="1" stroke="#000000" fill="none" />
  <path d="M 274.5 180  A 3 3 0 0 0 271.5 183 A 3 3 0 0 0 274.5 186 A 3 3 0 0 0 277.5 183 A 3 3 0 0 0 274.5 180 Z " fill-rule="nonzero" fill="#000000" stroke="none" />
</svg>