<?xml version="1.0" encoding="utf-8"?>
<svg version="1.1" xmlns:xlink="http://www.w3.org/1999/xlink" width="20px" height="10px" preserveAspectRatio="xMinYMid meet" viewBox="1227 446  20 8" xmlns="http://www.w3.org/2000/svg">
  <defs>
    <mask fill="white" id="clip318">
      <path d="M 1048.5 502  L 1121.5 502  L 1121.5 530  L 1048.5 530  Z M 848 447  L 1247 447  L 1247 530  L 848 530  Z " fill-rule="evenodd" />
    </mask>
  </defs>
  <path d="M 857.959697694132 516.658529015192  A 1 1 0 0 1 858.5 516.5 L 1227 516.5  A 5 5 0 0 0 1232.5 511.5 L 1232.5 455  A 5 5 0 0 1 1237.5 450.5 L 1247 450.5  " stroke-width="1" stroke="#000000" fill="none" mask="url(#clip318)" />
  <path d="M 859.429203673205 513.5  A 3 3 0 0 0 856.429203673205 516.5 A 3 3 0 0 0 859.429203673205 519.5 A 3 3 0 0 0 862.429203673205 516.5 A 3 3 0 0 0 859.429203673205 513.5 Z " fill-rule="nonzero" fill="#000000" stroke="none" mask="url(#clip318)" />
</svg>