<?xml version="1.0" encoding="utf-8"?>
<svg version="1.1" xmlns:xlink="http://www.w3.org/1999/xlink" width="46px" height="10px" preserveAspectRatio="xMinYMid meet" viewBox="149 311  46 8" xmlns="http://www.w3.org/2000/svg">
  <path d="M 150 315.5  L 185 315.5  A 5 5 0 0 0 190.5 310.5 L 190.5 164  A 5 5 0 0 1 195.5 159.5 L 610 159.5  A 5 5 0 0 0 615.5 154.5 L 615.5 125  A 5 5 0 0 1 620.5 120.5 L 635 120.5  " stroke-width="1" stroke="#000000" fill="none" />
  <path d="M 152 312.5  A 3 3 0 0 0 149 315.5 A 3 3 0 0 0 152 318.5 A 3 3 0 0 0 155 315.5 A 3 3 0 0 0 152 312.5 Z " fill-rule="nonzero" fill="#000000" stroke="none" />
</svg>