<?xml version="1.0" encoding="utf-8"?>
<svg version="1.1" xmlns:xlink="http://www.w3.org/1999/xlink" width="38.047619047619px" height="10px" preserveAspectRatio="xMinYMid meet" viewBox="685.952380952381 209.809523809524  38.047619047619 8" xmlns="http://www.w3.org/2000/svg">
  <path d="M 728 187.5  L 724 187.5  A 5 5 0 0 0 719.5 192.5 L 719.5 208.809523809524  A 5 5 0 0 1 714.5 214.309523809524 L 695.952380952381 214.309523809524  A 5 5 0 0 0 691.452380952381 218.809523809524 L 691.452380952381 225  A 3 3 0 0 1 694.452380952381 228 A 3 3 0 0 1 691.452380952381 231 L 691.452380952381 266  A 5 5 0 0 1 686.452380952381 271.5 L 574 271.5  " stroke-width="1" stroke="#000000" fill="none" />
  <path d="M 726 184.5  A 3 3 0 0 0 723 187.5 A 3 3 0 0 0 726 190.5 A 3 3 0 0 0 729 187.5 A 3 3 0 0 0 726 184.5 Z " fill-rule="nonzero" fill="#000000" stroke="none" />
</svg>