<?xml version="1.0" encoding="utf-8"?>
<svg version="1.1" xmlns:xlink="http://www.w3.org/1999/xlink" width="18px" height="18px" preserveAspectRatio="xMinYMid meet" viewBox="335 407  18 16" xmlns="http://www.w3.org/2000/svg">
  <path d="M 346 416.5  L 452 416.5  " stroke-width="1" stroke-dasharray="17,8" stroke="#d7d7d7" fill="none" />
  <path d="M 346.358525596665 413.505010026792  A 3 3 0 0 0 343.358525596665 416.505010026792 A 3 3 0 0 0 346.358525596665 419.505010026792 A 3 3 0 0 0 349.358525596665 416.505010026792 A 3 3 0 0 0 346.358525596665 413.505010026792 Z M 346.358525596665 414.505010026792  A 2 2 0 0 1 348.358525596665 416.505010026792 A 2 2 0 0 1 346.358525596665 418.505010026792 A 2 2 0 0 1 344.358525596665 416.505010026792 A 2 2 0 0 1 346.358525596665 414.505010026792 Z " fill-rule="nonzero" fill="#d7d7d7" stroke="none" />
</svg>