<?xml version="1.0" encoding="utf-8"?>
<svg version="1.1" xmlns:xlink="http://www.w3.org/1999/xlink" width="18px" height="18px" preserveAspectRatio="xMinYMid meet" viewBox="378 90  18 16" xmlns="http://www.w3.org/2000/svg">
  <path d="M 389 98.5  L 457.5 98.5  A 0.5 0.5 0 0 1 458.5 99 L 458.5 99  " stroke-width="1" stroke-dasharray="17,8" stroke="#d7d7d7" fill="none" />
  <path d="M 387 95.5  A 3 3 0 0 0 384 98.5 A 3 3 0 0 0 387 101.5 A 3 3 0 0 0 390 98.5 A 3 3 0 0 0 387 95.5 Z M 387 96.5  A 2 2 0 0 1 389 98.5 A 2 2 0 0 1 387 100.5 A 2 2 0 0 1 385 98.5 A 2 2 0 0 1 387 96.5 Z " fill-rule="nonzero" fill="#d7d7d7" stroke="none" />
</svg>