<?xml version="1.0" encoding="utf-8"?>
<svg version="1.1" xmlns:xlink="http://www.w3.org/1999/xlink" width="95px" height="31px" xmlns="http://www.w3.org/2000/svg">
  <defs>
    <mask fill="white" id="clip1274">
      <path d="M 0 30  L 0 0  L 33 0  L 94 0  L 94 30  L 0 30  Z " fill-rule="evenodd" />
    </mask>
  </defs>
  <g transform="matrix(1 0 0 1 -1187 -284 )">
    <path d="M 0 30  L 0 0  L 33 0  L 94 0  L 94 30  L 0 30  Z M 92.5075005690908 29.5236703943906  L 1.49249943090922 0.476329605609351  L 45.8027937551356 14.6179129005752  L 92.5075005690908 29.5236703943906  Z " fill-rule="nonzero" fill="#f2f2f2" stroke="none" transform="matrix(1 0 0 1 1187 284 )" />
    <path d="M 0 30  L 0 0  L 33 0  L 94 0  L 94 30  L 0 30  Z " stroke-width="2" stroke="#d7d7d7" fill="none" transform="matrix(1 0 0 1 1187 284 )" mask="url(#clip1274)" />
    <path d="M 92.5075005690908 0.476329605609351  L 1.49249943090922 29.5236703943906  M 1.49249943090922 0.476329605609351  L 45.8027937551356 14.6179129005752  L 92.5075005690908 29.5236703943906  " stroke-width="1" stroke="#d7d7d7" fill="none" transform="matrix(1 0 0 1 1187 284 )" />
  </g>
</svg>