<?xml version="1.0" encoding="utf-8"?>
<svg version="1.1" xmlns:xlink="http://www.w3.org/1999/xlink" width="18px" height="18px" preserveAspectRatio="xMinYMid meet" viewBox="217 218  18 16" xmlns="http://www.w3.org/2000/svg">
  <path d="M 226.5 228  L 226.5 215.5  A 5 5 0 0 1 231.5 210.5 L 235.5 210.5  A 5 5 0 0 1 240.5 215.5 L 240.5 648.5  A 5 5 0 0 1 235.5 653.5 L 206 653.5  " stroke-width="1" stroke="#000000" fill="none" />
  <path d="M 226.5 223  A 3 3 0 0 0 223.5 226 A 3 3 0 0 0 226.5 229 A 3 3 0 0 0 229.5 226 A 3 3 0 0 0 226.5 223 Z " fill-rule="nonzero" fill="#000000" stroke="none" />
</svg>