<?xml version="1.0" encoding="utf-8"?>
<svg version="1.1" xmlns:xlink="http://www.w3.org/1999/xlink" width="25px" height="10px" preserveAspectRatio="xMinYMid meet" viewBox="240 176  25 8" xmlns="http://www.w3.org/2000/svg">
  <path d="M 245.5 196  L 245.5 185.5  A 5 5 0 0 1 250.5 180.5 L 255.5 180.5  A 5 5 0 0 1 260.5 185.5 L 260.5 605.5  A 5 5 0 0 1 255.5 610.5 L 187 610.5  " stroke-width="1" stroke="#000000" fill="none" />
  <path d="M 245.5 191  A 3 3 0 0 0 242.5 194 A 3 3 0 0 0 245.5 197 A 3 3 0 0 0 248.5 194 A 3 3 0 0 0 245.5 191 Z " fill-rule="nonzero" fill="#000000" stroke="none" />
</svg>