<?xml version="1.0" encoding="utf-8"?>
<svg version="1.1" xmlns:xlink="http://www.w3.org/1999/xlink" width="102px" height="10px" preserveAspectRatio="xMinYMid meet" viewBox="203 736  102 8" xmlns="http://www.w3.org/2000/svg">
  <path d="M 281.5 299  L 281.5 285.5  A 5 5 0 0 1 286.5 280.5 L 295.5 280.5  A 5 5 0 0 1 300.5 285.5 L 300.5 735.5  A 5 5 0 0 1 295.5 740.5 L 203 740.5  " stroke-width="1" stroke="#000000" fill="none" />
  <path d="M 281.5 294  A 3 3 0 0 0 278.5 297 A 3 3 0 0 0 281.5 300 A 3 3 0 0 0 284.5 297 A 3 3 0 0 0 281.5 294 Z " fill-rule="nonzero" fill="#000000" stroke="none" />
</svg>