<?xml version="1.0" encoding="utf-8"?>
<svg version="1.1" xmlns:xlink="http://www.w3.org/1999/xlink" width="10px" height="25px" preserveAspectRatio="xMidYMin meet" viewBox="209 205  8 25" xmlns="http://www.w3.org/2000/svg">
  <path d="M 213.5 229  L 213.5 215  A 5 5 0 0 1 218.5 210.5 L 225 210.5  A 5 5 0 0 1 230.5 215 L 230.5 607  A 3 3 0 0 1 233.5 610 A 3 3 0 0 1 230.5 613 L 230.5 648  A 5 5 0 0 1 225.5 653.5 L 206 653.5  " stroke-width="1" stroke="#000000" fill="none" />
  <path d="M 213.5 224  A 3 3 0 0 0 210.5 227 A 3 3 0 0 0 213.5 230 A 3 3 0 0 0 216.5 227 A 3 3 0 0 0 213.5 224 Z " fill-rule="nonzero" fill="#000000" stroke="none" />
</svg>