<?xml version="1.0" encoding="utf-8"?>
<svg version="1.1" xmlns:xlink="http://www.w3.org/1999/xlink" width="10px" height="440px" preserveAspectRatio="xMidYMin meet" viewBox="246 175  8 440" xmlns="http://www.w3.org/2000/svg">
  <path d="M 231.5 197  L 231.5 185  A 5 5 0 0 1 236.5 180.5 L 245 180.5  A 5 5 0 0 1 250.5 185.5 L 250.5 605  A 5 5 0 0 1 245.5 610.5 L 187 610.5  " stroke-width="1" stroke="#000000" fill="none" />
  <path d="M 231.5 192  A 3 3 0 0 0 228.5 195 A 3 3 0 0 0 231.5 198 A 3 3 0 0 0 234.5 195 A 3 3 0 0 0 231.5 192 Z " fill-rule="nonzero" fill="#000000" stroke="none" />
</svg>