<?xml version="1.0" encoding="utf-8"?>
<svg version="1.1" xmlns:xlink="http://www.w3.org/1999/xlink" width="18px" height="18px" preserveAspectRatio="xMinYMid meet" viewBox="257 290  18 16" xmlns="http://www.w3.org/2000/svg">
  <path d="M 266.5 300  L 266.5 285  A 5 5 0 0 1 271.5 280.5 L 275 280.5  A 5 5 0 0 1 280.5 285 L 280.5 709  A 3 3 0 0 1 283.5 712 A 3 3 0 0 1 280.5 715 L 280.5 735  A 5 5 0 0 1 275.5 740.5 L 203 740.5  " stroke-width="1" stroke="#000000" fill="none" />
  <path d="M 266.5 295  A 3 3 0 0 0 263.5 298 A 3 3 0 0 0 266.5 301 A 3 3 0 0 0 269.5 298 A 3 3 0 0 0 266.5 295 Z " fill-rule="nonzero" fill="#000000" stroke="none" />
</svg>