<?xml version="1.0" encoding="utf-8"?>
<svg version="1.1" xmlns:xlink="http://www.w3.org/1999/xlink" width="458px" height="24px" xmlns="http://www.w3.org/2000/svg">
  <defs>
    <mask fill="white" id="clip1979">
      <path d="M 0 20  L 0 4  C 0 1.75999999999999  2.2391111111111 0  5.08888888888889 0  L 452.911111111111 0  C 455.760888888889 0  458 1.75999999999999  458 4  L 458 20  C 458 22.24  455.760888888889 24  452.911111111111 24  L 147.607024265645 24  L 5.08888888888889 24  C 2.2391111111111 24  0 22.24  0 20  Z " fill-rule="evenodd" />
    </mask>
  </defs>
  <g transform="matrix(1 0 0 1 -550 -725 )">
    <path d="M 0 20  L 0 4  C 0 1.75999999999999  2.2391111111111 0  5.08888888888889 0  L 452.911111111111 0  C 455.760888888889 0  458 1.75999999999999  458 4  L 458 20  C 458 22.24  455.760888888889 24  452.911111111111 24  L 147.607024265645 24  L 5.08888888888889 24  C 2.2391111111111 24  0 22.24  0 20  Z " fill-rule="nonzero" fill="#ffffff" stroke="none" transform="matrix(1 0 0 1 550 725 )" />
    <path d="M 0 20  L 0 4  C 0 1.75999999999999  2.2391111111111 0  5.08888888888889 0  L 452.911111111111 0  C 455.760888888889 0  458 1.75999999999999  458 4  L 458 20  C 458 22.24  455.760888888889 24  452.911111111111 24  L 147.607024265645 24  L 5.08888888888889 24  C 2.2391111111111 24  0 22.24  0 20  Z " stroke-width="2" stroke="#d7d7d7" fill="none" transform="matrix(1 0 0 1 550 725 )" mask="url(#clip1979)" />
  </g>
</svg>