<?xml version="1.0" encoding="utf-8"?>
<svg version="1.1" xmlns:xlink="http://www.w3.org/1999/xlink" width="22px" height="10px" preserveAspectRatio="xMinYMid meet" viewBox="1795 924  22 8" xmlns="http://www.w3.org/2000/svg">
  <path d="M 1677.5 931  L 1677.5 925  A 5 5 0 0 1 1682.5 920.5 L 1796 920.5  A 4 4 0 0 1 1800.5 924.5 A 4 4 0 0 0 1804.5 928.5 L 1817 928.5  " stroke-width="1" stroke="#333333" fill="none" />
  <path d="M 1677.5 926  A 3 3 0 0 0 1674.5 929 A 3 3 0 0 0 1677.5 932 A 3 3 0 0 0 1680.5 929 A 3 3 0 0 0 1677.5 926 Z " fill-rule="nonzero" fill="#333333" stroke="none" />
</svg>