<?xml version="1.0" encoding="utf-8"?>
<svg version="1.1" xmlns:xlink="http://www.w3.org/1999/xlink" width="10px" height="74px" preserveAspectRatio="xMidYMin meet" viewBox="1476 91  8 74" xmlns="http://www.w3.org/2000/svg">
  <path d="M 1248.5 146  L 1248.5 155  A 5 5 0 0 0 1253.5 160.5 L 1475 160.5  A 5 5 0 0 0 1480.5 155.5 L 1480.5 101  A 5 5 0 0 1 1485.5 96.5 L 1492 96.5  " stroke-width="1" stroke="#000000" fill="none" />
  <path d="M 1248.5 145  A 3 3 0 0 0 1245.5 148 A 3 3 0 0 0 1248.5 151 A 3 3 0 0 0 1251.5 148 A 3 3 0 0 0 1248.5 145 Z " fill-rule="nonzero" fill="#000000" stroke="none" />
</svg>