<?xml version="1.0" encoding="utf-8"?>
<svg version="1.1" xmlns:xlink="http://www.w3.org/1999/xlink" width="332px" height="10px" preserveAspectRatio="xMinYMid meet" viewBox="1143 324  332 8" xmlns="http://www.w3.org/2000/svg">
  <path d="M 1148.5 338  L 1148.5 333  A 5 5 0 0 1 1153.5 328.5 L 1465 328.5  A 5 5 0 0 1 1470.5 333.5 L 1470.5 397  A 5 5 0 0 0 1475.5 402.5 L 1489 402.5  " stroke-width="1" stroke="#000000" fill="none" />
  <path d="M 1148.5 333  A 3 3 0 0 0 1145.5 336 A 3 3 0 0 0 1148.5 339 A 3 3 0 0 0 1151.5 336 A 3 3 0 0 0 1148.5 333 Z " fill-rule="nonzero" fill="#000000" stroke="none" />
</svg>