<?xml version="1.0" encoding="utf-8"?>
<svg version="1.1" xmlns:xlink="http://www.w3.org/1999/xlink" width="12px" height="12px" viewBox="1621 327  12 12" xmlns="http://www.w3.org/2000/svg">
  <path d="M 1627 327  C 1630.36 327  1633 329.64  1633 333  C 1633 336.36  1630.36 339  1627 339  C 1623.64 339  1621 336.36  1621 333  C 1621 329.64  1623.64 327  1627 327  Z " fill-rule="nonzero" fill="#ffffff" stroke="none" />
  <path d="M 1627 327.5  C 1630.08 327.5  1632.5 329.92  1632.5 333  C 1632.5 336.08  1630.08 338.5  1627 338.5  C 1623.92 338.5  1621.5 336.08  1621.5 333  C 1621.5 329.92  1623.92 327.5  1627 327.5  Z " stroke-width="1" stroke="#797979" fill="none" />
  <path d="M 1627 336  C 1625.32 336  1624 334.68  1624 333  C 1624 331.32  1625.32 330  1627 330  C 1628.68 330  1630 331.32  1630 333  C 1630 334.68  1628.68 336  1627 336  " fill-rule="nonzero" fill="#797979" stroke="none" />
</svg>