<?xml version="1.0" encoding="utf-8"?>
<svg version="1.1" xmlns:xlink="http://www.w3.org/1999/xlink" width="10px" height="44px" preserveAspectRatio="xMidYMin meet" viewBox="918 216  8 44" xmlns="http://www.w3.org/2000/svg">
  <path d="M 913 255.5  L 917 255.5  A 5 5 0 0 0 922.5 250.5 L 922.5 226  A 5 5 0 0 1 927.5 221.5 L 1468 221.5  A 5 5 0 0 0 1473.5 216.5 L 1473.5 132  A 5 5 0 0 1 1478.5 127.5 L 1483 127.5  " stroke-width="1" stroke="#333333" fill="none" />
  <path d="M 915 252.5  A 3 3 0 0 0 912 255.5 A 3 3 0 0 0 915 258.5 A 3 3 0 0 0 918 255.5 A 3 3 0 0 0 915 252.5 Z " fill-rule="nonzero" fill="#333333" stroke="none" />
</svg>