<?xml version="1.0" encoding="utf-8"?>
<svg version="1.1" xmlns:xlink="http://www.w3.org/1999/xlink" width="12px" height="12px" viewBox="1804 327  12 12" xmlns="http://www.w3.org/2000/svg">
  <path d="M 1810 327  C 1813.36 327  1816 329.64  1816 333  C 1816 336.36  1813.36 339  1810 339  C 1806.64 339  1804 336.36  1804 333  C 1804 329.64  1806.64 327  1810 327  Z " fill-rule="nonzero" fill="#ffffff" stroke="none" />
  <path d="M 1810 327.5  C 1813.08 327.5  1815.5 329.92  1815.5 333  C 1815.5 336.08  1813.08 338.5  1810 338.5  C 1806.92 338.5  1804.5 336.08  1804.5 333  C 1804.5 329.92  1806.92 327.5  1810 327.5  Z " stroke-width="1" stroke="#797979" fill="none" />
  <path d="M 1810 336  C 1808.32 336  1807 334.68  1807 333  C 1807 331.32  1808.32 330  1810 330  C 1811.68 330  1813 331.32  1813 333  C 1813 334.68  1811.68 336  1810 336  " fill-rule="nonzero" fill="#797979" stroke="none" />
</svg>