<?xml version="1.0" encoding="utf-8"?>
<svg version="1.1" xmlns:xlink="http://www.w3.org/1999/xlink" width="18px" height="18px" preserveAspectRatio="xMinYMid meet" viewBox="1183 149  18 16" xmlns="http://www.w3.org/2000/svg">
  <path d="M 1190.48158409039 157.665129161056  A 3 3 0 0 1 1192.5 160.5 L 1192.5 545  A 5 5 0 0 1 1187.5 550.5 L 1023.5 550.5  A 0.5 0.5 0 0 1 1023.5 550 L 1023.5 549  " stroke-width="1" stroke="#000000" fill="none" />
  <path d="M 1192.02441295442 155.879093082396  A 3 3 0 0 0 1189.02441295442 158.879093082396 A 3 3 0 0 0 1192.02441295442 161.879093082396 A 3 3 0 0 0 1195.02441295442 158.879093082396 A 3 3 0 0 0 1192.02441295442 155.879093082396 Z " fill-rule="nonzero" fill="#000000" stroke="none" />
</svg>