<?xml version="1.0" encoding="utf-8"?>
<svg version="1.1" xmlns:xlink="http://www.w3.org/1999/xlink" width="71px" height="10px" preserveAspectRatio="xMinYMid meet" viewBox="367 417.505376344086  71 8" xmlns="http://www.w3.org/2000/svg">
  <path d="M 437 161.5  L 377 161.5  A 5 5 0 0 0 372.5 166.5 L 372.5 416.505376344086  A 5 5 0 0 0 377.5 422.005376344086 L 432.752688172043 422.005376344086  A 0.247311827956992 0.247311827956992 0 0 1 433.5 422.252688172043 L 433.5 422  " stroke-width="1" stroke="#000000" fill="none" />
  <path d="M 435 158.5  A 3 3 0 0 0 432 161.5 A 3 3 0 0 0 435 164.5 A 3 3 0 0 0 438 161.5 A 3 3 0 0 0 435 158.5 Z " fill-rule="nonzero" fill="#000000" stroke="none" />
</svg>