<?xml version="1.0" encoding="utf-8"?>
<svg version="1.1" xmlns:xlink="http://www.w3.org/1999/xlink" width="93px" height="10px" preserveAspectRatio="xMinYMid meet" viewBox="1023 543.126436781609  93 8" xmlns="http://www.w3.org/2000/svg">
  <path d="M 1053 164.5  L 1106 164.5  A 5 5 0 0 1 1111.5 169.5 L 1111.5 542.126436781609  A 5 5 0 0 1 1106.5 547.626436781609 L 1029.9367816092 547.626436781609  A 1.93678160919541 1.93678160919541 0 0 0 1028.5 549.563218390805 L 1028.5 551  " stroke-width="1" stroke="#000000" fill="none" />
  <path d="M 1055 161.5  A 3 3 0 0 0 1052 164.5 A 3 3 0 0 0 1055 167.5 A 3 3 0 0 0 1058 164.5 A 3 3 0 0 0 1055 161.5 Z " fill-rule="nonzero" fill="#000000" stroke="none" />
</svg>