<?xml version="1.0" encoding="utf-8"?>
<svg version="1.1" xmlns:xlink="http://www.w3.org/1999/xlink" width="14px" height="14px" xmlns="http://www.w3.org/2000/svg">
  <g transform="matrix(1 0 0 1 -847 -317 )">
    <path d="M 854 317  C 857.92 317  861 320.08  861 324  C 861 327.92  857.92 331  854 331  C 850.08 331  847 327.92  847 324  C 847 320.08  850.08 317  854 317  Z " fill-rule="nonzero" fill="#ffffff" stroke="none" />
    <path d="M 854 317.5  C 857.64 317.5  860.5 320.36  860.5 324  C 860.5 327.64  857.64 330.5  854 330.5  C 850.36 330.5  847.5 327.64  847.5 324  C 847.5 320.36  850.36 317.5  854 317.5  Z " stroke-width="1" stroke="#797979" fill="none" />
  </g>
</svg>