<?xml version="1.0" encoding="utf-8"?>
<svg version="1.1" xmlns:xlink="http://www.w3.org/1999/xlink" width="12px" height="12px" viewBox="1350 172  12 12" xmlns="http://www.w3.org/2000/svg">
  <path d="M 1356 172  C 1359.36 172  1362 174.64  1362 178  C 1362 181.36  1359.36 184  1356 184  C 1352.64 184  1350 181.36  1350 178  C 1350 174.64  1352.64 172  1356 172  Z " fill-rule="nonzero" fill="#f0f0f0" stroke="none" />
  <path d="M 1356 172.5  C 1359.08 172.5  1361.5 174.92  1361.5 178  C 1361.5 181.08  1359.08 183.5  1356 183.5  C 1352.92 183.5  1350.5 181.08  1350.5 178  C 1350.5 174.92  1352.92 172.5  1356 172.5  Z " stroke-width="1" stroke="#797979" fill="none" />
  <path d="M 1356 181  C 1354.32 181  1353 179.68  1353 178  C 1353 176.32  1354.32 175  1356 175  C 1357.68 175  1359 176.32  1359 178  C 1359 179.68  1357.68 181  1356 181  " fill-rule="nonzero" fill="#797979" stroke="none" />
</svg>