<?xml version="1.0" encoding="utf-8"?>
<svg version="1.1" xmlns:xlink="http://www.w3.org/1999/xlink" width="12px" height="12px" viewBox="1423 172  12 12" xmlns="http://www.w3.org/2000/svg">
  <path d="M 1429 172  C 1432.36 172  1435 174.64  1435 178  C 1435 181.36  1432.36 184  1429 184  C 1425.64 184  1423 181.36  1423 178  C 1423 174.64  1425.64 172  1429 172  Z " fill-rule="nonzero" fill="#ffffff" stroke="none" />
  <path d="M 1429 172.5  C 1432.08 172.5  1434.5 174.92  1434.5 178  C 1434.5 181.08  1432.08 183.5  1429 183.5  C 1425.92 183.5  1423.5 181.08  1423.5 178  C 1423.5 174.92  1425.92 172.5  1429 172.5  Z " stroke-width="1" stroke="#797979" fill="none" />
  <path d="M 1429 181  C 1427.32 181  1426 179.68  1426 178  C 1426 176.32  1427.32 175  1429 175  C 1430.68 175  1432 176.32  1432 178  C 1432 179.68  1430.68 181  1429 181  " fill-rule="nonzero" fill="#797979" stroke="none" />
</svg>