<?xml version="1.0" encoding="utf-8"?>
<svg version="1.1" xmlns:xlink="http://www.w3.org/1999/xlink" width="12px" height="12px" viewBox="1238 804  12 12" xmlns="http://www.w3.org/2000/svg">
  <path d="M 1244 804  C 1247.36 804  1250 806.64  1250 810  C 1250 813.36  1247.36 816  1244 816  C 1240.64 816  1238 813.36  1238 810  C 1238 806.64  1240.64 804  1244 804  Z " fill-rule="nonzero" fill="#ffffff" stroke="none" />
  <path d="M 1244 804.5  C 1247.08 804.5  1249.5 806.92  1249.5 810  C 1249.5 813.08  1247.08 815.5  1244 815.5  C 1240.92 815.5  1238.5 813.08  1238.5 810  C 1238.5 806.92  1240.92 804.5  1244 804.5  Z " stroke-width="1" stroke="#797979" fill="none" />
  <path d="M 1244 813  C 1242.32 813  1241 811.68  1241 810  C 1241 808.32  1242.32 807  1244 807  C 1245.68 807  1247 808.32  1247 810  C 1247 811.68  1245.68 813  1244 813  " fill-rule="nonzero" fill="#797979" stroke="none" />
</svg>