<?xml version="1.0" encoding="utf-8"?>
<svg version="1.1" xmlns:xlink="http://www.w3.org/1999/xlink" width="12px" height="12px" viewBox="1344 804  12 12" xmlns="http://www.w3.org/2000/svg">
  <path d="M 1350 804  C 1353.36 804  1356 806.64  1356 810  C 1356 813.36  1353.36 816  1350 816  C 1346.64 816  1344 813.36  1344 810  C 1344 806.64  1346.64 804  1350 804  Z " fill-rule="nonzero" fill="#ffffff" stroke="none" />
  <path d="M 1350 804.5  C 1353.08 804.5  1355.5 806.92  1355.5 810  C 1355.5 813.08  1353.08 815.5  1350 815.5  C 1346.92 815.5  1344.5 813.08  1344.5 810  C 1344.5 806.92  1346.92 804.5  1350 804.5  Z " stroke-width="1" stroke="#797979" fill="none" />
  <path d="M 1350 813  C 1348.32 813  1347 811.68  1347 810  C 1347 808.32  1348.32 807  1350 807  C 1351.68 807  1353 808.32  1353 810  C 1353 811.68  1351.68 813  1350 813  " fill-rule="nonzero" fill="#797979" stroke="none" />
</svg>