<?xml version="1.0" encoding="utf-8"?>
<svg version="1.1" xmlns:xlink="http://www.w3.org/1999/xlink" width="12px" height="12px" viewBox="1417 804  12 12" xmlns="http://www.w3.org/2000/svg">
  <path d="M 1423 804  C 1426.36 804  1429 806.64  1429 810  C 1429 813.36  1426.36 816  1423 816  C 1419.64 816  1417 813.36  1417 810  C 1417 806.64  1419.64 804  1423 804  Z " fill-rule="nonzero" fill="#ffffff" stroke="none" />
  <path d="M 1423 804.5  C 1426.08 804.5  1428.5 806.92  1428.5 810  C 1428.5 813.08  1426.08 815.5  1423 815.5  C 1419.92 815.5  1417.5 813.08  1417.5 810  C 1417.5 806.92  1419.92 804.5  1423 804.5  Z " stroke-width="1" stroke="#797979" fill="none" />
  <path d="M 1423 813  C 1421.32 813  1420 811.68  1420 810  C 1420 808.32  1421.32 807  1423 807  C 1424.68 807  1426 808.32  1426 810  C 1426 811.68  1424.68 813  1423 813  " fill-rule="nonzero" fill="#797979" stroke="none" />
</svg>