<?xml version="1.0" encoding="utf-8"?>
<svg version="1.1" xmlns:xlink="http://www.w3.org/1999/xlink" width="12px" height="12px" viewBox="1350 573  12 12" xmlns="http://www.w3.org/2000/svg">
  <path d="M 1356 573  C 1359.36 573  1362 575.64  1362 579  C 1362 582.36  1359.36 585  1356 585  C 1352.64 585  1350 582.36  1350 579  C 1350 575.64  1352.64 573  1356 573  Z " fill-rule="nonzero" fill="#f0f0f0" stroke="none" />
  <path d="M 1356 573.5  C 1359.08 573.5  1361.5 575.92  1361.5 579  C 1361.5 582.08  1359.08 584.5  1356 584.5  C 1352.92 584.5  1350.5 582.08  1350.5 579  C 1350.5 575.92  1352.92 573.5  1356 573.5  Z " stroke-width="1" stroke="#797979" fill="none" />
  <path d="M 1356 582  C 1354.32 582  1353 580.68  1353 579  C 1353 577.32  1354.32 576  1356 576  C 1357.68 576  1359 577.32  1359 579  C 1359 580.68  1357.68 582  1356 582  " fill-rule="nonzero" fill="#797979" stroke="none" />
</svg>