<?xml version="1.0" encoding="utf-8"?>
<svg version="1.1" xmlns:xlink="http://www.w3.org/1999/xlink" width="14px" height="171px" xmlns="http://www.w3.org/2000/svg">
  <defs>
    <mask fill="white" id="clip957">
      <path d="M 0 170  L 0 74  L 0 0  L 13 0  L 13 85.1111111111111  L 13 170  L 0 170  Z " fill-rule="evenodd" />
    </mask>
  </defs>
  <g transform="matrix(1 0 0 1 -1451 -886 )">
    <path d="M 0 170  L 0 74  L 0 0  L 13 0  L 13 85.1111111111111  L 13 170  L 0 170  Z " fill-rule="nonzero" fill="#f2f2f2" stroke="none" transform="matrix(1 0 0 1 1451 886 )" />
    <path d="M 0 170  L 0 74  L 0 0  L 13 0  L 13 85.1111111111111  L 13 170  L 0 170  Z " stroke-width="2" stroke="#d7d7d7" fill="none" transform="matrix(1 0 0 1 1451 886 )" mask="url(#clip957)" />
    <path d="M 12.7069888550029 3.83168420380628  L 0.293011144997081 166.168315796194  M 0.293011144997081 3.83168420380628  L 12.7069888550029 166.168315796194  " stroke-width="1" stroke="#d7d7d7" fill="none" transform="matrix(1 0 0 1 1451 886 )" />
  </g>
</svg>