<?xml version="1.0" encoding="utf-8"?>
<svg version="1.1" xmlns:xlink="http://www.w3.org/1999/xlink" width="12px" height="12px" viewBox="1244 1033  12 12" xmlns="http://www.w3.org/2000/svg">
  <path d="M 1250 1033  C 1253.36 1033  1256 1035.64  1256 1039  C 1256 1042.36  1253.36 1045  1250 1045  C 1246.64 1045  1244 1042.36  1244 1039  C 1244 1035.64  1246.64 1033  1250 1033  Z " fill-rule="nonzero" fill="#f0f0f0" stroke="none" />
  <path d="M 1250 1033.5  C 1253.08 1033.5  1255.5 1035.92  1255.5 1039  C 1255.5 1042.08  1253.08 1044.5  1250 1044.5  C 1246.92 1044.5  1244.5 1042.08  1244.5 1039  C 1244.5 1035.92  1246.92 1033.5  1250 1033.5  Z " stroke-width="1" stroke="#797979" fill="none" />
  <path d="M 1250 1042  C 1248.32 1042  1247 1040.68  1247 1039  C 1247 1037.32  1248.32 1036  1250 1036  C 1251.68 1036  1253 1037.32  1253 1039  C 1253 1040.68  1251.68 1042  1250 1042  " fill-rule="nonzero" fill="#797979" stroke="none" />
</svg>