<?xml version="1.0" encoding="utf-8"?>
<svg version="1.1" xmlns:xlink="http://www.w3.org/1999/xlink" width="12px" height="12px" viewBox="1423 1033  12 12" xmlns="http://www.w3.org/2000/svg">
  <path d="M 1429 1033  C 1432.36 1033  1435 1035.64  1435 1039  C 1435 1042.36  1432.36 1045  1429 1045  C 1425.64 1045  1423 1042.36  1423 1039  C 1423 1035.64  1425.64 1033  1429 1033  Z " fill-rule="nonzero" fill="#ffffff" stroke="none" />
  <path d="M 1429 1033.5  C 1432.08 1033.5  1434.5 1035.92  1434.5 1039  C 1434.5 1042.08  1432.08 1044.5  1429 1044.5  C 1425.92 1044.5  1423.5 1042.08  1423.5 1039  C 1423.5 1035.92  1425.92 1033.5  1429 1033.5  Z " stroke-width="1" stroke="#797979" fill="none" />
  <path d="M 1429 1042  C 1427.32 1042  1426 1040.68  1426 1039  C 1426 1037.32  1427.32 1036  1429 1036  C 1430.68 1036  1432 1037.32  1432 1039  C 1432 1040.68  1430.68 1042  1429 1042  " fill-rule="nonzero" fill="#797979" stroke="none" />
</svg>