<?xml version="1.0" encoding="utf-8"?>
<svg version="1.1" xmlns:xlink="http://www.w3.org/1999/xlink" width="12px" height="12px" viewBox="1239 170  12 12" xmlns="http://www.w3.org/2000/svg">
  <path d="M 1245 170  C 1248.36 170  1251 172.64  1251 176  C 1251 179.36  1248.36 182  1245 182  C 1241.64 182  1239 179.36  1239 176  C 1239 172.64  1241.64 170  1245 170  Z " fill-rule="nonzero" fill="#f0f0f0" stroke="none" />
  <path d="M 1245 170.5  C 1248.08 170.5  1250.5 172.92  1250.5 176  C 1250.5 179.08  1248.08 181.5  1245 181.5  C 1241.92 181.5  1239.5 179.08  1239.5 176  C 1239.5 172.92  1241.92 170.5  1245 170.5  Z " stroke-width="1" stroke="#797979" fill="none" />
  <path d="M 1245 179  C 1243.32 179  1242 177.68  1242 176  C 1242 174.32  1243.32 173  1245 173  C 1246.68 173  1248 174.32  1248 176  C 1248 177.68  1246.68 179  1245 179  " fill-rule="nonzero" fill="#797979" stroke="none" />
</svg>