<?xml version="1.0" encoding="utf-8"?>
<svg version="1.1" xmlns:xlink="http://www.w3.org/1999/xlink" width="12px" height="12px" viewBox="1418 170  12 12" xmlns="http://www.w3.org/2000/svg">
  <path d="M 1424 170  C 1427.36 170  1430 172.64  1430 176  C 1430 179.36  1427.36 182  1424 182  C 1420.64 182  1418 179.36  1418 176  C 1418 172.64  1420.64 170  1424 170  Z " fill-rule="nonzero" fill="#ffffff" stroke="none" />
  <path d="M 1424 170.5  C 1427.08 170.5  1429.5 172.92  1429.5 176  C 1429.5 179.08  1427.08 181.5  1424 181.5  C 1420.92 181.5  1418.5 179.08  1418.5 176  C 1418.5 172.92  1420.92 170.5  1424 170.5  Z " stroke-width="1" stroke="#797979" fill="none" />
  <path d="M 1424 179  C 1422.32 179  1421 177.68  1421 176  C 1421 174.32  1422.32 173  1424 173  C 1425.68 173  1427 174.32  1427 176  C 1427 177.68  1425.68 179  1424 179  " fill-rule="nonzero" fill="#797979" stroke="none" />
</svg>