<?xml version="1.0" encoding="utf-8"?>
<svg version="1.1" xmlns:xlink="http://www.w3.org/1999/xlink" width="41px" height="25px" xmlns="http://www.w3.org/2000/svg">
  <defs>
    <mask fill="white" id="clip523">
      <path d="M 0 24  L 0 0  L 22.4364123159304 0  L 40 0  L 40 24  L 0 24  Z " fill-rule="evenodd" />
    </mask>
  </defs>
  <g transform="matrix(1 0 0 1 -214 -158 )">
    <path d="M 0 24  L 0 0  L 22.4364123159304 0  L 40 0  L 40 24  L 0 24  Z " fill-rule="nonzero" fill="#f2f2f2" stroke="none" transform="matrix(1 0 0 1 214 158 )" />
    <path d="M 0 24  L 0 0  L 22.4364123159304 0  L 40 0  L 40 24  L 0 24  Z " stroke-width="2" stroke="#d7d7d7" fill="none" transform="matrix(1 0 0 1 214 158 )" mask="url(#clip523)" />
    <path d="M 39.3771589010969 0.373704659341826  L 0.622841098903058 23.6262953406582  M 0.622841098903058 0.373704659341826  L 39.3771589010969 23.6262953406582  " stroke-width="1" stroke="#d7d7d7" fill="none" transform="matrix(1 0 0 1 214 158 )" />
  </g>
</svg>