<?xml version="1.0" encoding="utf-8"?>
<svg version="1.1" xmlns:xlink="http://www.w3.org/1999/xlink" width="12px" height="12px" viewBox="1238 1433  12 12" xmlns="http://www.w3.org/2000/svg">
  <path d="M 1244 1433  C 1247.36 1433  1250 1435.64  1250 1439  C 1250 1442.36  1247.36 1445  1244 1445  C 1240.64 1445  1238 1442.36  1238 1439  C 1238 1435.64  1240.64 1433  1244 1433  Z " fill-rule="nonzero" fill="#ffffff" stroke="none" />
  <path d="M 1244 1433.5  C 1247.08 1433.5  1249.5 1435.92  1249.5 1439  C 1249.5 1442.08  1247.08 1444.5  1244 1444.5  C 1240.92 1444.5  1238.5 1442.08  1238.5 1439  C 1238.5 1435.92  1240.92 1433.5  1244 1433.5  Z " stroke-width="1" stroke="#797979" fill="none" />
  <path d="M 1244 1442  C 1242.32 1442  1241 1440.68  1241 1439  C 1241 1437.32  1242.32 1436  1244 1436  C 1245.68 1436  1247 1437.32  1247 1439  C 1247 1440.68  1245.68 1442  1244 1442  " fill-rule="nonzero" fill="#797979" stroke="none" />
</svg>