<?xml version="1.0" encoding="utf-8"?>
<svg version="1.1" xmlns:xlink="http://www.w3.org/1999/xlink" width="12px" height="12px" viewBox="1344 1433  12 12" xmlns="http://www.w3.org/2000/svg">
  <path d="M 1350 1433  C 1353.36 1433  1356 1435.64  1356 1439  C 1356 1442.36  1353.36 1445  1350 1445  C 1346.64 1445  1344 1442.36  1344 1439  C 1344 1435.64  1346.64 1433  1350 1433  Z " fill-rule="nonzero" fill="#f0f0f0" stroke="none" />
  <path d="M 1350 1433.5  C 1353.08 1433.5  1355.5 1435.92  1355.5 1439  C 1355.5 1442.08  1353.08 1444.5  1350 1444.5  C 1346.92 1444.5  1344.5 1442.08  1344.5 1439  C 1344.5 1435.92  1346.92 1433.5  1350 1433.5  Z " stroke-width="1" stroke="#797979" fill="none" />
  <path d="M 1350 1442  C 1348.32 1442  1347 1440.68  1347 1439  C 1347 1437.32  1348.32 1436  1350 1436  C 1351.68 1436  1353 1437.32  1353 1439  C 1353 1440.68  1351.68 1442  1350 1442  " fill-rule="nonzero" fill="#797979" stroke="none" />
</svg>