<?xml version="1.0" encoding="utf-8"?>
<svg version="1.1" xmlns:xlink="http://www.w3.org/1999/xlink" width="12px" height="12px" viewBox="1417 1433  12 12" xmlns="http://www.w3.org/2000/svg">
  <path d="M 1423 1433  C 1426.36 1433  1429 1435.64  1429 1439  C 1429 1442.36  1426.36 1445  1423 1445  C 1419.64 1445  1417 1442.36  1417 1439  C 1417 1435.64  1419.64 1433  1423 1433  Z " fill-rule="nonzero" fill="#f0f0f0" stroke="none" />
  <path d="M 1423 1433.5  C 1426.08 1433.5  1428.5 1435.92  1428.5 1439  C 1428.5 1442.08  1426.08 1444.5  1423 1444.5  C 1419.92 1444.5  1417.5 1442.08  1417.5 1439  C 1417.5 1435.92  1419.92 1433.5  1423 1433.5  Z " stroke-width="1" stroke="#797979" fill="none" />
  <path d="M 1423 1442  C 1421.32 1442  1420 1440.68  1420 1439  C 1420 1437.32  1421.32 1436  1423 1436  C 1424.68 1436  1426 1437.32  1426 1439  C 1426 1440.68  1424.68 1442  1423 1442  " fill-rule="nonzero" fill="#797979" stroke="none" />
</svg>