<?xml version="1.0" encoding="utf-8"?>
<svg version="1.1" xmlns:xlink="http://www.w3.org/1999/xlink" width="26px" height="10px" preserveAspectRatio="xMinYMid meet" viewBox="800 599  26 8" xmlns="http://www.w3.org/2000/svg">
  <path d="M 800 153.5  L 816.428571428571 153.5  A 5 5 0 0 1 821.928571428571 158.5 L 821.928571428571 464.785714285714  A 0.214285714285722 0.214285714285722 0 0 1 821.714285714286 465.5 A 0.214285714285779 0.214285714285779 0 0 0 821.5 465.714285714286 L 821.5 598  A 5 5 0 0 1 816.5 603.5 L 810 603.5  A 5 5 0 0 0 805.5 608.5 L 805.5 613  " stroke-width="1" stroke="#000000" fill="none" />
  <path d="M 802 150.5  A 3 3 0 0 0 799 153.5 A 3 3 0 0 0 802 156.5 A 3 3 0 0 0 805 153.5 A 3 3 0 0 0 802 150.5 Z " fill-rule="nonzero" fill="#000000" stroke="none" />
</svg>