<?xml version="1.0" encoding="utf-8"?>
<svg version="1.1" xmlns:xlink="http://www.w3.org/1999/xlink" width="126px" height="10px" preserveAspectRatio="xMinYMid meet" viewBox="1730 184  126 8" xmlns="http://www.w3.org/2000/svg">
  <path d="M 1735.66512916106 190.518415909612  A 3 3 0 0 1 1738.5 188.5 L 1846 188.5  A 5 5 0 0 1 1851.5 193.5 L 1851.5 254  A 5 5 0 0 0 1856.5 259.5 L 1861 259.5  " stroke-width="1" stroke="#555555" fill="none" />
  <path d="M 1736.8790930824 185.975587045576  A 3 3 0 0 0 1733.8790930824 188.975587045576 A 3 3 0 0 0 1736.8790930824 191.975587045576 A 3 3 0 0 0 1739.8790930824 188.975587045576 A 3 3 0 0 0 1736.8790930824 185.975587045576 Z " fill-rule="nonzero" fill="#555555" stroke="none" />
</svg>