<?xml version="1.0" encoding="utf-8"?>
<svg version="1.1" xmlns:xlink="http://www.w3.org/1999/xlink" width="48px" height="10px" preserveAspectRatio="xMinYMid meet" viewBox="1813 696  48 8" xmlns="http://www.w3.org/2000/svg">
  <path d="M 1713.95969769413 263.341470984808  A 1 1 0 0 0 1714.5 263.5 L 1813 263.5  A 5 5 0 0 1 1818.5 268.5 L 1818.5 695  A 5 5 0 0 0 1823.5 700.5 L 1861 700.5  " stroke-width="1" stroke="#555555" fill="none" />
  <path d="M 1715.42920367321 260.5  A 3 3 0 0 0 1712.42920367321 263.5 A 3 3 0 0 0 1715.42920367321 266.5 A 3 3 0 0 0 1718.42920367321 263.5 A 3 3 0 0 0 1715.42920367321 260.5 Z " fill-rule="nonzero" fill="#555555" stroke="none" />
</svg>