<?xml version="1.0" encoding="utf-8"?>
<svg version="1.1" xmlns:xlink="http://www.w3.org/1999/xlink" width="10px" height="53px" preserveAspectRatio="xMidYMin meet" viewBox="1338 1  8 53" xmlns="http://www.w3.org/2000/svg">
  <path d="M 1037 30.5  L 1041 30.5  A 5 5 0 0 0 1046.5 25.5 L 1046.5 11  A 5 5 0 0 1 1051.5 6.5 L 1337 6.5  A 5 5 0 0 1 1342.5 11.5 L 1342.5 54  " stroke-width="1" stroke="#000000" fill="none" />
  <path d="M 1039 27.5  A 3 3 0 0 0 1036 30.5 A 3 3 0 0 0 1039 33.5 A 3 3 0 0 0 1042 30.5 A 3 3 0 0 0 1039 27.5 Z " fill-rule="nonzero" fill="#000000" stroke="none" />
</svg>