<?xml version="1.0" encoding="utf-8"?>
<svg version="1.1" xmlns:xlink="http://www.w3.org/1999/xlink" width="10px" height="495px" preserveAspectRatio="xMidYMin meet" viewBox="636 192  8 495" xmlns="http://www.w3.org/2000/svg">
  <path d="M 980 682.5  L 773 682.5  A 3 3 0 0 0 770 679.5 A 3 3 0 0 0 767 682.5 L 645 682.5  A 5 5 0 0 1 640.5 677.5 L 640.5 193  " stroke-width="1" stroke="#000000" fill="none" />
  <path d="M 640.5 192  A 3 3 0 0 0 637.5 195 A 3 3 0 0 0 640.5 198 A 3 3 0 0 0 643.5 195 A 3 3 0 0 0 640.5 192 Z " fill-rule="nonzero" fill="#000000" stroke="none" />
</svg>