<?xml version="1.0" encoding="utf-8"?>
<svg version="1.1" xmlns:xlink="http://www.w3.org/1999/xlink" width="100px" height="60px" xmlns="http://www.w3.org/2000/svg">
  <g transform="matrix(1 0 0 1 -31 -151 )">
    <path d="M 81 151  C 109 151  131 164.2  131 181  C 131 197.8  109 211  81 211  C 53 211  31 197.8  31 181  C 31 164.2  53 151  81 151  Z " fill-rule="nonzero" fill="#ffffff" stroke="none" />
    <path d="M 81 151.5  C 108.72 151.5  130.5 164.48  130.5 181  C 130.5 197.52  108.72 210.5  81 210.5  C 53.28 210.5  31.5 197.52  31.5 181  C 31.5 164.48  53.28 151.5  81 151.5  Z " stroke-width="1" stroke="#797979" fill="none" />
  </g>
</svg>