<?xml version="1.0" encoding="utf-8"?>
<svg version="1.1" xmlns:xlink="http://www.w3.org/1999/xlink" width="12px" height="12px" viewBox="2207 213  12 12" xmlns="http://www.w3.org/2000/svg">
  <path d="M 2213 213  C 2216.36 213  2219 215.64  2219 219  C 2219 222.36  2216.36 225  2213 225  C 2209.64 225  2207 222.36  2207 219  C 2207 215.64  2209.64 213  2213 213  Z " fill-rule="nonzero" fill="#ffffff" stroke="none" />
  <path d="M 2213 213.5  C 2216.08 213.5  2218.5 215.92  2218.5 219  C 2218.5 222.08  2216.08 224.5  2213 224.5  C 2209.92 224.5  2207.5 222.08  2207.5 219  C 2207.5 215.92  2209.92 213.5  2213 213.5  Z " stroke-width="1" stroke="#797979" fill="none" />
  <path d="M 2213 222  C 2211.32 222  2210 220.68  2210 219  C 2210 217.32  2211.32 216  2213 216  C 2214.68 216  2216 217.32  2216 219  C 2216 220.68  2214.68 222  2213 222  " fill-rule="nonzero" fill="#797979" stroke="none" />
</svg>