<?xml version="1.0" encoding="utf-8"?>
<svg version="1.1" xmlns:xlink="http://www.w3.org/1999/xlink" width="12px" height="12px" viewBox="2380 213  12 12" xmlns="http://www.w3.org/2000/svg">
  <path d="M 2386 213  C 2389.36 213  2392 215.64  2392 219  C 2392 222.36  2389.36 225  2386 225  C 2382.64 225  2380 222.36  2380 219  C 2380 215.64  2382.64 213  2386 213  Z " fill-rule="nonzero" fill="#ffffff" stroke="none" />
  <path d="M 2386 213.5  C 2389.08 213.5  2391.5 215.92  2391.5 219  C 2391.5 222.08  2389.08 224.5  2386 224.5  C 2382.92 224.5  2380.5 222.08  2380.5 219  C 2380.5 215.92  2382.92 213.5  2386 213.5  Z " stroke-width="1" stroke="#797979" fill="none" />
  <path d="M 2386 222  C 2384.32 222  2383 220.68  2383 219  C 2383 217.32  2384.32 216  2386 216  C 2387.68 216  2389 217.32  2389 219  C 2389 220.68  2387.68 222  2386 222  " fill-rule="nonzero" fill="#797979" stroke="none" />
</svg>