<?xml version="1.0" encoding="utf-8"?>
<svg version="1.1" xmlns:xlink="http://www.w3.org/1999/xlink" width="10px" height="24px" preserveAspectRatio="xMidYMin meet" viewBox="1681 945  8 24" xmlns="http://www.w3.org/2000/svg">
  <path d="M 1685.5 968  L 1685.5 955  A 5 5 0 0 1 1690.5 950.5 L 1805 950.5  A 5 5 0 0 1 1810.5 955.5 L 1810.5 960  A 5 5 0 0 0 1815.5 965.5 L 1825 965.5  " stroke-width="1" stroke="#333333" fill="none" />
  <path d="M 1685.5 963  A 3 3 0 0 0 1682.5 966 A 3 3 0 0 0 1685.5 969 A 3 3 0 0 0 1688.5 966 A 3 3 0 0 0 1685.5 963 Z " fill-rule="nonzero" fill="#333333" stroke="none" />
</svg>