<?xml version="1.0" encoding="utf-8"?>
<svg version="1.1" xmlns:xlink="http://www.w3.org/1999/xlink" width="10px" height="56px" preserveAspectRatio="xMidYMin meet" viewBox="1377 609  8 56" xmlns="http://www.w3.org/2000/svg">
  <path d="M 1381.5 610  L 1381.5 655  A 5 5 0 0 0 1386.5 660.5 L 1475 660.5  A 5 5 0 0 0 1480.5 655.5 L 1480.5 483  A 5 5 0 0 1 1485.5 478.5 L 1494 478.5  " stroke-width="1" stroke="#000000" fill="none" />
  <path d="M 1381.5 609  A 3 3 0 0 0 1378.5 612 A 3 3 0 0 0 1381.5 615 A 3 3 0 0 0 1384.5 612 A 3 3 0 0 0 1381.5 609 Z " fill-rule="nonzero" fill="#000000" stroke="none" />
</svg>