<?xml version="1.0" encoding="utf-8"?>
<svg version="1.1" xmlns:xlink="http://www.w3.org/1999/xlink" width="33px" height="23px" xmlns="http://www.w3.org/2000/svg">
  <defs>
    <mask fill="white" id="clip116">
      <path d="M 0 22  L 0 0  L 32 0  L 32 22  L 21.2482721956406 22  L 0 22  Z " fill-rule="evenodd" />
    </mask>
  </defs>
  <g transform="matrix(1 0 0 1 -1163 -206 )">
    <path d="M 0 22  L 0 0  L 32 0  L 32 22  L 21.2482721956406 22  L 0 22  Z " fill-rule="nonzero" fill="#f2f2f2" stroke="none" transform="matrix(1 0 0 1 1163 206 )" />
    <path d="M 0 22  L 0 0  L 32 0  L 32 22  L 21.2482721956406 22  L 0 22  Z " stroke-width="2" stroke="#d7d7d7" fill="none" transform="matrix(1 0 0 1 1163 206 )" mask="url(#clip116)" />
    <path d="M 31.4644516510261 0.368189489919599  L 0.53554834897391 21.6318105100804  M 0.53554834897391 0.368189489919599  L 31.4644516510261 21.6318105100804  " stroke-width="1" stroke="#d7d7d7" fill="none" transform="matrix(1 0 0 1 1163 206 )" />
  </g>
</svg>