<?xml version="1.0" encoding="utf-8"?>
<svg version="1.1" xmlns:xlink="http://www.w3.org/1999/xlink" width="43px" height="39px" xmlns="http://www.w3.org/2000/svg">
  <defs>
    <mask fill="white" id="clip460">
      <path d="M 0 38  L 0 0  L 42 0  L 42 38  L 27.8883572567782 38  L 0 38  Z " fill-rule="evenodd" />
    </mask>
  </defs>
  <g transform="matrix(1 0 0 1 -1109 -139 )">
    <path d="M 0 38  L 0 0  L 42 0  L 42 38  L 27.8883572567782 38  L 0 38  Z " fill-rule="nonzero" fill="#f2f2f2" stroke="none" transform="matrix(1 0 0 1 1109 139 )" />
    <path d="M 0 38  L 0 0  L 42 0  L 42 38  L 27.8883572567782 38  L 0 38  Z " stroke-width="2" stroke="#d7d7d7" fill="none" transform="matrix(1 0 0 1 1109 139 )" mask="url(#clip460)" />
    <path d="M 41.2970927919717 0.635963664406581  L 0.702907208028256 37.3640363355934  M 0.702907208028256 0.635963664406581  L 41.2970927919717 37.3640363355934  " stroke-width="1" stroke="#d7d7d7" fill="none" transform="matrix(1 0 0 1 1109 139 )" />
  </g>
</svg>