<?xml version="1.0" encoding="utf-8"?>
<svg version="1.1" xmlns:xlink="http://www.w3.org/1999/xlink" width="142px" height="96px" xmlns="http://www.w3.org/2000/svg">
  <defs>
    <mask fill="white" id="clip1">
      <path d="M 0 90.7034482758621  L 0 5.29655172413793  C 0 2.33048275862068  3.51999999999998 0  8 0  L 69.8688524590164 0  L 134 0  C 138.48 0  142 2.33048275862068  142 5.29655172413793  L 142 90.7034482758621  C 142 93.6695172413793  138.48 96  134 96  L 8 96  C 3.51999999999998 96  0 93.6695172413793  0 90.7034482758621  Z " fill-rule="evenodd" />
    </mask>
  </defs>
  <g transform="matrix(1 0 0 1 -358 -459 )">
    <path d="M 0 90.7034482758621  L 0 5.29655172413793  C 0 2.33048275862068  3.51999999999998 0  8 0  L 69.8688524590164 0  L 134 0  C 138.48 0  142 2.33048275862068  142 5.29655172413793  L 142 90.7034482758621  C 142 93.6695172413793  138.48 96  134 96  L 8 96  C 3.51999999999998 96  0 93.6695172413793  0 90.7034482758621  Z " fill-rule="nonzero" fill="#ffffff" stroke="none" transform="matrix(1 0 0 1 358 459 )" />
    <path d="M 0 90.7034482758621  L 0 5.29655172413793  C 0 2.33048275862068  3.51999999999998 0  8 0  L 69.8688524590164 0  L 134 0  C 138.48 0  142 2.33048275862068  142 5.29655172413793  L 142 90.7034482758621  C 142 93.6695172413793  138.48 96  134 96  L 8 96  C 3.51999999999998 96  0 93.6695172413793  0 90.7034482758621  Z " stroke-width="4" stroke="#333333" fill="none" transform="matrix(1 0 0 1 358 459 )" mask="url(#clip1)" />
  </g>
</svg>