<?xml version="1.0" encoding="utf-8"?>
<svg version="1.1" xmlns:xlink="http://www.w3.org/1999/xlink" width="10px" height="18px" preserveAspectRatio="xMidYMin meet" viewBox="1796 1125  8 18" xmlns="http://www.w3.org/2000/svg">
  <path d="M 1679.5 1141  L 1679.5 1135  A 5 5 0 0 1 1684.5 1130.5 L 1796 1130.5  A 4 4 0 0 1 1800.5 1134.5 A 4 4 0 0 0 1804.5 1138.5 L 1817 1138.5  " stroke-width="1" stroke="#333333" fill="none" />
  <path d="M 1679.5 1136  A 3 3 0 0 0 1676.5 1139 A 3 3 0 0 0 1679.5 1142 A 3 3 0 0 0 1682.5 1139 A 3 3 0 0 0 1679.5 1136 Z " fill-rule="nonzero" fill="#333333" stroke="none" />
</svg>