<?xml version="1.0" encoding="utf-8"?>
<svg version="1.1" xmlns:xlink="http://www.w3.org/1999/xlink" width="229px" height="10px" preserveAspectRatio="xMinYMid meet" viewBox="1257 427  229 8" xmlns="http://www.w3.org/2000/svg">
  <path d="M 1262.5 372  L 1262.5 426  A 5 5 0 0 0 1267.5 431.5 L 1476 431.5  A 5 5 0 0 1 1481.5 436.5 L 1481.5 496  A 5 5 0 0 0 1486.5 501.5 L 1491 501.5  " stroke-width="1" stroke="#000000" fill="none" />
  <path d="M 1262.5 371  A 3 3 0 0 0 1259.5 374 A 3 3 0 0 0 1262.5 377 A 3 3 0 0 0 1265.5 374 A 3 3 0 0 0 1262.5 371 Z " fill-rule="nonzero" fill="#000000" stroke="none" />
</svg>