<?xml version="1.0" encoding="utf-8"?>
<svg version="1.1" xmlns:xlink="http://www.w3.org/1999/xlink" width="70px" height="10px" preserveAspectRatio="xMinYMid meet" viewBox="2126 1051  70 8" xmlns="http://www.w3.org/2000/svg">
  <path d="M 1925.95969769413 815.658529015192  A 1 1 0 0 1 1926.5 815.5 L 2126 815.5  A 5 5 0 0 1 2131.5 820.5 L 2131.5 1050  A 5 5 0 0 0 2136.5 1055.5 L 2196 1055.5  " stroke-width="1" stroke="#555555" fill="none" />
  <path d="M 1927.42920367321 812.5  A 3 3 0 0 0 1924.42920367321 815.5 A 3 3 0 0 0 1927.42920367321 818.5 A 3 3 0 0 0 1930.42920367321 815.5 A 3 3 0 0 0 1927.42920367321 812.5 Z " fill-rule="nonzero" fill="#555555" stroke="none" />
</svg>