<?xml version="1.0" encoding="utf-8"?>
<svg version="1.1" xmlns:xlink="http://www.w3.org/1999/xlink" width="134px" height="10px" preserveAspectRatio="xMinYMid meet" viewBox="1671 1256  134 8" xmlns="http://www.w3.org/2000/svg">
  <path d="M 1676.5 1277  L 1676.5 1265  A 5 5 0 0 1 1681.5 1260.5 L 1798 1260.5  A 2 2 0 0 1 1800.5 1262.5 A 2 2 0 0 0 1802.5 1264.5 L 1815 1264.5  " stroke-width="1" stroke="#333333" fill="none" />
  <path d="M 1676.5 1272  A 3 3 0 0 0 1673.5 1275 A 3 3 0 0 0 1676.5 1278 A 3 3 0 0 0 1679.5 1275 A 3 3 0 0 0 1676.5 1272 Z " fill-rule="nonzero" fill="#333333" stroke="none" />
</svg>