<?xml version="1.0" encoding="utf-8"?>
<svg version="1.1" xmlns:xlink="http://www.w3.org/1999/xlink" width="10px" height="125px" preserveAspectRatio="xMidYMin meet" viewBox="2046 545  8 125" xmlns="http://www.w3.org/2000/svg">
  <path d="M 1974.5 564  L 1974.5 555  A 5 5 0 0 1 1979.5 550.5 L 2045 550.5  A 5 5 0 0 1 2050.5 555.5 L 2050.5 660  A 5 5 0 0 0 2055.5 665.5 L 2061 665.5  " stroke-width="1" stroke="#333333" fill="none" />
  <path d="M 1974.5 559  A 3 3 0 0 0 1971.5 562 A 3 3 0 0 0 1974.5 565 A 3 3 0 0 0 1977.5 562 A 3 3 0 0 0 1974.5 559 Z " fill-rule="nonzero" fill="#333333" stroke="none" />
</svg>