<?xml version="1.0" encoding="utf-8"?>
<svg version="1.1" xmlns:xlink="http://www.w3.org/1999/xlink" width="86px" height="10px" preserveAspectRatio="xMinYMid meet" viewBox="1969 1056  86 8" xmlns="http://www.w3.org/2000/svg">
  <path d="M 1974.5 1076  L 1974.5 1065  A 5 5 0 0 1 1979.5 1060.5 L 2045 1060.5  A 5 5 0 0 1 2050.5 1065.5 L 2050.5 1172  A 5 5 0 0 0 2055.5 1177.5 L 2061 1177.5  " stroke-width="1" stroke="#333333" fill="none" />
  <path d="M 1974.5 1071  A 3 3 0 0 0 1971.5 1074 A 3 3 0 0 0 1974.5 1077 A 3 3 0 0 0 1977.5 1074 A 3 3 0 0 0 1974.5 1071 Z " fill-rule="nonzero" fill="#333333" stroke="none" />
</svg>