<?xml version="1.0" encoding="utf-8"?>
<svg version="1.1" xmlns:xlink="http://www.w3.org/1999/xlink" width="15px" height="21px" xmlns="http://www.w3.org/2000/svg">
  <g transform="matrix(1 0 0 1 -1657 -1203 )">
    <path d="M 1.41681109185442 0.222656250000001  L 14.7270363951473 12.22265625  C 14.9956672443674 12.45703125  15.0563258232236 12.7265625  14.9090121317158 13.03125  C 14.761698440208 13.34375  14.5060658578856 13.5  14.1421143847487 13.5  L 9.17677642980936 13.5  L 11.7894280762565 19.078125  C 11.8760831889081 19.2734375  11.8760831889081 19.46484375  11.7894280762565 19.65234375  C 11.7027729636049 19.83984375  11.5554592720971 19.9765625  11.3474870017331 20.0625  L 9.04679376083189 20.94140625  C 8.83015597920277 21.01953125  8.61785095320624 21.01953125  8.40987868284229 20.94140625  C 8.20190641247834 20.86328125  8.05025996533796 20.73046875  7.95493934142114 20.54296875  L 5.47227036395147 15.24609375  L 1.41681109185442 18.90234375  C 1.25216637781629 19.05078125  1.05719237435009 19.125  0.831889081455806 19.125  C 0.72790294627383 19.125  0.623916811091854 19.10546875  0.519930675909879 19.06640625  C 0.173310225303293 18.93359375  0 18.703125  0 18.375  L 0 0.75  C 0 0.421875  0.173310225303293 0.191406249999998  0.519930675909879 0.0585937500000007  C 0.623916811091854 0.0195312500000002  0.72790294627383 0  0.831889081455806 0  C 1.06585788561525 0  1.26083188908146 0.0742187500000018  1.41681109185442 0.222656250000001  Z " fill-rule="nonzero" fill="#7f7f7f" stroke="none" transform="matrix(1 0 0 1 1657 1203 )" />
  </g>
</svg>