<?xml version="1.0" encoding="utf-8"?>
<svg version="1.1" xmlns:xlink="http://www.w3.org/1999/xlink" width="18px" height="18px" preserveAspectRatio="xMinYMid meet" viewBox="1716 1036  18 16" xmlns="http://www.w3.org/2000/svg">
  <path d="M 1725.5 1046  L 1725.5 1035  A 5 5 0 0 1 1730.5 1030.5 L 1845 1030.5  A 5 5 0 0 1 1850.5 1035.5 L 1850.5 1038  A 5 5 0 0 0 1855.5 1043.5 L 1865 1043.5  " stroke-width="1" stroke="#333333" fill="none" />
  <path d="M 1725.5 1041  A 3 3 0 0 0 1722.5 1044 A 3 3 0 0 0 1725.5 1047 A 3 3 0 0 0 1728.5 1044 A 3 3 0 0 0 1725.5 1041 Z " fill-rule="nonzero" fill="#333333" stroke="none" />
</svg>