<?xml version="1.0" encoding="utf-8"?>
<svg version="1.1" xmlns:xlink="http://www.w3.org/1999/xlink" width="138px" height="10px" preserveAspectRatio="xMinYMid meet" viewBox="1406 458  138 8" xmlns="http://www.w3.org/2000/svg">
  <path d="M 1402 434.5  L 1406 434.5  A 5 5 0 0 1 1411.5 439.5 L 1411.5 457  A 5 5 0 0 0 1416.5 462.5 L 1534 462.5  A 5 5 0 0 1 1539.5 467.5 L 1539.5 595  A 5 5 0 0 0 1544.5 600.5 L 1557 600.5  " stroke-width="1" stroke="#000000" fill="none" />
  <path d="M 1404 431.5  A 3 3 0 0 0 1401 434.5 A 3 3 0 0 0 1404 437.5 A 3 3 0 0 0 1407 434.5 A 3 3 0 0 0 1404 431.5 Z " fill-rule="nonzero" fill="#000000" stroke="none" />
</svg>